<?xml version="1.0" encoding="utf-8"?>
<!-- Generator: Adobe Illustrator 25.0.1, SVG Export Plug-In . SVG Version: 6.00 Build 0)  -->
<svg version="1.1" id="Layer_1" xmlns="http://www.w3.org/2000/svg" xmlns:xlink="http://www.w3.org/1999/xlink" x="0px" y="0px"
	 viewBox="0 0 1200 700" style="enable-background:new 0 0 1200 700;" xml:space="preserve">
<style type="text/css">
	.st0{fill:#13121D;stroke:#FFFFFF;stroke-miterlimit:10;}
	.st1{fill:#FFFFFF;stroke:#FFFFFF;stroke-miterlimit:10;}
	.st2{fill:#F7F7F7;}
</style>
<path class="st0" d="M0,0h1336.36c0,0-55.32,207.06-513.53,212.94c0,0-529.58-41.18-537.86,487.06H0V0z"/>
<path id="wolf" class="st1" d="M259.59,568.45c6.35-14.35,19.09-40.37,12.11-77.5l0,0c-0.15-4.54-0.46-8.98-1.04-12.69
	c-2.22-14.11-8.45-32.8-8.67-36.1c-0.22-3.3,0.52-10.48-0.28-11.67c-0.8-1.19-3.57-4.68-3.57-4.68s-1.6,1.67-2.45,2.58
	c-0.85,0.92-3.66,2.47-3.66,2.47l-0.42-1.85c0,0,0.3-6.79-0.77-8.61c-1.07-1.82-2.51-4.67-4.4-6.57c-1.88-1.9-2.27-3.61-4.32-4.49
	c-2.05-0.88-1.63,2.1-1.85,5.79c-0.22,3.69-6.94,20.51-6.94,20.51c-2.29-0.81-4.2,2.68-7.41,7.7c-3.21,5.02-4.03,14.46-9.07,20.15
	c-5.03,5.69-6.9,17.5-6.9,17.5l9.76-1.45l-3.42,13.65c-2.46,8.28-5.69,18.97-10.16,19.59c-29.42,4.08-23.47,11.22-40.39,11.22
	c-16.92,0-36.15,1.01-50.38,5.5s-28.85,18.35-28.85,18.35h8.08c0,0-10.77,10.2-20.77,11.01l9.23,6.12c0,0-29.64,2.13-37-8.95
	c0,0,0.47,4.91,1.66,8.81c0,0-19.59-2.39-17.93-26.56c0,0-15.2,29.08,6.89,48.85s46.38,10.07,46.38,10.07l-3.85,6.93
	c0,0,11.92,0,24.23-17.94c0,0,7.69,19.58,10.77,21.21c3.08,1.63-17.69,30.99-17.69,34.66s-10.9,41.05-9.36,41.46
	c1.54,0.41,16.54,5.3,18.46,4.89c1.92-0.41,0-7.75,0-7.75l-1.15-4.49c0,0,3.97-28.82,8.59-30.86c1.48-0.66,5.8-2.45,11.33-5.01
	c2.92,10.77,12.97,34.3,13.28,35.59c0.38,1.63,26.01,3.85,25.13,2.04c-1.79-3.67-12.82-10.6-12.82-10.6l-9.62-22.43
	c0,0,21.54-11.83,27.31-22.84c2.85-5.43,3.01-4.87,4.31-15.31l30.04-7.52c0,0,3.53,33.44,3.91,35.48
	c0.38,2.04,16.54,45.88,18.08,46.08c1.54,0.2,17.31,1.22,17.12-0.82c-0.19-2.04-11.54-11.01-11.92-13.87
	c-0.38-2.85-6.92-33.44-6.92-33.44s1.54-2.43,3.98-6.33c4.45,13.78,12.44,36.77,12.81,38.14c0.34,1.26,9.31,0.85,15.35,0.43
	c1.97-0.14,2.77-2.76,1.25-4.1l-4.8-4.22l-9.74-36.97c0,0,4.87-15.5,10.26-26.37C254.3,587.37,257.37,576.87,259.59,568.45z"/>
<path class="st2" d="M316.01,301.61c-0.81-0.47,7.86-3.89,7.86-3.89c-10.28,1.67-22.69-6.12-22.69-6.12h5.75c0,0-4.54-2.5-9.07-7.23
	c-4.54-4.73-5.14-16.13-5.14-16.13l5.14,6.39c-1.6-19.37-16.88-31.16-18.47-32.05c1.19,0.4,10.64,2.86,11.06,2.86
	c0.45,0-4.54-6.53-19.21-12.79c-14.67-6.26-37.81-6.26-37.81-6.26l3.93-4.49c0,0-13.91,3.66-27.22,0.88
	c-13.31-2.78-20.72-3.22-20.72-3.22l5.14-1.92c0,0-15.07-2.22-24.5,1.11c-11.15,3.95-14.83-8.39-14.83-8.39l0,0
	c-2.49-6.17-2.63-13.3-2.63-13.3s12.75,3.78,12.75,2.95c0-0.83,0.22-14.34-11.56-28.27c-1.11-1.32-0.73-13.18-8.6-19.85
	c-7.86-6.67-11.19-10.29-12.86-15.43c-1.66-5.14-4.08-12.37-4.84-15.85c-0.76-3.48-3.18-3.61-5.29-1.25
	c-2.12,2.36-2.27,3.34-2.27,3.34s-5.29,2.78-5.9,4.59c-0.6,1.81-0.76,4.31-0.76,4.31l-1.66,3.2l2.57,0.28c0,0,0.76,3.89,0.76,5.98
	c0,2.09-1.81,6.26-2.27,6.26c-0.45,0-5.9-4.73-5.9-4.73l1.21-2.5l-3.78-0.56c0,0-1.97-3.75-2.42-4.45c-0.45-0.7-8.02,3.2-8.17,5.42
	c-0.15,2.22,3.48,3.89,3.63,8.62c0.15,4.73,4,22.94,4,22.94s-18.45,36.33-20.87,57.46c-2.42,21.13,3.43,35.03,3.23,34.47
	c-0.2-0.56,2.22-14.09,2.22-14.09s1.01,21.13,13.51,30.4c0.19,0.14,0.38,0.27,0.56,0.39c2.78,4.42,5.55,7.76,7.63,10.64
	c6.05,8.34,6.17,36.98,7.47,44.48c1.3,7.51,1.91,27.25,1.91,27.25s0.72,6.11-1.34,6.3c-3.06,0.28-6.26,4.26-7.94,5.37
	c-0.67,0.45-0.31,1.43,0.52,1.41l11.48-0.29c0,0,10.21-10.29,9.34-13.07c-0.87-2.78,0-53.38,0-53.38s2.76,56.16,1.85,57.83
	c-0.91,1.67-10.89,10.01-9.38,11.95c1.51,1.95,18.45,1.95,19.36,0c0.91-1.95,6.05-12.79,7.26-15.29c1.21-2.5-3.33-7.51-2.42-15.01
	c0.91-7.51,3.59-44.64,5.34-43.93c30.25,12.39,31.18-3.48,62.94,2.5l5.07,0.83c3.31,16.23,22.66,39.73,20.12,43.1
	c-2.72,3.61-11.19,25.3-11.19,25.3s-13.84,6.67-10.82,8.34c3.02,1.67,20.65,1.39,22.24,0.83c1.59-0.56,20.64-30.58,18.52-33.08
	c-0.91-1.07-0.87-5.83-0.27-11.45c0.92,5.55,2.64,10.22,3.21,11.45c0.91,1.95-14.67,26.97-14.67,26.97s12.1,0,13.61,0
	c1.51,0,16.03-27.94,17.36-33.36c1.33-5.42-4.36-23.77-1.34-33.64c0.96-3.13,1.31-6.84,1.34-10.44c0.49,2.3,1.14,4.44,2,6.27
	c5.96,12.76,26.32,16.13,26.32,16.13l-3.33-3.89c54.55,12.33,54.55-31.79,54.55-31.79C346.96,300.13,327.81,308.57,316.01,301.61z
	 M367.17,204.52c-0.22-1.06-0.82-3.36-2.37-7.02C366.28,200.6,366.93,203.3,367.17,204.52z"/>
</svg>
