<svg xmlns="http://www.w3.org/2000/svg" xmlns:xlink="http://www.w3.org/1999/xlink" viewBox="0 0 2035.95 701"><defs><style>.cls-1,.cls-21{fill:none;}.cls-2{isolation:isolate;}.cls-3,.cls-7{fill:#0d081e;}.cls-3{stroke:#0d081e;}.cls-21,.cls-23,.cls-28,.cls-3{stroke-miterlimit:10;}.cls-4{fill:#060015;}.cls-5{fill:#4a8100;}.cls-6{fill:#fff;}.cls-8{fill:#6f1200;}.cls-14,.cls-9{fill:#300100;}.cls-9{opacity:0.5;}.cls-15,.cls-18,.cls-9{mix-blend-mode:multiply;}.cls-10{fill:#893c2e;}.cls-11,.cls-20,.cls-23,.cls-28{fill:#fccaa1;}.cls-12{fill:#dd692f;}.cls-13{fill:#faaa74;}.cls-15{opacity:0.6;}.cls-16{fill:#89b92e;}.cls-17{fill:#304a00;}.cls-18{opacity:0.4;}.cls-19{fill:#cdff5f;}.cls-20,.cls-21,.cls-23,.cls-28{stroke:#dd692f;}.cls-20{stroke-linejoin:round;}.cls-20,.cls-21,.cls-23{stroke-width:0.23px;}.cls-22{clip-path:url(#clip-path);}.cls-24{fill:#e28f63;}.cls-25{fill:#d46e43;}.cls-26{fill:#c7552d;}.cls-27{fill:#fdd8b6;}.cls-28{stroke-width:0.24px;}.cls-29{fill:#ab1e37;}.cls-30{fill:#590006;}.cls-31{fill:#f48987;}.cls-32{fill:#dc4f4e;}.cls-33{fill:#fff2d1;}.cls-34{clip-path:url(#clip-path-2);}.cls-35{fill:#feb;}.cls-36{fill:#fffaed;}.cls-37{fill:#904d35;}.cls-38{fill:#450806;}.cls-39{fill:#3d0101;}.cls-40{fill:#bb5323;}.cls-41{fill:#e0864d;}</style><clipPath id="clip-path" transform="translate(26.81 0.5)"><path class="cls-1" d="M56.94,326.26c3.57-2.94,9.86-5.71,16.88.72,0,0,.72.38,1.91.85a3.76,3.76,0,0,1-1.37.77s.43.6,1.81.11c0,0-.89.87-.79,1.25s2.2-.38,2.2-.38-.82,1.19-.45,1.58,1.52-.14,2-.83a12,12,0,0,0,0,1.83c0,.47.34.37.61.13a1.23,1.23,0,0,0,.42-.26A3.41,3.41,0,0,0,80.8,331c.12.92.46,1.91,1.3,2.08a.2.2,0,0,0,.24-.12,3.19,3.19,0,0,0,.22-.77,9,9,0,0,1,.52,2.24c.44,3.93,1,7.38-5.37,6.34s-15-5.41-17.72-7.23S53.36,329.2,56.94,326.26Z"/></clipPath><clipPath id="clip-path-2" transform="translate(26.81 0.5)"><path class="cls-1" d="M121.55,289.59s-.33-2.77-1.73-3.6-2.06-.17-2.06-.17.3-12,7.14-10.22S127.46,289,121.55,289.59Z"/></clipPath></defs><g class="cls-2"><g id="Layer_1" data-name="Layer 1"><path class="cls-3" d="M-26.21,700H2008.43S1761.67,28.3,1100.65,283.5C433.32,541.2,298.39,0,298.39,0H-26.21Z" transform="translate(26.81 0.5)"/><path class="cls-4" d="M-26.71,0h328.8c-7.2,27.7-32.4,69.4-36.5,81.2-6.5,18.4-10.4,34.2-37.5,22.4-27.3-11.9-107.2-22.4-124.7-19.7s-39.5-1.3-70.5-19.7c-11.1-6.7-50.3-9.8-59.7-11.2C-26.61,39.5-26.71,13.5-26.71,0Z" transform="translate(26.81 0.5)"/><path class="cls-5" d="M144.9,153.1l41.7-66.2s3.3-2.8,1.3,1-37.1,59.9-37.1,59.9Z" transform="translate(26.81 0.5)"/><path class="cls-6" d="M860.4,507a16.25,16.25,0,0,1,2.7-5.8c1.9-2.4,2.9-3.6,3.4-3.1s.2,1.8.4,2.2,1.1.4,1.9-.2a6.22,6.22,0,0,1,3-1.8c1.2-.1,2.1.4,2.3.2a1.39,1.39,0,0,1,1.1,0c.2.2-.9.5-1.3,1.3a3.7,3.7,0,0,0-.4,1.5s1.2-1.6,2.2-.6a28,28,0,0,0,3,3c1.5,1.3,9.7,9.4,11.1,11.4s-.9.7-1.8.1-8.1-.5-12.2-4.7c-1.5-1.6-5.7.9-7.4.3s-3.2-.9-3.6-1-3.3,3.8-3.9,5.7-3.2-.1-3.5-2.9c-.5-2.8-.1-3.3.2-3.3a15.43,15.43,0,0,0,3.8-1.3c1.2-.7.5-1.2.2-1C861.4,507,860.6,507.6,860.4,507Z" transform="translate(26.81 0.5)"/><path class="cls-6" d="M975,570.5a16.21,16.21,0,0,1,1.9-5.2c1.4-2.1,2.2-3.3,2.6-3s.2,1.5.5,1.9c.1.4.9.2,1.6-.4a5.07,5.07,0,0,1,2.5-1.8,12.44,12.44,0,0,1,2,0c.2-.1.6-.3.8-.1s-.8.5-1.1,1.2a4.83,4.83,0,0,0-.2,1.2s.9-1.5,1.9-.7,1.3,1.3,2.7,2.2a130,130,0,0,1,10.1,8.5c1.3,1.6-.7.6-1.4.2s-6.8.4-10.6-2.9c-1.4-1.2-4.7,1.3-6.1,1s-2.8-.4-3.2-.5-2.6,3.5-2.8,5.2c-.4,1.6-2.6.2-3.2-2.1s-.2-2.8.1-2.9a11.73,11.73,0,0,0,3-1.5c.9-.7.4-1,.1-.9C976,570.4,975.3,571,975,570.5Z" transform="translate(26.81 0.5)"/><path class="cls-6" d="M814.5,544a8.07,8.07,0,0,1,1.3-3.5c.9-1.5,1.5-2.2,1.8-2a3,3,0,0,1,.2,1.3c.1.2.6.2,1.1-.2s1.1-1.1,1.6-1.2,1.2.1,1.4,0,.5-.2.6-.1-.5.4-.7.8a5.1,5.1,0,0,0-.1.9s.6-1,1.3-.5a11.41,11.41,0,0,0,1.9,1.5,87.51,87.51,0,0,1,6.8,5.8c.8,1-.5.4-1.1.1s-4.6.2-7.2-1.9c-.9-.8-3.2.9-4.1.7a14.19,14.19,0,0,0-2.1-.3,8.49,8.49,0,0,0-1.9,3.5c-.2,1.1-1.8.2-2.1-1.4s-.2-1.9.1-1.9a9.29,9.29,0,0,0,2.1-1c.6-.5.2-.7.1-.5C815.1,543.8,814.7,544.2,814.5,544Z" transform="translate(26.81 0.5)"/><path class="cls-6" d="M828.8,575.3s4.3-3.4,6.3-3.6,3.4-.1,3.2.9-.6,3.9.1,4.9.6,1.6,1.5.4,1.3-3,2-2.2.4,1.9,1.2,1.6a2.47,2.47,0,0,1,1.2-.3c.4.1.6-.2,1.1-.3s-.5.5-.6.8-.5,1.9-.8,2.7a3.85,3.85,0,0,0-.6,1.6s.7,2.2,1.8,5.3,1.5,4.7,0,3.1-.9-1.8-2.2-2.6a7.17,7.17,0,0,1-2.6-2.8s-2.5,1.6-3.5,1.3-1.4,1.3-2.2,2.2-2,1.2-3.4-.6-.5-3.3-.1-3.6a21.51,21.51,0,0,0,2.9-.6c.8-.4,1.6-1.6.6-1.5s-2.2-2.9-1.9-3.8c.5-1,1.3-3,.2-3S829.4,576.1,828.8,575.3Z" transform="translate(26.81 0.5)"/><path class="cls-6" d="M968.6,470.1a8.88,8.88,0,0,1,2.9-1.3c.8,0,1.5.1,1.4.5s-.4,1.7-.1,2.2.2.7.6.2.6-1.3.9-.9.1.9.5.8a1.75,1.75,0,0,1,.5-.1,2,2,0,0,1,.5-.1c.1,0-.2.2-.2.3s-.2.9-.5,1.2a7.76,7.76,0,0,0-.4.7s.2,1,.6,2.4.6,2.1-.1,1.3-.4-.8-.9-1.3-1.1-1-1.1-1.3c0,0-1.2.6-1.5.4s-.6.5-1.1.9-.9.4-1.4-.4-.1-1.5.1-1.6.9,0,1.3-.1.8-.6.4-.6-.9-1.3-.7-1.8.6-1.2.1-1.3S968.7,470.5,968.6,470.1Z" transform="translate(26.81 0.5)"/><path class="cls-6" d="M891,458.5c0-.2-.2-6.6-1.4-8.7s-5.4-8-7.6-11.1-4.8-6-5.2-5.6,2.2,3.9,2.3,6.3a31.08,31.08,0,0,0,1.2,6.6c.5,1.8,1.9,3.2,1.8,4.7a29.62,29.62,0,0,0,1.3,8.9c1.2,4.4,1.9,7.3,2,9.5s.1,3.1-1.8,2.6-4.6-1.9-5.2-1.3-.9,5.6.6,7,5.2,1.9,6.7,1.7.8-3.8,1.5-3.9a14.09,14.09,0,0,0,7.6-1.9,12.37,12.37,0,0,0,4.6-4.3c.5-.4.8-.8.5-.9s-.2.2-1.3-.4a4.63,4.63,0,0,0-2.8-.7c-.5.1-1.1-1,.1-2.8s3.3-4.1,2.8-6.7-1.2-7.5-1.8-9.7-1.9-3.8-2.2-3.3c-.5.5.7,2.2.2,4.9s-3,6.4-3.5,8.3C891.3,459.2,891,459.9,891,458.5Z" transform="translate(26.81 0.5)"/><path class="cls-6" d="M870.3,562.3a5.79,5.79,0,0,1,2.1-.9,1.81,1.81,0,0,1,1.4.5,2,2,0,0,0,.8.3c.2,0,0,.2-.4.4s-.6,1.1-1.2,1.7-2.1,3.5-3.5,4.3-3.2,1.1-4.1,1.8-1.8,2.6-2.2,2.7-1.6-1.8-2.1-2.6.8-1.5,1.6-1.5,1.8-1,1.3-1.3-3.5-5.8-4-7.5-1.2-8.1-2.1-10.1-.6-6.4-.2-6.5,2.5,3.7,3.2,5,1.2,2.1,1.4,2.1.5-1,.5-1.9-.2-2.4,1.8.7,4.2,4.8,4.1,6.5a32.07,32.07,0,0,0,0,4.4,17.29,17.29,0,0,0,.4,2.4A3.34,3.34,0,0,0,870.3,562.3Z" transform="translate(26.81 0.5)"/><path class="cls-6" d="M1057.2,563.4a3.38,3.38,0,0,1,1.6-.7,1.82,1.82,0,0,1,1.1.4.85.85,0,0,0,.6.2c.1,0,0,.2-.2.3s-.5.9-.9,1.3-1.5,2.6-2.6,3.3a30.9,30.9,0,0,1-3.2,1.3c-.7.5-1.4,1.9-1.8,2.1s-1.2-1.4-1.5-1.9.6-1.1,1.2-1.2,1.4-.8,1.1-1-2.6-4.4-3-5.6-.8-6.1-1.5-7.7-.5-4.8-.1-4.9c.2-.1,1.8,2.8,2.5,3.8s.9,1.6,1.1,1.6.2-.7.2-1.5-.1-1.8,1.4.5,3.2,3.6,3.2,4.9a18,18,0,0,0,0,3.3l.2,1.8A1.55,1.55,0,0,0,1057.2,563.4Z" transform="translate(26.81 0.5)"/><path class="cls-6" d="M1048.2,430.8a5,5,0,0,1,2.2-.2,2.28,2.28,0,0,1,1.3.9,1,1,0,0,0,.8.5c.2.1-.1.2-.5.3s-.8.9-1.5,1.3-2.6,2.7-4.2,3.2-3.4.1-4.3.4c-1.1.4-2.2,1.9-2.7,1.9s-1.2-2.3-1.5-3.1,1.1-1.2,1.9-1,1.9-.5,1.5-.9-2.2-6.7-2.5-8.4c-.1-1.8.5-8.2,0-10.4s.7-6.3,1.1-6.4,1.5,4.3,2.1,5.8.8,2.4.9,2.5.6-.8.8-1.8.2-2.4,1.5,1.3,3.2,6,2.7,7.5a18.83,18.83,0,0,0-.8,4.3c-.1,1.2-.1,2.4-.1,2.4A8.47,8.47,0,0,0,1048.2,430.8Z" transform="translate(26.81 0.5)"/><path class="cls-6" d="M876.2,420.6a2.74,2.74,0,0,0-.5-.4,1.9,1.9,0,0,0-.8-.7,4.13,4.13,0,0,0-1.5-.1c-.2.1-.8-.1-.8-.1l.2-1.6a19.53,19.53,0,0,1,.8-2.7c.5-1-.7-2.7-1.4-5.2s-.8-1.6-1.1-1-.5,1.2-.6,1.1a14.32,14.32,0,0,1-.5-1.7c-.2-1.1-.8-4.1-1.1-4.1s-1.3,2.6-1.1,4.1-.6,5.6-.6,6.9.8,5.5,1.2,5.8c.2.3-.5.7-1.1.5s-1.4-.1-1.3.5.5,2.2.8,2.2,1.2-.9,1.9-1.1,1.9.2,2.9.1,2.5-1.5,3-1.7.8-.7,1.1-.7S876.3,420.7,876.2,420.6Z" transform="translate(26.81 0.5)"/><path class="cls-6" d="M995.1,429.3s3.4-1.6,4.9-1.1,1.4,1.7,2,1.8,1.4.5,1.1.7c-.5.2-1.1.2-1.4.7s-1.9,2.9-3,3.5-1.9.8-1.5,1.4,2.5,3.6,4.5,3.9,4.3.7,5.2,2.7,1.5,7.3,2.3,10.8a99.44,99.44,0,0,1,1.4,17.1c-.2,3.5-.1,4.7-1.1,5.2s-4.1-4.3-4.6-7.6-1.4-8.9-3.3-11.5-9.8-9.4-11.6-10.8a7.33,7.33,0,0,1-2.3-3.3s-2.5,1.1-3.9,1.6c-.8.3-3.5,3.3-4,4.4s-.8,1.6-1.5,1a16,16,0,0,1-2.2-2.7c-.6-1-1.8-3.2-.9-3.6.7-.4,1.9-.7,3.3-1.4a11,11,0,0,0,3.5-3,9.59,9.59,0,0,0,1.5-2.9c0-.2-2.3-5.8-2.6-10.1a47.71,47.71,0,0,0-2.2-10.9c-.6-1.2-6.6-7.1-8.1-9.4s-3.8-4.9-.7-4.7,11.1,3.8,14.2,6,6.1,3.6,6.1,6.4-.8,6.6,0,9.2C990.5,425.2,993.1,429.5,995.1,429.3Z" transform="translate(26.81 0.5)"/><path class="cls-6" d="M865.2,614.6s1.9-1.8,2.9-1.9,1.2.7,1.5.7,1.1,0,.7.2c-.2.2-.6.4-.7.7a9.64,9.64,0,0,1-1.4,3c-.7.8-1.1,1-.7,1.2s2.1,1.6,3.4,1.4,2.8-.6,3.6.5,2.1,4.3,3.2,6.2a46.35,46.35,0,0,1,3.5,10.3c.3,2.2.6,3,.1,3.5s-3.2-1.8-4.1-3.6-2.2-5.2-3.9-6.4c-1.5-1.1-7.7-3.5-9-3.9a4.69,4.69,0,0,1-2-1.5s-1.4,1.3-2.2,1.9a11.79,11.79,0,0,0-1.9,3.7c-.1.8-.2,1.2-.8,1a6.28,6.28,0,0,1-1.8-1.2c-.6-.5-1.5-1.6-1.2-2.1s1.1-.9,1.8-1.6A18.1,18.1,0,0,0,858,624a5.32,5.32,0,0,0,.5-2.2,26.48,26.48,0,0,1-3.2-5.7,31.17,31.17,0,0,0-3-6.3c-.5-.6-5.2-2.9-6.6-3.9s-3-2.2-1.2-2.8,7.5-.3,9.8.3,4.3.8,4.8,2.6.5,4.3,1.4,5.8C861.7,613.2,864,615.2,865.2,614.6Z" transform="translate(26.81 0.5)"/><path class="cls-6" d="M921.9,590.9s-.1-2.6-3.4-5.2-9-9.5-9.5-11.2-2.2-4.6-2.3-5.3-1.1,1.2-.1,3.7a38.17,38.17,0,0,1,2.3,6.7c.2,1.6,1.9,7.1,5.7,9.5s5.6,3.8,5.5,4.4-1.1,1.4-1.9,1.1-3.2-1.6-3.4-1,.8,6.4,3.5,7.8,6,.4,6.4-.1-2-1.2-1.5-2.2,1.6-.4,2.5-1.1,2.8-.1,3.3,0-.2-.6-.2-.6,4.2.9,5.9,1.3,6-.1,7.2.5,11.4.6,11.8-.4c.2-.6-1.5-.3-3.2-.3s-6.8-.7-8.8-1.8a35.26,35.26,0,0,0-6-2.9c-1.3-.4-5.2.3-6.6.4a20.67,20.67,0,0,1-2.3-.1,7.94,7.94,0,0,0-1.6-2.1A11.87,11.87,0,0,0,921.9,590.9Z" transform="translate(26.81 0.5)"/><path class="cls-6" d="M909.7,441.9a4.69,4.69,0,0,0-1.9-2.9c-1.9-1.5-5-5.3-5.3-6.2a11.17,11.17,0,0,0-1.4-2.9c-.1-.4-.6.7-.1,2.1a24.55,24.55,0,0,1,1.3,3.8,8.8,8.8,0,0,0,3.2,5.3c2.1,1.3,3.2,2.1,3,2.4a.86.86,0,0,1-1.1.6c-.5-.2-1.8-.9-1.9-.5s.5,3.5,2,4.3a3.94,3.94,0,0,0,3.5,0c.2-.2-1.1-.7-.8-1.3s.9-.2,1.4-.6,1.5-.1,1.8,0-.1-.3-.1-.3,2.2.5,3.3.7c.9.2,3.3,0,4,.3s6.3.3,6.6-.2c.1-.4-.8-.2-1.8-.2a13.75,13.75,0,0,1-4.8-1,14.42,14.42,0,0,0-3.4-1.6c-.7-.2-2.8.2-3.8.2a5,5,0,0,1-1.3-.1,5.08,5.08,0,0,0-.9-1.2C911,442.2,909.7,441.9,909.7,441.9Z" transform="translate(26.81 0.5)"/><path class="cls-6" d="M872.5,477.9a7.67,7.67,0,0,1-2.6-.1,8.3,8.3,0,0,0-1.8-.5c-.4-.1-1.4.4-1.9.4a4.55,4.55,0,0,1-.6.1,1.1,1.1,0,0,0-.5-.5,3.44,3.44,0,0,0-.9-.1s-.1-.7-1.2-1.3a10.2,10.2,0,0,1-3-2.7c-.2-.5-.8-1.2-.8-1.4s-.2.4.1,1.1a8.33,8.33,0,0,1,.8,1.8,4.34,4.34,0,0,0,1.9,2.4c1.2.5,1.8.8,1.8,1a.46.46,0,0,1-.5.4c-.2-.1-.9-.3-1.1-.1s.5,1.8,1.3,2a2.94,2.94,0,0,0,1.9-.3c.1-.1-.6-.2-.5-.5s.5-.2.6-.4.8-.2.9-.2-.1-.2-.1-.2,1.2.1,1.8.1,1.8-.3,2.1-.2,3.3-.4,3.4-.7C873.4,477.7,872.9,477.9,872.5,477.9Z" transform="translate(26.81 0.5)"/><path class="cls-6" d="M1060.5,470.7c-1.4-.3-5.5-1.7-6.9-3a19.11,19.11,0,0,0-4.6-3.3c-.9-.5-4.2-.6-5.4-.9a9.07,9.07,0,0,1-1.9-.5,8.45,8.45,0,0,0-1.1-2,9.93,9.93,0,0,0-2.5-1.3s.2-2.1-2.2-4.8-6.2-9.2-6.4-10.7a48.87,48.87,0,0,0-1.4-4.7c-.1-.7-.9.8-.5,3s1.1,4.6,1.2,5.9.8,6.1,3.6,8.7,4.2,4,3.9,4.4a1.26,1.26,0,0,1-1.8.5c-.7-.4-2.5-1.8-2.6-1.4s-.1,5.3,2.1,6.9a5.89,5.89,0,0,0,5.2,1c.5-.2-1.5-1.3-.9-2.1s1.4-.1,2.1-.5,2.2.4,2.6.5-.1-.5-.1-.5,3.3,1.4,4.6,2,4.8,1,5.7,1.6,9.1,2.4,9.7,1.7C1063.3,471.1,1061.7,471,1060.5,470.7Z" transform="translate(26.81 0.5)"/><path class="cls-6" d="M980.4,501.9s-3.9-4.2-4.6-8-2.1-7.9-4.2-9.5-7.5-6.7-11-8.4-3.8-.4-2.1,1.2c3.4,3.5,3.9,6.3,4.6,9.4s1.3,11.2,4.3,15,5.4,6,5.4,7.5a2.24,2.24,0,0,1-.9,2.1s-3.5,2-4.6,2.1-1.2,1.3-.4,4.3,2.2,4.4,4.8,3.9,2.2.2,2.7-2.1-.2-3.6.9-4.3,2-1.5,2.9-1c1.1.5,8.2,8.7,11.7,9.4s3.2,0,5.2,1.5,6,8,7.3,7.4-1.5-5.6-3.4-9.5-4.7-9.5-6.2-10.3-7.2-2.4-7.9-4.5a3.88,3.88,0,0,1,1.5-1.5c.9-.4,1.8-.2,2.6-.8a2.71,2.71,0,0,1,1.9-.4,2.54,2.54,0,0,0-1.2-.9c-.6-.1-1.4-3-3.9-2.7s-3.3.5-4,.5C981.6,502.4,980.4,501.9,980.4,501.9Z" transform="translate(26.81 0.5)"/><path class="cls-6" d="M790.2,484.7a13.64,13.64,0,0,1-2.8-5c-.5-2.4-1.3-4.9-2.6-6s-4.7-4.2-6.8-5.2-2.3-.2-1.4.8a9.19,9.19,0,0,1,2.8,5.8c.5,1.9.8,7,2.7,9.4s3.4,3.7,3.4,4.7a1.2,1.2,0,0,1-.6,1.3,19.25,19.25,0,0,1-2.8,1.3c-.6.1-.8.8-.2,2.7s1.4,2.8,3,2.5,1.4.1,1.8-1.3-.1-2.2.6-2.7,1.2-.9,1.9-.6,5.2,5.5,7.4,5.9,2,0,3.3,1,3.8,5,4.6,4.6-.9-3.5-2.1-6-2.9-5.9-3.9-6.4-4.5-1.5-4.8-2.8a2.38,2.38,0,0,1,.9-.9c.6-.2,1.2-.1,1.6-.5a1.47,1.47,0,0,1,1.2-.2s-.4-.5-.7-.5-.8-1.9-2.5-1.7c-1.5.1-2.1.3-2.5.3A4.57,4.57,0,0,1,790.2,484.7Z" transform="translate(26.81 0.5)"/><path class="cls-6" d="M941.7,469a10.13,10.13,0,0,1-.7-5.5c.4-3.4.7-6.4-.1-8.6s-3.2-7.6-4-11.9-1.6-8.1-2.2-8.3-3.5,8.7-3,14.6,1.2,6.9,1.4,8.6-.6,3.1-.5,6.7,1.2,7.5,1.2,8.3-.6,1.6-1.4,2.2-2.6,1.3-3.4,1.7-1.6.3-1.5.9.2,2.2,1.1,3a4.21,4.21,0,0,0,2.5,1.1c.6.1,1.2-2.4,1.9-2.6s4.1-1.1,4.7-1,2.1,1.6,4.5,1a5.63,5.63,0,0,1,4.5.2c1.4.5,4.5,2.5,4.7,2.4.4-.1-.4-1.9-1.1-2.7a15.17,15.17,0,0,1-1.9-2.2c-.6-.9-2.2-2.4-3-2.3a7.38,7.38,0,0,1,1.8-2.6c1.1-.7,1.9-1.8,2.5-2s1.4-.1,1.5-.3-1.8-.7-1.8-.7a3,3,0,0,0-2.8-1.8C944.1,467.3,942.4,468.8,941.7,469Z" transform="translate(26.81 0.5)"/><path class="cls-6" d="M1027.8,599.5a10,10,0,0,1-.6-4.9c.2-3,.6-5.7-.1-7.5s-2.8-6.7-3.5-10.5-1.4-7.2-1.9-7.3-3,7.7-2.6,12.9a52.66,52.66,0,0,0,1.3,7.6c.2,1.5-.5,2.7-.4,6a34.94,34.94,0,0,0,1.1,7.3c.2.6-.6,1.5-1.2,2a14,14,0,0,1-3,1.5c-.8.3-1.4.2-1.4.8a6.29,6.29,0,0,0,.8,2.7,3.41,3.41,0,0,0,2.1,1c.5.1,1.1-2.2,1.8-2.3s3.5-.9,4.1-.9,1.9,1.5,4,.9,2.7-.4,4,.2,3.9,2.2,4.2,2.1-.2-1.6-.9-2.4c-.8-1-1.2-1.2-1.8-2a5.84,5.84,0,0,0-2.6-2.1,6.87,6.87,0,0,1,1.5-2.2c.8-.6,1.8-1.6,2.1-1.8.5-.1,1.2-.1,1.4-.3s-1.5-.5-1.5-.5a2.88,2.88,0,0,0-2.6-1.6A6.16,6.16,0,0,0,1027.8,599.5Z" transform="translate(26.81 0.5)"/><path class="cls-6" d="M835.5,476.1a5,5,0,0,1-.6-2.6,9,9,0,0,0-.5-4,29.76,29.76,0,0,1-2.5-5.3,17,17,0,0,0-1.4-3.8c-.2-.1-1.2,4.4-.6,7.1a16,16,0,0,0,1.2,3.9c.2.7-.1,1.5.1,3.2a12.61,12.61,0,0,0,1.1,3.8,1.58,1.58,0,0,1-.5,1.2,3.6,3.6,0,0,1-1.5,1c-.5.2-.8.3-.7.5s.2,1,.6,1.3a1.45,1.45,0,0,0,1.2.3c.2,0,.5-1.3.8-1.4a11.12,11.12,0,0,1,2.1-.8,2.85,2.85,0,0,0,2.2.1,2.32,2.32,0,0,1,2.1-.2,22,22,0,0,0,2.3.8c.1-.1-.2-.9-.6-1.2-.5-.5-.7-.5-1.1-.9s-1.2-1-1.5-.9c0,0,.2-1,.7-1.3s.8-1,1.1-1.2a2.54,2.54,0,0,1,.7-.2c.1-.1-.8-.2-.8-.2s-.2-.7-1.4-.6A7.47,7.47,0,0,0,835.5,476.1Z" transform="translate(26.81 0.5)"/><path class="cls-6" d="M987.7,611c-.4-.2-.5-.2-.6-.4s-.8-.4-.9-.3.1-.5.2-.9.4-.7.5-.8a1.42,1.42,0,0,1,.4-.2h-.5s-.2-.4-.8-.1-.9.8-1.2.9a2,2,0,0,1-.6-1.3,4.13,4.13,0,0,0-.6-2.2,13.63,13.63,0,0,1-1.9-2.7,7.57,7.57,0,0,0-1.2-1.9,12.25,12.25,0,0,0,.2,4.1,8.5,8.5,0,0,0,1.1,2.1,12.47,12.47,0,0,0,.4,1.8,7.78,7.78,0,0,0,.9,2c.1.2-.1.5-.2.7a6,6,0,0,1-.8.8c-.2.2-.5.2-.4.4s.2.5.5.7a.85.85,0,0,0,.7,0c.1-.1.1-.8.4-.9s1.1-.7,1.2-.7.6.2,1.2-.2a1.69,1.69,0,0,1,1.2-.4,8.17,8.17,0,0,0,1.4.1Z" transform="translate(26.81 0.5)"/><path class="cls-6" d="M911.8,526.3c-.8-.4-1.1-.4-1.5-.9-.6-.4-1.8-.9-2.2-.6a4.85,4.85,0,0,1,.6-2c.5-.7.8-1.6,1.1-1.8s.8-.4.8-.6-1.2.1-1.2.1-.6-.8-2.1-.3-2.2,1.9-2.6,2.2a5.37,5.37,0,0,1-1.4-3.1c-.5-2.1-.7-4.1-1.5-5.1a43.87,43.87,0,0,1-4.5-6.1c-1.3-2.4-2.5-4.4-2.8-4.4s-.6,6.2.8,9.6a27.62,27.62,0,0,0,2.5,4.8c.5,1,.2,2,.9,4.1a34.05,34.05,0,0,0,2.2,4.6,2.75,2.75,0,0,1-.5,1.8,6.49,6.49,0,0,1-1.8,1.9c-.5.4-.9.6-.8,1a3.37,3.37,0,0,0,1.2,1.6,2.17,2.17,0,0,0,1.6,0c.3-.1.2-1.8.7-2.1s2.2-1.8,2.6-1.8a3.79,3.79,0,0,0,2.8-.6,3.68,3.68,0,0,1,2.7-1.1c.9-.1,3,.3,3.3.2S912.4,526.6,911.8,526.3Z" transform="translate(26.81 0.5)"/><path class="cls-6" d="M957,539s-.7-1.2-1.6-.9-1.5.7-2.1.6a4.28,4.28,0,0,1-3.5-3.4c-.7-2.8.2-7.1-1.5-8-1.9-1-7-2.2-12.9-1.5s-6.4.5-4.5,2.2a10.06,10.06,0,0,0,5.9,2.2c1.1,0,3.2.3,4.1,1.2s1.4,3,2.7,6,3,6.3,2.8,7.3a4.44,4.44,0,0,1-2.3,2.8c-1.2.5-2.2.8-2,1.3s1.5,1.2,2.1,1.7,1.3,1.3,1.5.8,1.1-2.4,2.5-2.9,2.1-.3,4.3-1.9a15.5,15.5,0,0,0,3.9-4.6c.2-.4,1.2.3,1.6,1a15,15,0,0,0,2.3,3.7c1.3,1.2,1.8,3.3,2.6,3.6s.6-4.8.6-7.3-.2-3.8-.9-5-1.4-1.5-2.1-1S957.7,539,957,539Z" transform="translate(26.81 0.5)"/><path class="cls-6" d="M861.3,436.2a.43.43,0,0,0-.4-.2c-.2.1-.4.2-.5.1s-.6-.1-.8-.8.1-1.6-.4-1.8a5.35,5.35,0,0,0-2.8-.3c-1.3.2-1.4.1-1.1.5a2.36,2.36,0,0,0,1.3.5,2.92,2.92,0,0,1,.9.2c.2.2.2.7.6,1.3.2.7.6,1.4.6,1.6a.74.74,0,0,1-.5.6c-.2.1-.5.2-.5.3s.4.2.5.4.2.3.4.2.2-.5.6-.7a8.2,8.2,0,0,0,1.1-.4,1.51,1.51,0,0,0,.8-1c.1-.1.2.1.4.2s.2.5.5.9c.2.2.4.7.6.8s.1-1.1.1-1.6a3.73,3.73,0,0,0-.2-1.2c-.1-.3-.4-.4-.5-.2S861.4,436.2,861.3,436.2Z" transform="translate(26.81 0.5)"/><path class="cls-6" d="M1054,498s-.2-.4-.5-.3a3.93,3.93,0,0,1-.6.2,1.59,1.59,0,0,1-1.2-1.1c-.2-.9.1-2.3-.5-2.6a8.64,8.64,0,0,0-4.2-.5c-1.9.2-2.1.2-1.4.7a3.43,3.43,0,0,0,1.9.7c.4,0,1.1.1,1.3.4a9.63,9.63,0,0,1,.8,1.9,9.31,9.31,0,0,1,.9,2.4c0,.3-.4.7-.8.9s-.7.2-.6.4.5.4.6.5.5.4.5.2.4-.8.8-.9a3.88,3.88,0,0,0,1.4-.6,4.89,4.89,0,0,0,1.3-1.5c.1-.1.4.1.5.3a4.88,4.88,0,0,0,.8,1.2c.5.4.6,1.1.8,1.2s.2-1.6.1-2.4a5.14,5.14,0,0,0-.2-1.6c-.2-.4-.5-.5-.6-.3A3.13,3.13,0,0,1,1054,498Z" transform="translate(26.81 0.5)"/><rect class="cls-3" x="128.09" y="188.79" width="21.86" height="16.5"/><path class="cls-5" d="M105.81,215.24l51.82-82.48s4.1-3.48,1.61,1.25-46.1,74.63-46.1,74.63Z" transform="translate(26.81 0.5)"/><path class="cls-7" d="M117,204.63a.5.5,0,0,0-.61-.35.85.85,0,0,0-.48.24h0l-.22.19a2.37,2.37,0,0,0-.5.59c-.07.13-.15.25-.21.38l-.09.16-.23.25a10.2,10.2,0,0,0-.66,1.09c-.21.36-.53.65-.72,1-.06.13-.12.25-.19.37l0,0-.26.34a1.32,1.32,0,0,0-.23.28.51.51,0,0,0,.08.6.5.5,0,0,0,.61.08,2.16,2.16,0,0,0,.39-.41l.13-.1.14-.07a2.2,2.2,0,0,0,.25-.17,3.05,3.05,0,0,0,.51-.43,3.84,3.84,0,0,0,.53-.84,4.36,4.36,0,0,0,.35-.4,1,1,0,0,0,.22-.53c0-.07,0-.14,0-.2l.08,0a.5.5,0,0,0,.31-.88.48.48,0,0,0,.36-.6l0,0,.08,0A.5.5,0,0,0,117,204.63Z" transform="translate(26.81 0.5)"/><path class="cls-7" d="M123.14,218a.5.5,0,0,0,0,1A.5.5,0,0,0,123.14,218Z" transform="translate(26.81 0.5)"/><path class="cls-7" d="M132.36,209.86a.5.5,0,0,0,0,1A.5.5,0,0,0,132.36,209.86Z" transform="translate(26.81 0.5)"/><path class="cls-7" d="M118.51,206.35a.5.5,0,0,0,0,1A.5.5,0,0,0,118.51,206.35Z" transform="translate(26.81 0.5)"/><path class="cls-8" d="M147.46,323.55c-3-2.72-7.58-2.78-11.29-1.91-6.61,1.57-9.48,9.4-9.12,15.49a24,24,0,0,0,1.22,6.22,26,26,0,0,1,1.64,7.2c.09,2.37-1.41,4.58-2.89,6.33-3.49,4.13-10.24,4.89-15,2.48-6.78-3.47-6.85-10.79-4.73-17.31.54-1.64,1.21-3.24,1.84-4.85.24-.62,1.36-2.69,1-3.39-.71-1.3-3.56,2.93-3.93,3.54a23.64,23.64,0,0,0-3.49,9.87,17.65,17.65,0,0,0,2.84,11.34c4.32,6.46,14.23,6.28,20.27,2.81a14.17,14.17,0,0,0,6.63-8.8A14.4,14.4,0,0,0,132,346a47.46,47.46,0,0,1-1.68-7.83c-.32-4.14.66-9.54,4.19-12.2s12.62-2.9,12.87,2.94A12.89,12.89,0,0,1,146,335a3.94,3.94,0,0,1-3.61,2.09c-.75-.08-2.32-1.87-.89-2a1.8,1.8,0,0,0,1.62-1.35.85.85,0,0,1,0-.17,1.76,1.76,0,0,0-2.21-2.06c-1.54.3-3.66,1.31-3.85,3.14-.22,2.2.94,3.64,2.65,4.88,3.84,2.76,8.25-1.07,9.79-4.46A10,10,0,0,0,147.46,323.55Z" transform="translate(26.81 0.5)"/><path class="cls-9" d="M130,357.51c-.38.51-.77.15-.4-.38a11.47,11.47,0,0,0,1.49-7.32,27.1,27.1,0,0,0-1.82-6.53,23,23,0,0,1-1.22-9.17,17.53,17.53,0,0,1,3.54-9.92c-3.33,3.19-4.77,8.52-4.51,12.94a24,24,0,0,0,1.22,6.22,26,26,0,0,1,1.64,7.2,9,9,0,0,1-2.23,5.52,7.21,7.21,0,0,1-1.47,2.11.12.12,0,0,1,0,.07c-5.26,4.95-14.93,5.35-19.42-.87a10.72,10.72,0,0,1-1.9-8.69c.13-.48.7-1.47,1.22-.68,0,0,0,.07.06.1a24,24,0,0,1,1.2-6.06c.54-1.64,1.21-3.24,1.84-4.85.24-.62,1.36-2.69,1-3.39-.71-1.3-3.56,2.93-3.93,3.54a23.64,23.64,0,0,0-3.49,9.87,17.65,17.65,0,0,0,2.84,11.34c4.32,6.46,14.23,6.28,20.27,2.81a14.3,14.3,0,0,0,5.67-6.13C131.05,356,130.52,356.76,130,357.51Z" transform="translate(26.81 0.5)"/><path class="cls-9" d="M145.56,338.73a7.55,7.55,0,0,1-1.54.45,5.73,5.73,0,0,1-4.2-1.2,4,4,0,0,1-1.75-2.47,3.31,3.31,0,0,1,1.11-3.37,3.43,3.43,0,0,0-2.07,2.53c-.22,2.2.94,3.64,2.65,4.88,3.84,2.76,8.25-1.07,9.79-4.46A11,11,0,0,0,150,334a9.23,9.23,0,0,1-2.08,3.12A7.39,7.39,0,0,1,145.56,338.73Z" transform="translate(26.81 0.5)"/><path class="cls-9" d="M147.39,328.87A12.89,12.89,0,0,1,146,335a3.94,3.94,0,0,1-3.61,2.09c-.75-.08-2.32-1.87-.89-2a1.87,1.87,0,0,0,1.35-.75c.15-.78-1.94-.74-2.39-.3-1.68,1.61-.19,2.89.46,3.42,1.41,1.14,4.33.38,5.51-.68a6.55,6.55,0,0,0,2.28-5c.13-1.35.74-3.81-2.12-6.32a9.71,9.71,0,0,0-13.77,1.16c-3.29,3.94-3.51,8.85-2.26,13.64.06.24.12.47.19.71a22.13,22.13,0,0,1-.43-2.86c-.32-4.14.66-9.54,4.19-12.2S147.14,323,147.39,328.87Z" transform="translate(26.81 0.5)"/><path class="cls-10" d="M147.47,324.1c-2-2.06-5.39-2.59-8.15-2.39a11.17,11.17,0,0,0-7.92,4.37c-2.16,2.85-2.66,6.72-2.79,10.19,0,.12.19.14.21,0,.77-6.12,3.21-12.43,10.15-13.28a10.56,10.56,0,0,1,6.82,1.39c3,1.86,3.14,5.42,3,8.61,0,.09.12.09.15,0C149.75,329.79,150,326.61,147.47,324.1Z" transform="translate(26.81 0.5)"/><path class="cls-10" d="M142.67,332.44a2.33,2.33,0,0,0-3.76.55,3.3,3.3,0,0,0,.39,4.19c.07.07.19,0,.14-.11a3.12,3.12,0,0,1-.06-3.43,2,2,0,0,1,1.13-.89c.6-.2,1.09.23,1.55.54S143.06,332.86,142.67,332.44Z" transform="translate(26.81 0.5)"/><path class="cls-11" d="M77.28,307.81a4.64,4.64,0,0,0,2.53-.26l.07,0a.88.88,0,0,1,.51,0,3.14,3.14,0,0,1,1.18.63l.07,0h0a3.31,3.31,0,0,0,3-.71c1.2-1.3.32-2.24-.33-2.93a3.24,3.24,0,0,1-1-1.82c0-.14-.09-.3-.14-.49a4.14,4.14,0,0,1-.13-.43,8,8,0,0,0-2-3.8s-1.19-1.74-1.83-2.74c-.15-.24-.27-.44-.37-.64a6.13,6.13,0,0,0-2.32-2.49,9.15,9.15,0,0,0-3.15-1.67,2.11,2.11,0,0,0-2,.42.57.57,0,0,0-.2.56c0,.45.57.93,1.47,1.39a10.27,10.27,0,0,1,2.67,1.93,7.31,7.31,0,0,1,.82,1.35c-.54-.47-1.33-1.14-1.93-1.57a11.09,11.09,0,0,0-3.32-1.8l-.26-.05a2.82,2.82,0,0,0-2.13.61.81.81,0,0,0-.25.67c.11.71.78.94,1.29,1.06.22,0,.48.09.79.13l.1,0a7.86,7.86,0,0,1,2.53,1.75c-.74-.26-1.91-.65-2.59-.81l-.35-.06a3.12,3.12,0,0,0-2.3.82,1.24,1.24,0,0,0-.27,1.14c.08.31.95.69,1.71.86l.08,0,.69.14c.44.08,1,.2,1.54.32l.17,0a1.57,1.57,0,0,0-.37,0,7.6,7.6,0,0,0-2.33.9,1.43,1.43,0,0,0-.59.88,1,1,0,0,0,.13.76.94.94,0,0,0,.62.39,4.3,4.3,0,0,0,1.73-.1,6.28,6.28,0,0,1,2.52,0l.29.07c.62.19.65.41.71.89,0,.15,0,.32.07.51l.06.29a4.78,4.78,0,0,0,1.76,3.34A3.09,3.09,0,0,0,77.28,307.81Z" transform="translate(26.81 0.5)"/><path class="cls-12" d="M73.34,290.63a9,9,0,0,1,3.1,1.64,6.85,6.85,0,0,1,2.64,3.09c.66,1,1.86,2.75,1.86,2.75a8.59,8.59,0,0,1,2.12,4.18c.4,1.34.38,1.58,1.13,2.38s1.39,1.58.33,2.71a3.13,3.13,0,0,1-2.82.66h0a3.39,3.39,0,0,0-1.24-.67,1.11,1.11,0,0,0-.6,0,4.63,4.63,0,0,1-2.51.28,3.38,3.38,0,0,1-1-.43c-1.37-.9-1.57-2.73-1.74-3.53s0-1.24-.9-1.52l-.29-.07a6.48,6.48,0,0,0-2.59,0,4.2,4.2,0,0,1-1.66.11.78.78,0,0,1-.52-.32,1.1,1.1,0,0,1,.41-1.43,7.54,7.54,0,0,1,2.25-.87,15.39,15.39,0,0,1,2.21.29,9,9,0,0,0-2-.63c-.86-.2-1.74-.35-2.22-.46l-.08,0a2.85,2.85,0,0,1-1.59-.75c-.32-1.35,1.65-1.84,2.39-1.77l.34.07c1,.24,3.27,1,3.27,1s-2-2-3.14-2.31l-.13,0a5.61,5.61,0,0,1-.77-.13c-.66-.15-1.09-.41-1.16-.92-.1-.68,1.16-1.23,2.2-1.1l.25,0a11.2,11.2,0,0,1,3.26,1.77c1,.71,2.51,2.1,2.51,2.1a11.76,11.76,0,0,0-1.2-2.12,11,11,0,0,0-2.7-1.95c-1.36-.69-1.62-1.33-1.24-1.69a1.9,1.9,0,0,1,1.87-.38Zm.07-.31a2.23,2.23,0,0,0-2.15.45.8.8,0,0,0-.27.7c.08.51.63,1,1.58,1.51a10.52,10.52,0,0,1,2.61,1.9,2.64,2.64,0,0,1,.4.56c-.44-.37-.91-.74-1.3-1a11.44,11.44,0,0,0-3.37-1.83,1.45,1.45,0,0,0-.28,0,3,3,0,0,0-2.27.65.94.94,0,0,0-.28.81c.13.89,1.09,1.11,1.41,1.18s.48.1.8.14h.08a5.75,5.75,0,0,1,1.88,1.2c-.66-.22-1.38-.46-1.86-.56l-.37-.07a3.29,3.29,0,0,0-2.44.88,1.36,1.36,0,0,0-.3,1.27c.1.45,1.16.84,1.83,1l.08,0c.18,0,.42.09.69.13l.78.16a10.06,10.06,0,0,0-1.82.8,1.58,1.58,0,0,0-.66,1,1.12,1.12,0,0,0,.15.9,1.19,1.19,0,0,0,.72.45,4.36,4.36,0,0,0,1.78-.11,6.21,6.21,0,0,1,2.47,0l.28.07c.51.15.54.28.59.75,0,.15,0,.32.08.53s0,.18.06.29a5,5,0,0,0,1.82,3.43,3.45,3.45,0,0,0,1.12.48,4.76,4.76,0,0,0,2.6-.27l.07,0a.78.78,0,0,1,.43,0,3.07,3.07,0,0,1,1.12.6l.13.07h0a3.45,3.45,0,0,0,3.12-.76c1.32-1.4.29-2.49-.33-3.14a3.28,3.28,0,0,1-.92-1.77l-.13-.48c0-.15-.09-.29-.13-.44a8.15,8.15,0,0,0-2-3.83c-.12-.18-1.23-1.8-1.85-2.74-.14-.23-.24-.43-.35-.63A6.23,6.23,0,0,0,76.63,292a9.26,9.26,0,0,0-3.22-1.7Z" transform="translate(26.81 0.5)"/><path class="cls-13" d="M68.46,301.39a1.86,1.86,0,0,0,.34.05c.83,0,1.5-.51,2.28-.68s1.69.26,2.46-.06a.2.2,0,0,0,.11-.31,1.53,1.53,0,0,0-.84-.66l.66.12a21.28,21.28,0,0,0-4.21-1.09,3,3,0,0,1-1.67-.77c0-.07,0-.13,0-.2.64-.05,1.28-.42,1.9-.27s1.11.47,1.69.62,1.4.24,1.61-.34c.13-.37-.31-.73-.86-1.05.87.29,1.7.59,1.7.59s-2.17-2.21-3.27-2.33c-.88-.1-1.52-.28-1.79-.69.56.06,1.15,0,1.71.12,1,.17,1.68,1,2.59,1.34.57.23,2,.55,1.52-.56a3.46,3.46,0,0,0-.36-.62.41.41,0,0,0,.11.07c1,.71,2.51,2.1,2.51,2.1a11.76,11.76,0,0,0-1.2-2.12,11,11,0,0,0-2.7-1.95,4.85,4.85,0,0,1-.78-.47,12.44,12.44,0,0,1,2.27,1.08c.45.31,2.07,1.52,2.62.73s-.76-1.66-1.2-2a9.29,9.29,0,0,0-3.38-1.48c1.06-.24,2.52.44,4.2,1.68a6.85,6.85,0,0,1,2.64,3.09c.66,1,1.86,2.75,1.86,2.75l.3.37a.68.68,0,0,0-.12-.12s0,0,0,0h0a4.13,4.13,0,0,0-1-.69.16.16,0,0,0-.19,0,9.06,9.06,0,0,0-5.14-.59c-.54.09-1.33.21-1.46.86s.54.8.94.85c.91.13,1.86-.05,2.74.12,1.35.25,2.38,1.2,3.67,1.51.47.1,1.13-.19,1.13-.72a1.68,1.68,0,0,0-.32-1,8.54,8.54,0,0,1,1.64,3.6c.4,1.34.38,1.58,1.13,2.38s1.39,1.58.33,2.71a3.18,3.18,0,0,1-2.85.66s-1.07-.91-1.84-.66a3.88,3.88,0,0,1-3.53-.15L76,307h.22c1.2-.09,1.41-1.68,1-2.55-.29-.55-1.45-2.57-2.33-2.14a.85.85,0,0,0-.44.51c-.07-.3-.24-.51-.77-.67a6.41,6.41,0,0,0-2.88-.11c-.87.18-1.85.3-2.18-.21A.92.92,0,0,1,68.46,301.39Z" transform="translate(26.81 0.5)"/><path class="cls-12" d="M75.56,299.47c-.76.11-2,.12-2.39-.6-.57-.93,0-1.6.94-1.83,2.53-.66,6-.57,7.58,1.92,0,.06-.06.16-.13.09a5.09,5.09,0,0,0-2.46-1.75,10.58,10.58,0,0,0-3-.27,5,5,0,0,0-2.73.71c-.44.41,0,1.06.36,1.28a1.78,1.78,0,0,0,.82.21,8,8,0,0,0,1.09-.05.11.11,0,0,1,.11.06,2,2,0,0,1,.65.16,3.11,3.11,0,0,1,.92.48.2.2,0,0,1,.16.27c-.94,2,.7,3.52,2.48,4,.06,0,.05.1,0,.09a3.58,3.58,0,0,1-2.57-1.31,3,3,0,0,1-.29-2.79,6.1,6.1,0,0,0-.71-.39C76.13,299.63,75.83,299.59,75.56,299.47Z" transform="translate(26.81 0.5)"/><path class="cls-12" d="M72.72,299.58a4.5,4.5,0,0,1,1.3.32,4,4,0,0,1,1.12,1s0,.12-.06.09a14.32,14.32,0,0,0-1.2-.84c-.38-.19-.82-.27-1.22-.43C72.57,299.7,72.63,299.57,72.72,299.58Z" transform="translate(26.81 0.5)"/><path class="cls-11" d="M51.07,325.51a2.77,2.77,0,0,0,1.28,0,2.5,2.5,0,0,0,2.07-1.84,2,2,0,0,1,1.48-1.55c.33-.08.67-.14,1-.19a10,10,0,0,0,1-.2.36.36,0,0,0,.23-.19,1.2,1.2,0,0,0,.72-.64,2.49,2.49,0,0,0-.06-1.9,3.53,3.53,0,0,0-2-2,1.2,1.2,0,0,0-.68,0,.31.31,0,0,0-.16.11,5.67,5.67,0,0,1-1.44-.18c-.13,0-.24-.06-.37-.09l-.36-.08-.36-.08a6.29,6.29,0,0,1-1.5-.49c-1.47-.76-2.2-2.5-2.84-4l-.2-.47a11,11,0,0,0-1.73-3.09,5,5,0,0,0,0-3.18,3,3,0,0,0-1.91-1.72,2,2,0,0,0-.42,0,1.63,1.63,0,0,0-1.58,1.49,1.17,1.17,0,0,0-1.06.44,2,2,0,0,0-.25.7,1,1,0,0,0-1.1,1.11.66.66,0,0,0-.54.24,1.07,1.07,0,0,0-.18.94.77.77,0,0,0-.52.37,1.24,1.24,0,0,0,.05,1.19,3,3,0,0,0,1.58,1.39c-.06,2.07,1.43,3.72,2.74,5.17.33.37.64.71.91,1.05a15.2,15.2,0,0,1,1.8,3,20.42,20.42,0,0,0,1.37,2.39,5.19,5.19,0,0,0,2.93,2.37Z" transform="translate(26.81 0.5)"/><path class="cls-12" d="M45.3,303.91a2.76,2.76,0,0,1,1.8,1.61,4.9,4.9,0,0,1-.08,3.16,11,11,0,0,1,1.82,3.26c.68,1.58,1.44,3.59,3,4.43a6.62,6.62,0,0,0,1.54.5l.37.08.36.09.37.09a5.91,5.91,0,0,0,1.57.17.15.15,0,0,1,.11-.11,1.12,1.12,0,0,1,.6,0,3.42,3.42,0,0,1,1.87,1.92c.35.88.32,2.08-.64,2.35a.23.23,0,0,1-.15.17c-.67.17-1.36.22-2,.38a2.13,2.13,0,0,0-1.59,1.66,2.37,2.37,0,0,1-2,1.74,2.9,2.9,0,0,1-1.21,0,5.26,5.26,0,0,1-2.83-2.32c-1.19-1.72-1.84-3.74-3.17-5.37-1.5-1.81-3.76-3.68-3.63-6.24a2.68,2.68,0,0,1-1.59-1.34c-.32-.6-.17-1.33.53-1.35-.23-.64.05-1.28.7-1.13,0,0,0,0,0-.07-.12-.82.43-1.15,1.08-1a1.45,1.45,0,0,1,.23-.78,1.1,1.1,0,0,1,1.06-.37,1.52,1.52,0,0,1,1.45-1.5,1.58,1.58,0,0,1,.38.05Zm.08-.32a4,4,0,0,0-.46,0,1.75,1.75,0,0,0-1.71,1.5,1.19,1.19,0,0,0-1.06.51,1.53,1.53,0,0,0-.25.62,1.14,1.14,0,0,0-1.14,1.13.73.73,0,0,0-.49.28,1.12,1.12,0,0,0-.24.93.9.9,0,0,0-.48.4,1.4,1.4,0,0,0,.05,1.34,3.14,3.14,0,0,0,1.55,1.42c0,2.08,1.49,3.73,2.8,5.19.32.35.62.69.91,1a15.55,15.55,0,0,1,1.77,2.92A19.51,19.51,0,0,0,48,323.23a5.39,5.39,0,0,0,3,2.44,2.84,2.84,0,0,0,1.36,0,2.64,2.64,0,0,0,2.18-1.95A1.8,1.8,0,0,1,56,322.29a9.59,9.59,0,0,1,1-.19,9.29,9.29,0,0,0,1.05-.21.46.46,0,0,0,.31-.21A1.37,1.37,0,0,0,59,321a2.55,2.55,0,0,0,0-2,3.67,3.67,0,0,0-2.08-2.1,1.43,1.43,0,0,0-.77,0,.78.78,0,0,0-.18.11,5.7,5.7,0,0,1-1.33-.18l-.36-.08-.37-.08-.18,0-.19,0a6,6,0,0,1-1.46-.47c-1.41-.73-2.13-2.45-2.77-4l-.14-.32-.05-.13a11.4,11.4,0,0,0-1.7-3.08,5.14,5.14,0,0,0,0-3.2,3.07,3.07,0,0,0-2-1.81Z" transform="translate(26.81 0.5)"/><path class="cls-13" d="M42,313.78a.83.83,0,0,0,1,.1c.91-.54,1.09-1.71,1.61-2.54s1.56-1.09,1.85,0a9.61,9.61,0,0,1,.16,2.14A11.35,11.35,0,0,0,47,315.8a10.38,10.38,0,0,0,2,3.95c.59.7,1.45,1.82,2.42,2a.74.74,0,0,0,1-.89,8,8,0,0,0-1.5-2.75,15.61,15.61,0,0,1-2.52-4.94c-.32-1.4-.44-3.32-1.53-4.39-.63-.62-1.89-.21-2.82.17a3.93,3.93,0,0,0-2.58,2.47,2.38,2.38,0,0,1-1-.65.89.89,0,0,0,.28.07.22.22,0,0,0,.2-.28,3.49,3.49,0,0,0-1-1.59.69.69,0,0,1,.39-.23c.06.11.11.2.17.29h0l.18.21a.2.2,0,0,0,.33,0,1.25,1.25,0,0,0-.24-1.37l-.1-.17a.65.65,0,0,1,.47-.06s0,0,0-.07a1,1,0,0,1,0-.23,2.55,2.55,0,0,0,.23.47c.11.24.35.72.67.6s.28-.74.16-1a1.86,1.86,0,0,0-.56-.8,1.23,1.23,0,0,1,.39-.06,3.09,3.09,0,0,0,.86,1.27.21.21,0,0,0,.35-.1,2.84,2.84,0,0,0,0-1.23,3.17,3.17,0,0,0-.34-1,1.68,1.68,0,0,1,.67-.06,2,2,0,0,1,.35-1,5.7,5.7,0,0,0,1,2.79,1.14,1.14,0,0,0,2.08-.54,3,3,0,0,0-.48-2.13,2.57,2.57,0,0,1,.7,1,4.9,4.9,0,0,1-.08,3.16,11,11,0,0,1,1.82,3.26c.68,1.58,1.44,3.59,3,4.43a10.81,10.81,0,0,0,2.27.67,6.35,6.35,0,0,0,1.94.26.15.15,0,0,1,.11-.11c1-.38,2.14,1.08,2.47,1.88s.32,2.08-.64,2.35a.23.23,0,0,1-.15.17c-.67.17-1.36.22-2,.38a2.13,2.13,0,0,0-1.59,1.66,2.37,2.37,0,0,1-2,1.74c-1.76.39-3.13-1-4-2.32-1.19-1.72-1.84-3.74-3.17-5.37A22.89,22.89,0,0,1,42,313.78Z" transform="translate(26.81 0.5)"/><path class="cls-12" d="M46.45,313.55c0-.07.13-.06.13,0a8.74,8.74,0,0,0,2,6.11.05.05,0,0,1-.07.08C46.79,318.46,46.06,315.58,46.45,313.55Z" transform="translate(26.81 0.5)"/><path class="cls-12" d="M43.4,305.09a.09.09,0,0,1,.17,0,7.78,7.78,0,0,0,.26,1.72,6.09,6.09,0,0,0,1,1.7s0,.05,0,0C44,308,42.86,306.12,43.4,305.09Z" transform="translate(26.81 0.5)"/><path class="cls-12" d="M42.19,306.15a.07.07,0,0,1,.12,0,3,3,0,0,0,1,2.35s0,.06,0,0C42.67,308.18,41.74,307,42.19,306.15Z" transform="translate(26.81 0.5)"/><path class="cls-12" d="M41.05,307.32c0-.08.17-.07.18,0a2.53,2.53,0,0,0,1.24,2h0C41.76,309.16,40.83,308.12,41.05,307.32Z" transform="translate(26.81 0.5)"/><path class="cls-12" d="M40.25,308.53a.1.1,0,0,1,.18,0,2.62,2.62,0,0,0,1.15,1.57s0,.07,0,.05C41,309.9,40.19,309.22,40.25,308.53Z" transform="translate(26.81 0.5)"/><path class="cls-12" d="M43.79,308.72a0,0,0,0,1,0,.07,4.4,4.4,0,0,0-2.24,3.31.08.08,0,0,1-.16,0C41,310.69,42.78,309.36,43.79,308.72Z" transform="translate(26.81 0.5)"/><path class="cls-12" d="M46,308.31a1.48,1.48,0,0,1,1.42.64c.07.08-.06.17-.14.11a6.44,6.44,0,0,0-.55-.47,1.48,1.48,0,0,0-.72-.22S45.92,308.31,46,308.31Z" transform="translate(26.81 0.5)"/><path class="cls-8" d="M111.13,301.75s-4.45-3.11-7.72-2.58c-2.59.42-3.94,4.29-5.31,5.6-3.09,3-3.34,4.06-5.16,4.73s-4.71-1.44-6.56-3.07a6.3,6.3,0,0,1-2.11-3.55,1.72,1.72,0,0,0-.54,2.12l-1.21-1a2.53,2.53,0,0,0,.23,2s-1.21-.55-1.62-.11.69,1.31.69,1.31-1.45,0-1.87.49a4.8,4.8,0,0,1,2.13,1.53c1.19,1.31,9.16,8.14,12.8,5.61l-3.56,5s-3.65-3.87-5.71-4.39-4.32,2.64-5.84,4.9a28.82,28.82,0,0,0-11-4.46c-6.78-1.3-8.94.12-11.19.1s-2.61-.41-3-.7-.6,1.13,1.08,1.76c0,0-1.2-.24-1.41,0s1.23,1.59,2,1.6c0,0-1.8.51-1.88,1.49s1.93.6,1.93.6a7.83,7.83,0,0,0-1.2,2c-.09.63,1.31-.51,1.59-.56s-.91,1.14,0,1.69c0,0,.63-.89,3.77-1.43s10-1.31,15.49,5.23a4.31,4.31,0,0,1-1.66,1s.43.6,1.81.11c0,0-.89.87-.79,1.25s2.2-.38,2.2-.38-.82,1.19-.45,1.58,1.52-.14,2-.83a12,12,0,0,0,0,1.83c.07.71.69.13,1-.24a18,18,0,0,0,3.76,4.56s8.05,8.61,21.81,3.82c2.91-1,7.06-3.8,8.46-10.46,0,0,3.32,1.65,6.35.44s3.77-8.34,1.69-14.38-5.67-11.32-9.22-12.14C112.94,303.76,114.08,302.42,111.13,301.75Z" transform="translate(26.81 0.5)"/><path class="cls-10" d="M84.38,304.66a18.75,18.75,0,0,0,4.74,4.19c1.19.73,2.45,1.49,3.82,1.09,2.53-.75,3.92-4.93,6.57-5.3.07,0,.41.05-.28.63-1.41,1.18-2.48,2.6-3.82,3.82-.91.83-2.07,2-3.28,2.16-2.94.34-6.27-3-7.59-5.28C84,305,84.28,304.51,84.38,304.66Z" transform="translate(26.81 0.5)"/><path class="cls-9" d="M75.38,330c.11.36,2.2-.38,2.2-.38s-.82,1.19-.45,1.58,1.52-.14,2-.83a12,12,0,0,0,0,1.83c.07.71.69.13,1-.24a18,18,0,0,0,3.76,4.56s8.05,8.61,21.81,3.82c2.91-1,7.06-3.8,8.46-10.46,0,0,3.32,1.65,6.35.44s3.77-8.34,1.69-14.38-5.67-11.32-9.22-12.14c0,0,1.14-1.34-1.81-2,0,0-4.45-3.11-7.72-2.58-2,.33-4.37,4-4.24,4.95,1.52,1,2.2,1.93,3.62,2.93,3,2.09,8.38,3.24,10.41,2.17.32-1.2,2-1.18,3-.82,1.83.67,1.14-.81,2.1.78a21.89,21.89,0,0,1,2.88,13.33c-.17,1.57-.33,3.5-2,4.09a5.28,5.28,0,0,1-2.53,0c-1.18-.2-2.37-.37-3.53-.67a15.31,15.31,0,0,1-4.7-2.16c-.7-.48-2.19-1.46-1.9-2.52a.21.21,0,0,1,.25-.15,7.39,7.39,0,0,1,2.05.79,6.11,6.11,0,0,1-1-1.88.21.21,0,0,1,.25-.27c1.24.43,2.25,1.53,3.43,2.13a20.77,20.77,0,0,0,5.07,1.77.24.24,0,0,1,.09-.08c1.07-.45,1.12-2.27,1.17-3.23a19.12,19.12,0,0,0-.13-3.12,12.3,12.3,0,0,0-4.32-7.56,12.28,12.28,0,0,1,.81,1.46c.08.18-.16.32-.3.25-.63-.31-1.21-.74-1.86-1,1.07,2.53,1.93,5.28.72,7.92-.51,1.12-1.93-.13-2.5-.5a2.18,2.18,0,0,1-.94-1.45,11.31,11.31,0,0,0-1.09-3.36c-.53-.89-4.34-4.46-5.15-2.31a6,6,0,0,0,0,2c0,1.07,0,2.15-.11,3.22-.21,3.26-.05,7.47-2.58,9.94a.18.18,0,0,1-.06.13.92.92,0,0,1-.25.15.14.14,0,0,1-.11,0c-1.09.34-2.61-1.32-3.23-1.92a35.2,35.2,0,0,0-5.28-4.56v0c1.15,1.76,2.56,3.34,3.72,5.09a25.3,25.3,0,0,1,2.76,5.5c.4,1.12.62,2.51-.29,3.45a1.65,1.65,0,0,1-1.88.21c-2-.82-3.44-3.22-4.57-4.92-.73-1.1-1.41-2.24-2-3.39-1.21-2.18-2.12-4.57-3.43-6.68-1.65,1.56-2.06,4-3.18,5.95-1,1.74-2.12,3.9-4,4.84-.11.06-.28,0-.3-.11a4.12,4.12,0,0,1,.17-1.78,7.3,7.3,0,0,1-1.53,1.51.21.21,0,0,1-.32-.23,8.38,8.38,0,0,1,.49-1.64,3.94,3.94,0,0,1-2.51,1.17c.14.13.63.46,1.76.06C76.17,328.71,75.28,329.58,75.38,330Zm7.53-.3c-.15-.6.29-1.33.52-1.85A15.69,15.69,0,0,1,84.74,325c.11-.15.28-.06.34.08a.2.2,0,0,1,.07.1c.43,1.27.94,2.51,1.48,3.73a16.22,16.22,0,0,1,1.4,3.41c.23,1.26-1.37.58-1.87.31C85,332,83.25,331,82.91,329.66Z" transform="translate(26.81 0.5)"/><path class="cls-9" d="M83.76,335.72a43.76,43.76,0,0,0,6.15,2.82,18.83,18.83,0,0,0,11.58.32c3.67-1.06,7-2.49,9.06-5.67a4.89,4.89,0,0,0,.22-4.19,5.72,5.72,0,0,0-1.58-2.05c3.23,1.61,8.55,3.68,11.93,2.95a3.56,3.56,0,0,1-.65.38c-3,1.21-6.35-.44-6.35-.44-1.4,6.66-5.55,9.45-8.46,10.46-13.76,4.79-21.81-3.82-21.81-3.82a16.32,16.32,0,0,1-2.18-2.25A18.91,18.91,0,0,0,83.76,335.72Z" transform="translate(26.81 0.5)"/><path class="cls-9" d="M81.82,307.13s-1.1-.87-.69-1.31a.54.54,0,0,1,.22-.13c-.28,1,2.05,2.65,2.47,3,1.91,1.36,4,3,6.43,3.21.84.08,2.46.16,3.13-.59.85-.46,1.61-1,2.44-1.51.44-.29,1.12-.89,1.67-.88s.15,1.12.08,1.38a10.52,10.52,0,0,1-3.42,5.51l.73-1c-3.64,2.53-11.61-4.3-12.8-5.61A4.8,4.8,0,0,0,80,307.62C80.37,307.1,81.82,307.13,81.82,307.13Z" transform="translate(26.81 0.5)"/><path class="cls-9" d="M55.18,322.63a7.83,7.83,0,0,1,1.2-2s-2,.38-1.93-.6,1.88-1.49,1.88-1.49a3.23,3.23,0,0,1-1.7-1,4.66,4.66,0,0,0,2.58.76,3.07,3.07,0,0,0-1.55,1.41.21.21,0,0,0,.19.31,4.68,4.68,0,0,0,1.85-.42,1.3,1.3,0,0,0-.32.93.21.21,0,0,0,.27.19c1.26-.33,2.43-1,3.72-1.25a18,18,0,0,1,4.15-.27,16.45,16.45,0,0,1,4.13.69c1.31.43,2.55,1,3.82,1.55s4,1.85,5.07.31a1.82,1.82,0,0,0,.18-2.19c.69.42,1,.69,1,.69l.92-1.32a11.13,11.13,0,0,1-.87,1.89,23.93,23.93,0,0,0-1.43,2.69c-.6,1.24-1,3.06-2.11,4a4.21,4.21,0,0,1-.58.39l.32-.3c-5.44-6.54-12.35-5.76-15.49-5.23s-3.77,1.43-3.77,1.43c-.9-.55.29-1.74,0-1.69S55.09,323.26,55.18,322.63Z" transform="translate(26.81 0.5)"/><path class="cls-11" d="M101,332.83c1.29-.59,3.57-2.53,4.42-8.86v-.12l-.12-.05-.2-.07a1.59,1.59,0,0,1-.49-.23c-.08-.07-.32-.25-.33-.4a.24.24,0,0,1,0-.12,1.86,1.86,0,0,1,1.08-.37h.14l0-.46c0-.23,0-.46,0-.69v-.07l0,0a1.62,1.62,0,0,1-.18-.23c0-.08-.09-.24,0-.3l.11,0,.12,0v-.13c.16-6-1.3-9.37-4.35-10.07a6.67,6.67,0,0,0-3.49.24A12,12,0,0,0,90,318.29l0,.1.09.07c4.43,3.91,8.29,9.93,10.73,14.3l.08.13Z" transform="translate(26.81 0.5)"/><path class="cls-12" d="M101.27,310.72c2.63.61,4.41,3.46,4.23,9.92a.34.34,0,0,0-.17.05.37.37,0,0,0,0,.52,1.43,1.43,0,0,0,.19.26c0,.22,0,.45,0,.67s0,.21,0,.32a1.85,1.85,0,0,0-1.19.42c-.22.27,0,.53.3.75a3.25,3.25,0,0,0,.74.32c-.81,6-2.92,8.1-4.33,8.74-1.66-3-5.78-9.95-10.77-14.35A11.81,11.81,0,0,1,97.86,311a6.76,6.76,0,0,1,3.41-.24Zm.07-.3a6.87,6.87,0,0,0-3.57.24,12.13,12.13,0,0,0-7.92,7.58l-.07.2.16.14c4.42,3.89,8.26,9.9,10.71,14.26l.14.26.27-.13c1.31-.6,3.65-2.57,4.5-9l0-.24-.24-.09-.21-.07a1.81,1.81,0,0,1-.44-.2c-.24-.19-.26-.28-.26-.28h0a0,0,0,0,1,0,0,1.69,1.69,0,0,1,.94-.31h.3l0-.31v-.11a1.23,1.23,0,0,1,0-.19l0-.7v-.12l-.08-.1a1.15,1.15,0,0,1-.15-.2.15.15,0,0,1,0-.09h0l.26-.05v-.26c.16-6.07-1.34-9.5-4.48-10.22Z" transform="translate(26.81 0.5)"/><path class="cls-14" d="M88,316.93s4,3,8.61,9.81,5,8.39,5,8.39a43.32,43.32,0,0,0-7.83-13C88.37,316,88,316.93,88,316.93Z" transform="translate(26.81 0.5)"/><path class="cls-13" d="M90.19,318.25a19.27,19.27,0,0,1,3.44,2.55,38.91,38.91,0,0,1,2.75,2.85,10.59,10.59,0,0,0,1.47,1.73,1.32,1.32,0,0,0,2.3-.85,7.79,7.79,0,0,0-.51-4.6.21.21,0,0,0-.33,0,2.17,2.17,0,0,1-2.66.56,3.61,3.61,0,0,1-1.36-2.78,31.87,31.87,0,0,1,.2-5,.21.21,0,0,0-.22-.21l-.65,0A12,12,0,0,1,97.86,311c4.36-1.32,7.88.7,7.64,9.68a.34.34,0,0,0-.17.05.37.37,0,0,0,0,.52,1.43,1.43,0,0,0,.19.26c0,.22,0,.45,0,.67s0,.21,0,.32a1.85,1.85,0,0,0-1.19.42c-.22.27,0,.53.3.75a3.25,3.25,0,0,0,.74.32c-.81,6-2.92,8.1-4.33,8.74-1.66-3-5.78-9.95-10.77-14.35C90.17,318.31,90.17,318.28,90.19,318.25Z" transform="translate(26.81 0.5)"/><g class="cls-15"><path class="cls-13" d="M97.84,327.61a16.42,16.42,0,0,0,1.5,1.61c2.66,2.49,4.65-1.83,4.37-4.19a.24.24,0,0,0-.13-.17.19.19,0,0,0-.08-.07c-1.76-.8-2-2.26-2.18-4a2,2,0,0,0-1-1.62c-.68-.35-1.53,0-2.21.09a3.28,3.28,0,0,1-2.62-.63,5.22,5.22,0,0,1-.17-1,31.87,31.87,0,0,1,.2-5,.21.21,0,0,0-.22-.21l-.65,0A12,12,0,0,1,97.86,311c4.36-1.32,7.88.7,7.64,9.68a.34.34,0,0,0-.17.05.37.37,0,0,0,0,.52,1.43,1.43,0,0,0,.19.26c0,.22,0,.45,0,.67s0,.21,0,.32a1.85,1.85,0,0,0-1.19.42c-.22.27,0,.53.3.75a3.25,3.25,0,0,0,.74.32c-.81,6-2.92,8.1-4.33,8.74C100.26,331.5,99.2,329.67,97.84,327.61Z" transform="translate(26.81 0.5)"/></g><path class="cls-16" d="M69.55,362.48a15.27,15.27,0,0,1,1.8-2.41c1.49-1.58,3.41-2.37,5.23-3.52s3.74-2.42,5.59-3.65a45.79,45.79,0,0,0,8.6-7.09,28,28,0,0,0,5.72-9.76c1.46-4.27,1.62-8.95,1.47-13.43a141,141,0,0,0-1.45-14.06c-.64-4.78-1.08-9.58-1.56-14.38a282.51,282.51,0,0,1-1.71-30.35c.12-12.6.71-25.33,5.12-37.27A55.78,55.78,0,0,1,105,213.45c2.24-3.17,5.68-6.62,9.63-7.37a.23.23,0,0,1,.14.43c-5.55,3.25-9,9.69-11.67,15.36A73.72,73.72,0,0,0,97,243.2a156,156,0,0,0-.78,30.17c.31,5.12.92,10.2,1.55,15.29s1,10,1.6,14.94c1.53,12.34,4.7,25.91-1.19,37.63a33.22,33.22,0,0,1-10.61,11.86c-6.3,4.5-16.6,7.32-18.17,16.09-.73,4.09-.25,8.48,3.48,10.88,1.59,1,3.6.81,4.46-1.06a3.42,3.42,0,0,0,.22-1.87,1,1,0,0,0-.45-.77,1,1,0,0,0-.83-.09l-.13.07a1.53,1.53,0,0,1,.85,1,1.46,1.46,0,0,1-.32,1.24,1,1,0,0,1-1,.44,1.45,1.45,0,0,1-1.46-1.34,2,2,0,0,1-.08-1.41,2.79,2.79,0,0,1,2-1.69c2.29-.38,3.41,1.18,3.38,3.35a4.93,4.93,0,0,1-3.61,4.53c-2.36.7-4.84-1.1-6.34-2.72-2.38-2.56-3-6.29-2.66-9.67a16.78,16.78,0,0,1,1.33-5A25.06,25.06,0,0,1,69.55,362.48Z" transform="translate(26.81 0.5)"/><path class="cls-16" d="M73.76,382.66a4.11,4.11,0,0,0,2.15,0A5.08,5.08,0,0,0,79.64,378c0-1.87-.78-3.18-2.16-3.5a3.65,3.65,0,0,0-1.4,0,2.89,2.89,0,0,0-2.11,1.8,2.26,2.26,0,0,0,.07,1.49,1.63,1.63,0,0,0,1.25,1.42,1.5,1.5,0,0,0,.37,0,1.15,1.15,0,0,0,1.18-.51,1.67,1.67,0,0,0,.33-1.36,1.64,1.64,0,0,0-.62-.94,1.23,1.23,0,0,1,.27,0,.82.82,0,0,1,.24.1.86.86,0,0,1,.36.65,3.33,3.33,0,0,1-.2,1.79,2.54,2.54,0,0,1-3,1.49,3.67,3.67,0,0,1-1.19-.51c-3.94-2.52-4-7.22-3.4-10.71,1.13-6.38,6.89-9.55,12.46-12.61a59.62,59.62,0,0,0,5.64-3.38A33.42,33.42,0,0,0,98.34,341.3c5.08-10.1,3.47-21.43,1.92-32.39-.24-1.76-.5-3.57-.71-5.33-.32-2.52-.57-5.09-.82-7.59s-.49-4.9-.79-7.36c-.7-5.65-1.25-10.37-1.54-15.27a153.83,153.83,0,0,1,.78-30.14,73.74,73.74,0,0,1,6.07-21.29c4.82-10.3,8.57-13.51,11.61-15.29a.43.43,0,0,0,.2-.41.41.41,0,0,0-.28-.3.49.49,0,0,0-.17,0c-4.48.86-8,5-9.73,7.43a55.9,55.9,0,0,0-6.67,13.14c-4.5,12.18-5,25.12-5.13,37.33A280.28,280.28,0,0,0,94.8,294.2l.2,2.07c.39,4,.8,8.21,1.35,12.32l.17,1.21c.56,4.19,1.14,8.54,1.28,12.83.14,3.85.08,8.86-1.46,13.37a27.45,27.45,0,0,1-5.69,9.7,45.5,45.5,0,0,1-8.56,7.06c-1.65,1.12-3.43,2.27-5.6,3.65-.52.34-1.06.64-1.58.94A14.62,14.62,0,0,0,71.24,360a13.84,13.84,0,0,0-1.81,2.43A27.34,27.34,0,0,0,68.05,365a17.16,17.16,0,0,0-1.34,5c-.43,3.91.55,7.48,2.71,9.8a9.42,9.42,0,0,0,4.34,2.8Z" transform="translate(26.81 0.5)"/><path class="cls-17" d="M114.74,206.09a.23.23,0,0,1,0,.42c-5.55,3.25-9,9.69-11.67,15.36A73.72,73.72,0,0,0,97,243.2a156,156,0,0,0-.78,30.17c.31,5.12.92,10.2,1.55,15.29s1,10,1.6,14.94c1.53,12.34,4.7,25.91-1.19,37.63a33.22,33.22,0,0,1-10.61,11.86c-6.3,4.5-16.6,7.32-18.17,16.09-.73,4.09-.25,8.48,3.48,10.88a3.89,3.89,0,0,0,1.23.52A2.71,2.71,0,0,0,77.36,379a3.42,3.42,0,0,0,.22-1.87,1,1,0,0,0-.45-.77,1,1,0,0,0-.28-.11,1.15,1.15,0,0,0-.55,0l-.13.07a1.53,1.53,0,0,1,.85,1,1.46,1.46,0,0,1-.32,1.24,1,1,0,0,1-1,.44,1.15,1.15,0,0,1-.33,0,1.46,1.46,0,0,1-1.13-1.3,2,2,0,0,1-.08-1.41,2.79,2.79,0,0,1,2-1.69,3.52,3.52,0,0,1,1.34,0c1.39.32,2.06,1.65,2,3.34a4.93,4.93,0,0,1-3.61,4.53,4,4,0,0,1-2.07,0,9.1,9.1,0,0,1-4.27-2.75c-2.38-2.56-3-6.29-2.66-9.67a16.78,16.78,0,0,1,1.33-5,25.06,25.06,0,0,1,1.35-2.63,15.27,15.27,0,0,1,1.8-2.41c1.49-1.58,3.41-2.37,5.23-3.52s3.74-2.42,5.59-3.65a45.79,45.79,0,0,0,8.6-7.09,28,28,0,0,0,5.72-9.76c1.46-4.27,1.62-8.95,1.47-13.43a141,141,0,0,0-1.45-14.06c-.64-4.78-1.08-9.58-1.56-14.38a282.51,282.51,0,0,1-1.71-30.35c.12-12.6.71-25.33,5.12-37.27A55.78,55.78,0,0,1,105,213.45c2.24-3.17,5.68-6.62,9.63-7.37Zm.07-.32a.88.88,0,0,0-.23,0c-4.54.87-8.11,5.07-9.83,7.49a56.33,56.33,0,0,0-6.69,13.19c-4.5,12.2-5,25.16-5.14,37.37a280.69,280.69,0,0,0,1.72,30.4c.07.68.13,1.38.2,2.06.4,4,.8,8.22,1.36,12.32l.16,1.22a126.47,126.47,0,0,1,1.29,12.82c.13,3.84.07,8.82-1.46,13.31a27.56,27.56,0,0,1-5.65,9.64,46,46,0,0,1-8.54,7c-1.65,1.11-3.42,2.27-5.59,3.65-.52.33-1.06.63-1.57.92a15,15,0,0,0-3.72,2.66,14.81,14.81,0,0,0-1.82,2.46A23.64,23.64,0,0,0,67.91,365a17.49,17.49,0,0,0-1.36,5.08c-.44,3.94.55,7.56,2.74,9.93a9.83,9.83,0,0,0,4.43,2.84,4.46,4.46,0,0,0,2.24,0A5.26,5.26,0,0,0,79.79,378c0-2-.82-3.32-2.28-3.65a3.74,3.74,0,0,0-1.46,0,3,3,0,0,0-2.23,1.93,2.23,2.23,0,0,0,.07,1.56,1.76,1.76,0,0,0,1.37,1.53,1.53,1.53,0,0,0,.38,0,1.34,1.34,0,0,0,1.33-.57,2.59,2.59,0,0,0,.29-.55,2.63,2.63,0,0,1-.18.65,2.41,2.41,0,0,1-2.88,1.41,3.37,3.37,0,0,1-1.14-.49c-3.86-2.48-3.93-7.11-3.32-10.56,1.12-6.29,6.84-9.44,12.38-12.49a58.4,58.4,0,0,0,5.66-3.4,33.42,33.42,0,0,0,10.7-12c5.1-10.14,3.5-21.5,1.94-32.49-.25-1.75-.5-3.57-.72-5.32-.32-2.52-.57-5.09-.81-7.58s-.49-4.91-.79-7.36c-.7-5.66-1.25-10.37-1.55-15.27a154.3,154.3,0,0,1,.78-30.11A73.62,73.62,0,0,1,103.4,222c4.8-10.27,8.52-13.46,11.54-15.21a.58.58,0,0,0,.27-.58.53.53,0,0,0-.4-.44ZM77.22,377a2.15,2.15,0,0,0-.14-.26.65.65,0,0,1,.14.26Z" transform="translate(26.81 0.5)"/><path class="cls-16" d="M73.76,382.66a4.11,4.11,0,0,0,2.15,0A5.08,5.08,0,0,0,79.64,378c0-1.87-.78-3.18-2.16-3.5a3.65,3.65,0,0,0-1.4,0,2.89,2.89,0,0,0-2.11,1.8,2.26,2.26,0,0,0,.07,1.49,1.63,1.63,0,0,0,1.25,1.42,1.5,1.5,0,0,0,.37,0,1.15,1.15,0,0,0,1.18-.51,1.67,1.67,0,0,0,.33-1.36,1.64,1.64,0,0,0-.62-.94,1.23,1.23,0,0,1,.27,0,.82.82,0,0,1,.24.1.86.86,0,0,1,.36.65,3.33,3.33,0,0,1-.2,1.79,2.54,2.54,0,0,1-3,1.49,3.67,3.67,0,0,1-1.19-.51c-3.94-2.52-4-7.22-3.4-10.71,1.13-6.38,6.89-9.55,12.46-12.61a59.62,59.62,0,0,0,5.64-3.38A33.42,33.42,0,0,0,98.34,341.3c5.08-10.1,3.47-21.43,1.92-32.39-.24-1.76-.5-3.57-.71-5.33-.32-2.52-.57-5.09-.82-7.59s-.49-4.9-.79-7.36c-.7-5.65-1.25-10.37-1.54-15.27a153.83,153.83,0,0,1,.78-30.14,73.74,73.74,0,0,1,6.07-21.29c4.82-10.3,8.57-13.51,11.61-15.29a.43.43,0,0,0,.2-.41.41.41,0,0,0-.28-.3.49.49,0,0,0-.17,0c-4.48.86-8,5-9.73,7.43a55.9,55.9,0,0,0-6.67,13.14c-4.5,12.18-5,25.12-5.13,37.33A280.28,280.28,0,0,0,94.8,294.2l.2,2.07c.39,4,.8,8.21,1.35,12.32l.17,1.21c.56,4.19,1.14,8.54,1.28,12.83.14,3.85.08,8.86-1.46,13.37a27.45,27.45,0,0,1-5.69,9.7,45.5,45.5,0,0,1-8.56,7.06c-1.65,1.12-3.43,2.27-5.6,3.65-.52.34-1.06.64-1.58.94A14.62,14.62,0,0,0,71.24,360a13.84,13.84,0,0,0-1.81,2.43A27.34,27.34,0,0,0,68.05,365a17.16,17.16,0,0,0-1.34,5c-.43,3.91.55,7.48,2.71,9.8a9.42,9.42,0,0,0,4.34,2.8Z" transform="translate(26.81 0.5)"/><path class="cls-17" d="M114.74,206.09a.23.23,0,0,1,0,.42c-5.55,3.25-9,9.69-11.67,15.36A73.72,73.72,0,0,0,97,243.2a156,156,0,0,0-.78,30.17c.31,5.12.92,10.2,1.55,15.29s1,10,1.6,14.94c1.53,12.34,4.7,25.91-1.19,37.63a33.22,33.22,0,0,1-10.61,11.86c-6.3,4.5-16.6,7.32-18.17,16.09-.73,4.09-.25,8.48,3.48,10.88a3.89,3.89,0,0,0,1.23.52A2.71,2.71,0,0,0,77.36,379a3.42,3.42,0,0,0,.22-1.87,1,1,0,0,0-.45-.77,1,1,0,0,0-.28-.11,1.15,1.15,0,0,0-.55,0l-.13.07a1.53,1.53,0,0,1,.85,1,1.46,1.46,0,0,1-.32,1.24,1,1,0,0,1-1,.44,1.15,1.15,0,0,1-.33,0,1.46,1.46,0,0,1-1.13-1.3,2,2,0,0,1-.08-1.41,2.79,2.79,0,0,1,2-1.69,3.52,3.52,0,0,1,1.34,0c1.39.32,2.06,1.65,2,3.34a4.93,4.93,0,0,1-3.61,4.53,4,4,0,0,1-2.07,0,9.1,9.1,0,0,1-4.27-2.75c-2.38-2.56-3-6.29-2.66-9.67a16.78,16.78,0,0,1,1.33-5,25.06,25.06,0,0,1,1.35-2.63,15.27,15.27,0,0,1,1.8-2.41c1.49-1.58,3.41-2.37,5.23-3.52s3.74-2.42,5.59-3.65a45.79,45.79,0,0,0,8.6-7.09,28,28,0,0,0,5.72-9.76c1.46-4.27,1.62-8.95,1.47-13.43a141,141,0,0,0-1.45-14.06c-.64-4.78-1.08-9.58-1.56-14.38a282.51,282.51,0,0,1-1.71-30.35c.12-12.6.71-25.33,5.12-37.27A55.78,55.78,0,0,1,105,213.45c2.24-3.17,5.68-6.62,9.63-7.37Zm.07-.32a.88.88,0,0,0-.23,0c-4.54.87-8.11,5.07-9.83,7.49a56.33,56.33,0,0,0-6.69,13.19c-4.5,12.2-5,25.16-5.14,37.37a280.69,280.69,0,0,0,1.72,30.4c.07.68.13,1.38.2,2.06.4,4,.8,8.22,1.36,12.32l.16,1.22a126.47,126.47,0,0,1,1.29,12.82c.13,3.84.07,8.82-1.46,13.31a27.56,27.56,0,0,1-5.65,9.64,46,46,0,0,1-8.54,7c-1.65,1.11-3.42,2.27-5.59,3.65-.52.33-1.06.63-1.57.92a15,15,0,0,0-3.72,2.66,14.81,14.81,0,0,0-1.82,2.46A23.64,23.64,0,0,0,67.91,365a17.49,17.49,0,0,0-1.36,5.08c-.44,3.94.55,7.56,2.74,9.93a9.83,9.83,0,0,0,4.43,2.84,4.46,4.46,0,0,0,2.24,0A5.26,5.26,0,0,0,79.79,378c0-2-.82-3.32-2.28-3.65a3.74,3.74,0,0,0-1.46,0,3,3,0,0,0-2.23,1.93,2.23,2.23,0,0,0,.07,1.56,1.76,1.76,0,0,0,1.37,1.53,1.53,1.53,0,0,0,.38,0,1.34,1.34,0,0,0,1.33-.57,2.59,2.59,0,0,0,.29-.55,2.63,2.63,0,0,1-.18.65,2.41,2.41,0,0,1-2.88,1.41,3.37,3.37,0,0,1-1.14-.49c-3.86-2.48-3.93-7.11-3.32-10.56,1.12-6.29,6.84-9.44,12.38-12.49a58.4,58.4,0,0,0,5.66-3.4,33.42,33.42,0,0,0,10.7-12c5.1-10.14,3.5-21.5,1.94-32.49-.25-1.75-.5-3.57-.72-5.32-.32-2.52-.57-5.09-.81-7.58s-.49-4.91-.79-7.36c-.7-5.66-1.25-10.37-1.55-15.27a154.3,154.3,0,0,1,.78-30.11A73.62,73.62,0,0,1,103.4,222c4.8-10.27,8.52-13.46,11.54-15.21a.58.58,0,0,0,.27-.58.53.53,0,0,0-.4-.44ZM77.22,377a2.15,2.15,0,0,0-.14-.26.65.65,0,0,1,.14.26Z" transform="translate(26.81 0.5)"/><g class="cls-15"><path class="cls-5" d="M69.53,379.75c1.5,1.62,4,3.42,6.34,2.72a4.93,4.93,0,0,0,3.61-4.53c0-.15,0-.31,0-.45s-.12-.4-.18-.6a2.53,2.53,0,0,0-2.59-1.75,1.67,1.67,0,0,0-1.27.75.45.45,0,0,1,.23.13c.71.76.41,1.86-.75,1.52s-.74-1.39-.2-2.17a2,2,0,0,0-.59.91,2,2,0,0,0,.08,1.41A1.45,1.45,0,0,0,75.66,379a1,1,0,0,0,1-.44,1.46,1.46,0,0,0,.32-1.24,1.53,1.53,0,0,0-.85-1l.13-.07a1,1,0,0,1,.83.09,1,1,0,0,1,.45.77,3.42,3.42,0,0,1-.22,1.87c-.86,1.87-2.87,2.08-4.46,1.06-3.73-2.4-4.21-6.79-3.48-10.88,1.57-8.77,11.87-11.59,18.17-16.09A33.22,33.22,0,0,0,98.2,341.23c5.89-11.72,2.72-25.29,1.19-37.63-.63-5-1-10-1.6-14.94s-1.24-10.17-1.55-15.29A156,156,0,0,1,97,243.2a73.72,73.72,0,0,1,6.09-21.33c2.64-5.67,6.12-12.11,11.67-15.36a.23.23,0,0,0,0-.42,29.47,29.47,0,0,0-4.7,3,26.9,26.9,0,0,0-4.9,6.79,70.42,70.42,0,0,0-6.62,15.75c-1.64,5.8-2.18,11-2.87,17-.35,3.08-.43,7.07-.55,10.78a63.63,63.63,0,0,0,.16,6.38c0,.41-1.59,1.9-1.57-.2,0-4.61.18-9.24.4-13.12A120.52,120.52,0,0,1,95.58,238c.49-2.79,3.25-12.07,4.23-15-6.15,12.86-6.45,29.37-6.57,40.88A282.51,282.51,0,0,0,95,294.18c.48,4.8.92,9.6,1.56,14.38A141,141,0,0,1,98,322.62c.15,4.48,0,9.16-1.47,13.43a28,28,0,0,1-5.72,9.76,36.9,36.9,0,0,1-4.47,4.1c.9-.62,1.79-1.28,2.66-2A25.93,25.93,0,0,0,97.07,338c1.37-3.22,2.6-10.91,2-16-.15-1.21,1.87-.45,1.89.77.09,5.25.2,9.79-1.56,14.54A28,28,0,0,1,92,347.83a57.54,57.54,0,0,1-11.08,7.62c-3.79,2.12-8.92,2.74-12.85,11.08-.09.15,1.59-4.19,1.49-4a25.06,25.06,0,0,0-1.35,2.63,16.78,16.78,0,0,0-1.33,5C66.49,373.46,67.15,377.19,69.53,379.75Zm28.53-84.18c.32,3.78.53,6.24,1,9.68.09.63-1.45-.17-1.58-.72a93.9,93.9,0,0,1-1.19-9.6c-.35-3.45-.95-6.89-1-10.38,0-.58-.08-3.14,1.07-2.75C96.7,281.91,98,295.35,98.06,295.57Z" transform="translate(26.81 0.5)"/></g><path class="cls-16" d="M98.08,228.94c.07-.17,1.65-4.18,1-6.9a2.38,2.38,0,0,0-1.78-1.92,2.34,2.34,0,0,0-1.92.41,2.79,2.79,0,0,0-1.1,2.08c-.28,3,3.34,6.25,3.5,6.39l.17.14Z" transform="translate(26.81 0.5)"/><path class="cls-17" d="M97.32,220.28a2.2,2.2,0,0,1,1.65,1.8c.6,2.7-1,6.8-1,6.8s-3.71-3.31-3.44-6.25a2.38,2.38,0,0,1,2.83-2.35Zm.07-.32a2.51,2.51,0,0,0-2,.44,2.94,2.94,0,0,0-1.17,2.2c-.28,3.07,3.4,6.37,3.56,6.52l.33.29.17-.42c.06-.17,1.66-4.21,1-7a2.56,2.56,0,0,0-1.89-2h0l-.07.32.07-.32Z" transform="translate(26.81 0.5)"/><path class="cls-5" d="M95.73,220.52a19.16,19.16,0,0,1,2.18,8.34c-.26-.24-3.68-3.4-3.42-6.23A2.57,2.57,0,0,1,95.73,220.52Z" transform="translate(26.81 0.5)"/><g class="cls-18"><path class="cls-5" d="M94.84,221.41a2.27,2.27,0,0,1,2.77-1c-.14,1-.55,2-.71,3A13.65,13.65,0,0,0,94.84,221.41Z" transform="translate(26.81 0.5)"/></g><g class="cls-15"><path class="cls-5" d="M97.83,227a24.25,24.25,0,0,0,1.07-5.21,1.15,1.15,0,0,1,.07.28c.6,2.7-1,6.8-1,6.8s-3-2.67-3.41-5.35A33.18,33.18,0,0,1,97.83,227Z" transform="translate(26.81 0.5)"/></g><path class="cls-16" d="M93.86,248.83c0-.17.86-4.4-.24-7a2.45,2.45,0,0,0-1.68-1.51,2.32,2.32,0,0,0-2.07.54,2.75,2.75,0,0,0-.86,2.42c.28,3,4.44,5.51,4.61,5.62l.19.11Z" transform="translate(26.81 0.5)"/><path class="cls-17" d="M91.9,240.51a2.31,2.31,0,0,1,1.58,1.42c1.09,2.54.22,6.87.22,6.87s-4.26-2.56-4.53-5.5a2.36,2.36,0,0,1,2.73-2.79Zm.07-.3a2.47,2.47,0,0,0-2.2.57,2.88,2.88,0,0,0-.91,2.55c.28,3.07,4.5,5.64,4.69,5.75l.38.23.09-.45c0-.18.86-4.45-.25-7.06a2.61,2.61,0,0,0-1.8-1.59Z" transform="translate(26.81 0.5)"/><path class="cls-5" d="M90,241a19,19,0,0,1,3.67,7.79c-.29-.18-4.24-2.66-4.51-5.49A2.57,2.57,0,0,1,90,241Z" transform="translate(26.81 0.5)"/><g class="cls-18"><path class="cls-5" d="M89.3,242.05a2.26,2.26,0,0,1,2.52-1.55c0,1-.17,2.08-.14,3.09A12.42,12.42,0,0,0,89.3,242.05Z" transform="translate(26.81 0.5)"/></g><g class="cls-15"><path class="cls-5" d="M93.26,247a23.12,23.12,0,0,0,.09-5.32c.05.09.08.18.13.27,1.09,2.54.22,6.87.22,6.87s-3.44-2.06-4.34-4.62A33.27,33.27,0,0,1,93.26,247Z" transform="translate(26.81 0.5)"/></g><path class="cls-16" d="M97.4,241.63c.17,0,3.95-.47,5.13-2.51a2.14,2.14,0,0,0,.17-2,1.81,1.81,0,0,0-1.26-1.07,1.91,1.91,0,0,0-1.74.51c-1.6,1.47-2.39,4.75-2.42,4.89l0,.17Z" transform="translate(26.81 0.5)"/><path class="cls-17" d="M101.41,236.2a1.85,1.85,0,0,1,1,2.86c-1.16,2-5,2.45-5,2.45s.8-3.37,2.4-4.83a1.79,1.79,0,0,1,1.62-.48Zm.06-.25a2.06,2.06,0,0,0-1.85.55c-1.64,1.5-2.43,4.81-2.47,4.95l-.08.35.35-.05c.16,0,4-.47,5.22-2.56a2.34,2.34,0,0,0,.18-2.09,2,2,0,0,0-1.35-1.15Z" transform="translate(26.81 0.5)"/><path class="cls-5" d="M102.56,237.14a15.27,15.27,0,0,0-5.15,4.36c.28,0,3.89-.51,5-2.44A2,2,0,0,0,102.56,237.14Z" transform="translate(26.81 0.5)"/><g class="cls-18"><path class="cls-5" d="M102.73,238.13a1.77,1.77,0,0,0-1.28-1.92c-.37.69-.57,1.53-.92,2.24A10.25,10.25,0,0,1,102.73,238.13Z" transform="translate(26.81 0.5)"/></g><g class="cls-15"><path class="cls-5" d="M98.3,240.36a18.13,18.13,0,0,1,1.67-3.82l-.18.14c-1.6,1.46-2.4,4.83-2.4,4.83s3.13-.36,4.6-1.89A25.65,25.65,0,0,0,98.3,240.36Z" transform="translate(26.81 0.5)"/></g><path class="cls-16" d="M95.91,261.15c.18,0,4.58-.26,5.87-2.08a1.65,1.65,0,0,0,.26-1.58,2.18,2.18,0,0,0-1.58-1.26,2.53,2.53,0,0,0-2,.39c-1.83,1.28-2.63,4.25-2.66,4.37l0,.17Z" transform="translate(26.81 0.5)"/><path class="cls-17" d="M100.43,256.36c1.22.28,2.09,1.45,1.25,2.64-1.28,1.78-5.77,2-5.77,2s.79-3,2.6-4.3a2.4,2.4,0,0,1,1.92-.36Zm0-.25a2.65,2.65,0,0,0-2.12.4c-1.86,1.31-2.67,4.32-2.7,4.45l-.09.34.35,0c.18,0,4.64-.27,6-2.13a1.78,1.78,0,0,0,.27-1.69,2.3,2.3,0,0,0-1.68-1.35Z" transform="translate(26.81 0.5)"/><path class="cls-5" d="M101.78,257.26A15.35,15.35,0,0,0,95.93,261c.32,0,4.53-.3,5.75-2A1.5,1.5,0,0,0,101.78,257.26Z" transform="translate(26.81 0.5)"/><g class="cls-18"><path class="cls-5" d="M102,258.16a1.86,1.86,0,0,0-1.59-1.8c-.39.61-.59,1.37-1,2A15.51,15.51,0,0,1,102,258.16Z" transform="translate(26.81 0.5)"/></g><g class="cls-15"><path class="cls-5" d="M96.92,260a13.44,13.44,0,0,1,1.8-3.41,1.05,1.05,0,0,0-.21.12c-1.81,1.27-2.6,4.3-2.6,4.3s3.64-.2,5.28-1.53A37.11,37.11,0,0,0,96.92,260Z" transform="translate(26.81 0.5)"/></g><path class="cls-16" d="M71,366.34c1.25.29,4.31.84,5.76-.21a1.64,1.64,0,0,0,.72-1.68,2.45,2.45,0,0,0-1.84-1.76,2.61,2.61,0,0,0-1.27.05c-2.14.62-3.84,3.19-3.9,3.29l-.1.15.17.05.46.11Z" transform="translate(26.81 0.5)"/><path class="cls-17" d="M75.59,362.82c1.54.36,2.5,2.17,1.08,3.21s-4.49.46-5.65.19l-.46-.11s1.71-2.63,3.83-3.25a2.46,2.46,0,0,1,1.2,0Zm.06-.24a2.65,2.65,0,0,0-1.34,0c-2.17.64-3.89,3.24-4,3.35l-.18.3.34.09.46.12c1.27.29,4.37.84,5.87-.24a1.76,1.76,0,0,0,.76-1.81,2.55,2.55,0,0,0-1.94-1.84Z" transform="translate(26.81 0.5)"/><path class="cls-5" d="M77.32,364.41a15.38,15.38,0,0,0-6.74,1.71c.32.08,4.4,1.15,6.09-.09A1.5,1.5,0,0,0,77.32,364.41Z" transform="translate(26.81 0.5)"/><g class="cls-18"><path class="cls-5" d="M77.25,365.33a1.85,1.85,0,0,0-.93-2.21c-.57.46-1,1.12-1.55,1.59A15.78,15.78,0,0,1,77.25,365.33Z" transform="translate(26.81 0.5)"/></g><g class="cls-15"><path class="cls-5" d="M71.84,365.47a14.14,14.14,0,0,1,2.79-2.67l-.24.06c-2.12.62-3.83,3.25-3.83,3.25s3.52,1,5.51.23A39.63,39.63,0,0,0,71.84,365.47Z" transform="translate(26.81 0.5)"/></g><path class="cls-16" d="M93.4,266.82c0-.15-.08-3.73-1.44-5.61a2.06,2.06,0,0,0-1.23-.88,2,2,0,0,0-1.85.6,2.28,2.28,0,0,0-.4,2.29c.76,2.37,4.59,3.68,4.76,3.73l.17.06Z" transform="translate(26.81 0.5)"/><path class="cls-17" d="M90.7,260.46a2,2,0,0,1,1.16.82c1.34,1.88,1.41,5.55,1.41,5.55s-3.91-1.32-4.67-3.65a2,2,0,0,1,2.1-2.72Zm.06-.25a2,2,0,0,0-2,.63,2.42,2.42,0,0,0-.43,2.41c.78,2.45,4.68,3.77,4.84,3.83l.36.11v-.37c0-.15-.09-3.78-1.47-5.69a2.21,2.21,0,0,0-1.31-.92Z" transform="translate(26.81 0.5)"/><path class="cls-5" d="M88.87,261.15a16.1,16.1,0,0,1,4.39,5.67c-.28-.09-3.94-1.4-4.66-3.64A2.14,2.14,0,0,1,88.87,261.15Z" transform="translate(26.81 0.5)"/><g class="cls-18"><path class="cls-5" d="M88.49,262.13a1.87,1.87,0,0,1,1.76-1.71c.22.8.24,1.72.44,2.53A11.41,11.41,0,0,0,88.49,262.13Z" transform="translate(26.81 0.5)"/></g><g class="cls-15"><path class="cls-5" d="M92.58,265.43a19,19,0,0,0-.87-4.33l.15.18c1.34,1.88,1.41,5.55,1.41,5.55s-3.17-1.06-4.35-3A27.87,27.87,0,0,1,92.58,265.43Z" transform="translate(26.81 0.5)"/></g><path class="cls-16" d="M95.18,298.46c0-.16-.24-3.85-1.7-5.75a2.16,2.16,0,0,0-1.24-.84,2,2,0,0,0-1.93.65,2.32,2.32,0,0,0-.36,2.4c.88,2.43,4.88,3.63,5,3.68l.19,0Z" transform="translate(26.81 0.5)"/><path class="cls-17" d="M92.21,292a2,2,0,0,1,1.17.79c1.45,1.88,1.66,5.67,1.66,5.67s-4.09-1.21-5-3.6A2,2,0,0,1,92.21,292Zm.06-.27a2.11,2.11,0,0,0-2.06.68,2.51,2.51,0,0,0-.39,2.55c.91,2.48,5,3.71,5.15,3.75l.37.12,0-.39c0-.15-.23-3.89-1.72-5.82a2.31,2.31,0,0,0-1.32-.89Z" transform="translate(26.81 0.5)"/><path class="cls-5" d="M90.28,292.77A16.63,16.63,0,0,1,95,298.46c-.29-.09-4.12-1.29-5-3.59A2.21,2.21,0,0,1,90.28,292.77Z" transform="translate(26.81 0.5)"/><g class="cls-18"><path class="cls-5" d="M89.92,293.8A1.94,1.94,0,0,1,91.68,292c.26.82.31,1.77.56,2.59A11.06,11.06,0,0,0,89.92,293.8Z" transform="translate(26.81 0.5)"/></g><g class="cls-15"><path class="cls-5" d="M94.28,297.05a20,20,0,0,0-1.07-4.44,1.62,1.62,0,0,1,.17.19c1.45,1.88,1.66,5.67,1.66,5.67s-3.31-1-4.6-2.91A28.4,28.4,0,0,1,94.28,297.05Z" transform="translate(26.81 0.5)"/></g><path class="cls-16" d="M95.94,337.57c0-.17,1.08-4.35.11-7A2.45,2.45,0,0,0,94.34,329a2.37,2.37,0,0,0-2,.51,2.8,2.8,0,0,0-.93,2.33c.13,3,4.16,5.73,4.33,5.85l.18.12Z" transform="translate(26.81 0.5)"/><path class="cls-17" d="M94.3,329.14a2.29,2.29,0,0,1,1.61,1.52c1,2.6-.12,6.88-.12,6.88s-4.13-2.78-4.26-5.73a2.37,2.37,0,0,1,2.77-2.67Zm.07-.31a2.53,2.53,0,0,0-2.17.54,3,3,0,0,0-1,2.46c.14,3.08,4.22,5.85,4.4,6l.37.25.12-.44c0-.18,1.08-4.4.1-7.06a2.6,2.6,0,0,0-1.83-1.72Z" transform="translate(26.81 0.5)"/><path class="cls-5" d="M92.48,329.55a19.28,19.28,0,0,1,3.29,8c-.29-.2-4.12-2.87-4.24-5.71A2.57,2.57,0,0,1,92.48,329.55Z" transform="translate(26.81 0.5)"/><g class="cls-18"><path class="cls-5" d="M91.72,330.56a2.24,2.24,0,0,1,2.59-1.41c0,1-.27,2.06-.29,3.07A13.45,13.45,0,0,0,91.72,330.56Z" transform="translate(26.81 0.5)"/></g><g class="cls-15"><path class="cls-5" d="M95.43,335.7a23.23,23.23,0,0,0,.36-5.31c0,.09.07.17.12.27,1,2.6-.12,6.88-.12,6.88s-3.34-2.25-4.11-4.85A34.09,34.09,0,0,1,95.43,335.7Z" transform="translate(26.81 0.5)"/></g><path class="cls-16" d="M66.86,371.83c0-.15.33-3.61-.75-5.57a2,2,0,0,0-1.3-1,1.87,1.87,0,0,0-1.73.5,2.21,2.21,0,0,0-.56,2.07c.47,2.38,4,4.07,4.16,4.14l.16.08Z" transform="translate(26.81 0.5)"/><path class="cls-17" d="M64.78,365.34a1.9,1.9,0,0,1,1.22,1c1.08,2,.73,5.51.73,5.51s-3.63-1.72-4.08-4.05a1.89,1.89,0,0,1,2.13-2.43Zm.06-.25a2,2,0,0,0-1.84.53,2.34,2.34,0,0,0-.6,2.2c.47,2.44,4.07,4.15,4.23,4.23l.32.15,0-.36c0-.14.33-3.65-.77-5.65a2.17,2.17,0,0,0-1.38-1.1Z" transform="translate(26.81 0.5)"/><path class="cls-5" d="M63.14,365.85a15.55,15.55,0,0,1,3.58,6c-.26-.13-3.64-1.79-4.07-4A2.09,2.09,0,0,1,63.14,365.85Z" transform="translate(26.81 0.5)"/><g class="cls-18"><path class="cls-5" d="M62.65,366.75a1.8,1.8,0,0,1,1.9-1.44c.12.8,0,1.68.13,2.48A10.5,10.5,0,0,0,62.65,366.75Z" transform="translate(26.81 0.5)"/></g><g class="cls-15"><path class="cls-5" d="M66.23,370.39a19,19,0,0,0-.36-4.27l.13.19c1.08,2,.73,5.51.73,5.51s-2.93-1.39-3.86-3.36A25.75,25.75,0,0,1,66.23,370.39Z" transform="translate(26.81 0.5)"/></g><path class="cls-16" d="M74.25,358.08c.14-.1,3.6-2.66,4.53-5.29a2.51,2.51,0,0,0-.11-2.07,2.28,2.28,0,0,0-1.52-1.13,2.67,2.67,0,0,0-2.74,1.13c-1.82,2.39-.47,7.08-.41,7.28l.07.22Z" transform="translate(26.81 0.5)"/><path class="cls-17" d="M77.12,349.74a2.18,2.18,0,0,1,1.51,3c-.93,2.61-4.47,5.22-4.47,5.22s-1.41-4.79.37-7.14a2.53,2.53,0,0,1,2.59-1.08Zm.07-.31a2.83,2.83,0,0,0-2.91,1.19c-1.86,2.46-.49,7.22-.43,7.43l.13.42.35-.26c.15-.11,3.65-2.7,4.6-5.37a2.66,2.66,0,0,0-.13-2.2,2.46,2.46,0,0,0-1.61-1.21h0l-.07.31.07-.31Z" transform="translate(26.81 0.5)"/><path class="cls-5" d="M76.71,349.68a19.29,19.29,0,0,1-2.56,8.25c-.11-.34-1.33-4.85.38-7.11A2.62,2.62,0,0,1,76.71,349.68Z" transform="translate(26.81 0.5)"/><g class="cls-18"><path class="cls-5" d="M75.48,350a2.26,2.26,0,0,1,2.9.57c-.64.77-1.54,1.42-2.19,2.18A13.08,13.08,0,0,0,75.48,350Z" transform="translate(26.81 0.5)"/></g><g class="cls-15"><path class="cls-5" d="M75.06,356.3a22.86,22.86,0,0,0,3.65-3.84c0,.09,0,.18-.08.28-.93,2.61-4.47,5.22-4.47,5.22s-1.14-3.87-.07-6.36A34.33,34.33,0,0,1,75.06,356.3Z" transform="translate(26.81 0.5)"/></g><path class="cls-19" d="M83.84,352.43c4.83-2.86,9.37-6.3,12.53-11,3.32-5,3.45-11.2,3.61-17a.07.07,0,0,1,.13,0c.64,5.7-.08,12.16-3.18,17.08a25.93,25.93,0,0,1-5.54,6,32.32,32.32,0,0,1-7.52,5.06S83.8,352.46,83.84,352.43Z" transform="translate(26.81 0.5)"/><path class="cls-19" d="M74.53,376.25c.16-1.69,2.57-2.07,3.7-1,0,0,0,0,0,0A2.18,2.18,0,0,0,75,376H75a.49.49,0,0,1,.44.54.5.5,0,0,1-.54.45.52.52,0,0,1-.45-.55A.39.39,0,0,1,74.53,376.25Z" transform="translate(26.81 0.5)"/><path class="cls-19" d="M111.55,207.61l-.16.09L111,208a14.62,14.62,0,0,0-1.55,1.23c-.31.3-.68.61-1,1l-.57.58c-.17.21-.36.43-.57.65-.39.44-.77.95-1.19,1.47-.21.26-.4.55-.6.83l-.61.89c-.4.62-.8,1.26-1.22,1.94s-.78,1.4-1.18,2.14-.76,1.52-1.15,2.32-.71,1.64-1.07,2.48-.65,1.72-1,2.6-.6,1.81-.9,2.71l-.23.69c-.08.25-.14.47-.2.7-.14.47-.26.94-.4,1.4l-.4,1.4-.34,1.43c-.47,1.91-.82,3.82-1.16,5.72-.15.95-.29,1.89-.44,2.82s-.23,1.86-.34,2.76-.19,1.81-.26,2.69-.12,1.73-.18,2.57-.07,1.65-.11,2.44,0,1.55-.05,2.28,0,1.43,0,2.1,0,1.3,0,1.89c0,1.19.09,2.22.14,3.07.12,1.7.23,2.67.23,2.67s-.06-1-.1-2.67c0-.85,0-1.89,0-3.07,0-.59,0-1.23,0-1.89,0-.33,0-.67,0-1s0-.7,0-1.07c0-.73.06-1.48.11-2.27s.08-1.6.16-2.43.13-1.68.23-2.55.19-1.76.29-2.67.24-1.82.36-2.75.3-1.86.46-2.81c.35-1.87.71-3.78,1.19-5.66l.33-1.41c.12-.47.26-.93.38-1.4s.27-.94.39-1.4c.07-.23.12-.48.2-.69l.22-.68c.3-.91.57-1.82.88-2.7s.65-1.75,1-2.6.7-1.66,1-2.47.73-1.57,1.09-2.32.76-1.46,1.13-2.15.77-1.33,1.15-1.95c.8-1.21,1.55-2.31,2.3-3.23.18-.23.37-.45.53-.67s.37-.41.53-.59c.34-.39.68-.71,1-1s.59-.54.84-.76.46-.4.65-.53.32-.24.42-.3Z" transform="translate(26.81 0.5)"/><path class="cls-19" d="M98.73,305s-1.57-3.72-2.53-22.82C96.2,282.13,98.33,303.17,98.73,305Z" transform="translate(26.81 0.5)"/><path class="cls-20" d="M105,311.05c-.86-2.44.29-3.58,1.26-3.07s.79,2,.71,3.1a22.08,22.08,0,0,0,.17,3.08C107,313.81,105,311.05,105,311.05Z" transform="translate(26.81 0.5)"/><path class="cls-21" d="M107.13,314.16v0S107.12,314.17,107.13,314.16Z" transform="translate(26.81 0.5)"/><path class="cls-20" d="M95.7,316.77a2.41,2.41,0,0,1-.21-2,3.21,3.21,0,0,1,.19-2.69s-1.24.92-1.6.35c-.54-.87.33-2.77,1.51-3.93a5.69,5.69,0,0,1,6.07-.73c2.34,1.06,4,1.35,5.5,5.33a16,16,0,0,1,1.13,5.88,2.71,2.71,0,0,0-1.36-.94.23.23,0,0,0-.26.15,4.75,4.75,0,0,0,.56,2.72c-.87-.23-2.39-.6-1.91.46a4.8,4.8,0,0,0,1.09,1.12c-.54.11-1.2.07-1.5.16s-.85.13-.71.57c0,.07.3.34.35.41a6,6,0,0,1-1.91-.81c-1.32-.83-1-3-1.28-3.5a10.84,10.84,0,0,0-2.52-1.59c-.14,1-1.1,2.42-2.45,1.83S95.7,316.77,95.7,316.77Z" transform="translate(26.81 0.5)"/><path class="cls-11" d="M104.44,323.87a.16.16,0,0,0,.17-.07.15.15,0,0,0,0-.18l0-.05a2.7,2.7,0,0,1-.3-.42.26.26,0,0,1,0-.21c.07-.13.3-.21.51-.27a2.19,2.19,0,0,1,.62,0,4.4,4.4,0,0,0,1-.05.15.15,0,0,0,.12-.12.14.14,0,0,0,0-.15c-.09-.09-.2-.18-.32-.28a3.26,3.26,0,0,1-.8-.84c-.06-.13-.12-.3,0-.39s.34-.24,1.44,0l.36.09h0a.15.15,0,0,0,.16-.05.18.18,0,0,0,0-.17,4.6,4.6,0,0,1-.6-2.61.31.31,0,0,1,.12-.11,3.16,3.16,0,0,1,1.27,1l0,.05.09,0h.09a.2.2,0,0,0,.1-.15,16.35,16.35,0,0,0-1.14-5.94c-1.4-3.6-2.91-4.25-4.83-5.08l-.75-.33a6.08,6.08,0,0,0-1.18-.4,5.75,5.75,0,0,0-5.06,1.15c-1.21,1.18-2.14,3.17-1.55,4.13a.61.61,0,0,0,.36.25,1.67,1.67,0,0,0,1-.27,3.1,3.1,0,0,0,0,2.28,2.55,2.55,0,0,0,.2,2.07c-.11.4-.51,2.29.81,2.87l.33.11h0a1.49,1.49,0,0,0,1.25-.26,2.69,2.69,0,0,0,1-1.6,9,9,0,0,1,2.27,1.44,2.69,2.69,0,0,1,.15.84c.1.89.21,2.11,1.17,2.71l.22.15a5.31,5.31,0,0,0,1.67.82Z" transform="translate(26.81 0.5)"/><path class="cls-12" d="M100.52,307.33a6.41,6.41,0,0,1,1.14.39c2.34,1.06,4,1.35,5.5,5.33a16,16,0,0,1,1.13,5.88,3.25,3.25,0,0,0-1.4-1.12h0c-.1,0-.26.13-.28.24a4.63,4.63,0,0,0,.59,2.7l-.36-.08c-.87-.2-2-.33-1.59.6a5.58,5.58,0,0,0,1.16,1.17c-.54.11-1.36,0-1.66.07s-.75.27-.61.7a4.89,4.89,0,0,0,.33.51h0a6,6,0,0,1-1.83-1c-1.32-.83-1-3-1.28-3.5a10.84,10.84,0,0,0-2.52-1.59c-.13.93-1,2.2-2.14,1.94a2.33,2.33,0,0,1-.31-.11c-1.33-.58-.69-2.74-.69-2.74a2.41,2.41,0,0,1-.21-2,3.21,3.21,0,0,1,.19-2.69s-.85.63-1.35.52a.34.34,0,0,1-.25-.17c-.54-.87.33-2.77,1.51-3.93a5.54,5.54,0,0,1,4.93-1.12Zm.07-.3a5.77,5.77,0,0,0-5.22,1.19c-1.27,1.25-2.2,3.29-1.56,4.32a.72.72,0,0,0,.45.33,1.49,1.49,0,0,0,.81-.13,3.19,3.19,0,0,0,.08,2,2.74,2.74,0,0,0,.2,2.08c-.13.55-.45,2.4.92,3a1.57,1.57,0,0,0,.35.11,1.7,1.7,0,0,0,1.39-.28,2.92,2.92,0,0,0,1-1.5,8.29,8.29,0,0,1,2,1.3,2.65,2.65,0,0,1,.13.77,3.52,3.52,0,0,0,1.24,2.83l.21.14a5.47,5.47,0,0,0,1.73.84.3.3,0,0,0,.33-.14.32.32,0,0,0,0-.36l0,0a4.24,4.24,0,0,1-.26-.37.27.27,0,0,1,0-.09c0-.08.31-.16.41-.19a2,2,0,0,1,.58,0,4.28,4.28,0,0,0,1.07-.06.29.29,0,0,0,.23-.23.3.3,0,0,0-.09-.31l-.33-.28a3.15,3.15,0,0,1-.75-.78.48.48,0,0,1-.07-.23h0s.2-.18,1.29.07l.35.08h0a.36.36,0,0,0,.32-.11.32.32,0,0,0,0-.34,4.41,4.41,0,0,1-.57-2.47,3.37,3.37,0,0,1,1.09,1l0,0a.36.36,0,0,0,.17.11.37.37,0,0,0,.18,0,.31.31,0,0,0,.2-.3,16.2,16.2,0,0,0-1.14-6c-1.42-3.66-3-4.33-4.92-5.17l-.75-.33a6.26,6.26,0,0,0-1.2-.4Z" transform="translate(26.81 0.5)"/><path class="cls-13" d="M96.39,319.51c1.35.59,2.31-.83,2.45-1.83a10.84,10.84,0,0,1,2.52,1.59c.33.53,0,2.67,1.28,3.5a6,6,0,0,0,1.83,1,4.89,4.89,0,0,1-.33-.51c-.14-.43.26-.59.61-.7s1.12,0,1.66-.07a5.58,5.58,0,0,1-1.16-1.17c-.48-1.06,1.09-.74,2-.52a4.63,4.63,0,0,1-.59-2.7c0-.11.18-.27.28-.24a3.25,3.25,0,0,1,1.4,1.12,16,16,0,0,0-1.13-5.88,8.1,8.1,0,0,0-2.5-3.79.93.93,0,0,1-.21,1c-1,1-3.59-.67-4.59-1a4.08,4.08,0,0,0-2.11-.05,11.39,11.39,0,0,1-1.43.47,1.11,1.11,0,0,1-1.24-.52.32.32,0,0,1,0-.09c-.89,1.13-1.42,2.59-1,3.31s1.6-.35,1.6-.35a3.21,3.21,0,0,0-.19,2.69,2.41,2.41,0,0,0,.21,2S95.06,318.93,96.39,319.51Zm3.75-7.47a5.38,5.38,0,0,0-1.94-.32c-.47,0-.91.17-1.37.2s-.44-.65-.27-1c.59-1,2.6-.85,3.54-.71a.19.19,0,0,1,.16.12,3.63,3.63,0,0,1,2.29,1.21.69.69,0,0,1-.09,1.06C101.8,313.06,100.73,312.27,100.14,312Zm-2.89,1.81c-.49-.14-.94-.39-.83-1a.61.61,0,0,1,.46-.44l.06,0a3.73,3.73,0,0,1,3.73.78c.67.49,1.22,1.6,0,1.55A16.53,16.53,0,0,1,97.25,313.85Zm.19,1a.19.19,0,0,1,.18-.13,4,4,0,0,1,2.82,1.17c.71.68-.1,1.2-.8,1.15A4.05,4.05,0,0,1,97,315.77C96.58,315.27,97,315,97.44,314.82Z" transform="translate(26.81 0.5)"/><g class="cls-18"><path class="cls-13" d="M96,319c1.31.32,2.06-1.13,2.46-2.26a4.24,4.24,0,0,0,.82.24l.64.27c.89.37,1.71.9,2.57,1.34.58.3.64,1.73,1.46,1.57.52-.1.64-.77,1-1.06.6-.5,1.25.22,1.52.76-.18-.7-.66-2.07-.09-2.7s1.39.22,1.76.67c.06-.35,0-.79,0-1.16a9.53,9.53,0,0,1,.16,2.26c-.29-.34-1.28-1.57-1.67-.8s.31,2,.58,2.63c-.06-.14-1.13-.25-1.28-.25-.5,0-.92.22-.66.78a5.58,5.58,0,0,0,1.16,1.17c-.54.11-1.36,0-1.66.07s-.75.27-.61.7a4.89,4.89,0,0,0,.33.51,6,6,0,0,1-1.83-1c-1.32-.83-1-3-1.28-3.5a10.84,10.84,0,0,0-2.52-1.59c-.14,1-1.1,2.42-2.45,1.83a1.28,1.28,0,0,1-.63-.58Z" transform="translate(26.81 0.5)"/></g><path class="cls-12" d="M95.92,316.11a2.73,2.73,0,0,1,1.61-1.58c1.27-.43,2.86.85,3.58,1.77,0,0,0,.08-.06.05A4.63,4.63,0,0,0,98,314.76c-1.51,0-2.06,2.17-2.34,3.35a.06.06,0,0,1-.12,0A3.08,3.08,0,0,1,95.92,316.11Z" transform="translate(26.81 0.5)"/><path class="cls-12" d="M95.15,315.38a2.93,2.93,0,0,1,2.59-3.33,5.39,5.39,0,0,1,4.09,2.28s0,.06,0,0a6.68,6.68,0,0,0-3.35-2,2.2,2.2,0,0,0-2.44,1,5.43,5.43,0,0,0-.59,2C95.37,315.55,95.17,315.51,95.15,315.38Z" transform="translate(26.81 0.5)"/><path class="cls-12" d="M95.18,312.81c-.23-1.65,2-2.56,3.25-2.66a5.46,5.46,0,0,1,4.64,1.86s0,.08-.06.05a5.88,5.88,0,0,0-4-1.65,4,4,0,0,0-2.32.6,3.77,3.77,0,0,0-1.32,1.83C95.3,312.92,95.2,312.88,95.18,312.81Z" transform="translate(26.81 0.5)"/><path class="cls-14" d="M105,325.4a2.55,2.55,0,0,1,1.21-.87,5.29,5.29,0,0,1-1.34-.45c-.39-.18-1-.5-1-1,0-.78,1.19-.83,2-.68a3.41,3.41,0,0,1-1-1.41.26.26,0,0,1,.1-.28,2.59,2.59,0,0,1,2-.08,10.3,10.3,0,0,1-.43-1.24c-.12-.39-.45-1.34,0-1.65.68-.44,1.5.64,2.16,1.53a4.19,4.19,0,0,1,0-.6c0-.33.11-.95.48-1.09,0,0,0,0,0,0a.1.1,0,0,1,.18-.08,9.13,9.13,0,0,0,3.32,2.94,16.28,16.28,0,0,0,1.88.91,4.4,4.4,0,0,0,2,.58c.72-1.59.39-3.78.09-5.4a13.27,13.27,0,0,0-.31-1.39,11.44,11.44,0,0,1-.82-1.27c-.36-.61-.77-1.18-1.1-1.8,0-.07.05-.13.1-.06.42.57.81,1.15,1.26,1.69a1.84,1.84,0,0,0,.17.22A14.08,14.08,0,0,0,114.5,311s0-.11.08-.06a11.82,11.82,0,0,1,2.61,5.64c.36,1.78.64,4.13-.26,5.81a.29.29,0,0,1-.49,0,3.87,3.87,0,0,1-1.69-.47,15.27,15.27,0,0,1-2.32-1.08,7,7,0,0,1-3.1-3,3.17,3.17,0,0,0,.46,2.62c-.14.11-.76-.33-.88-.4A6.53,6.53,0,0,1,107.8,319c-.16-.17-.6-.72-.76-.46-.53.78,1.12,2.9,1.24,3s-.24-.08-.33-.12a5.51,5.51,0,0,0-1.32-.49,2.05,2.05,0,0,0-.7,0c-.6.13.44,1.07.71,1.3a3.06,3.06,0,0,1,.61.58c.08.11.2.25.08.21a5.77,5.77,0,0,0-1.71-.15c-.13,0-.74.1-.69.27.09.33.62.53,1.06.65s1.12.22,1.41.32l1.09.29c.09,0,.73.26-.63.24-.72,0-2.24.85-1.44,1a13.5,13.5,0,0,1,4.08,1.6c1.74.89,3.26,2.22,5,3,0,0,0,.09,0,.08-1.76-.23-3.25-1.55-4.74-2.41a18.89,18.89,0,0,0-5.61-2.08A.26.26,0,0,1,105,325.4Z" transform="translate(26.81 0.5)"/><path class="cls-14" d="M79.3,332.26c.39-.15.7-.66.91-1a6.76,6.76,0,0,1,.55-.74c0-.27,0-.51,0-.71a.1.1,0,0,1,.19,0c0,.66.34,2.4,1.06,2.74a21.85,21.85,0,0,0,.37-2.29,13,13,0,0,1,.91-2.63c.37-.89.78-1.76,1.13-2.66a8.82,8.82,0,0,1,1.08-2.2s.05,0,0,0a7.57,7.57,0,0,0-.6,1.54,29.08,29.08,0,0,0,1.89,4c.75,1.26,1.55,2.5,2.36,3.73s1.71,2.42,2.65,3.59a17.86,17.86,0,0,0,2.66,3.1c.08.06,0,.19-.11.15a8.39,8.39,0,0,1-2.56-2.61c-1-1.24-1.95-2.45-2.83-3.76s-1.74-2.62-2.5-4a15.71,15.71,0,0,1-1.66-3.91c-.06.21-.11.43-.18.64a19.31,19.31,0,0,1-1,2.52,13.13,13.13,0,0,0-.9,2.74,9.76,9.76,0,0,1-.43,2.34.2.2,0,0,1-.24.12c-.84-.17-1.18-1.16-1.3-2.08-.28.67-.71,1.44-1.48,1.4C79.26,332.36,79.26,332.29,79.3,332.26Z" transform="translate(26.81 0.5)"/><path class="cls-14" d="M75.25,328.18a7.9,7.9,0,0,1,.9-.83c.59-1.37,1.11-2.74,1.81-4.06a41.33,41.33,0,0,1,2.38-3.92s.07,0,.06,0c-.65,1.39-1.44,2.68-2.16,4-.58,1.09-1,2.28-1.49,3.4a3.43,3.43,0,0,0,.84-1.09s.08,0,.07,0a4.94,4.94,0,0,1-1.28,1.77l-.06.1a.12.12,0,0,1-.15.07,4.24,4.24,0,0,1-.86.53S75.2,328.22,75.25,328.18Z" transform="translate(26.81 0.5)"/><g class="cls-22"><path class="cls-11" d="M77.22,339.12a4.67,4.67,0,0,0,3.73-.44,2.32,2.32,0,0,0,1-1.79,11.65,11.65,0,0,0-.27-2.84c0-.28-.1-.55-.14-.83l-.06-.31a4.72,4.72,0,0,1,0-2.08c.11-.39.24-.78.37-1.17s.27-.84.39-1.26a1.38,1.38,0,0,0,.06-1.51,2.57,2.57,0,0,0-1.73-1.26l-.24-.05a3.41,3.41,0,0,0-2.73.53,5.63,5.63,0,0,0-1.18,1.68,4.77,4.77,0,0,1-1.53,1.48,2.7,2.7,0,0,1-1.78.12,7.22,7.22,0,0,1-1.8-.75c-.35-.19-.74-.45-1.15-.72a10.19,10.19,0,0,0-2.85-1.52,5.21,5.21,0,0,0-.93-1.79A2.76,2.76,0,0,0,65,323.7a1.14,1.14,0,0,0-.36,0,1.26,1.26,0,0,0-1,.66,1.41,1.41,0,0,0-1.81.27,2.39,2.39,0,0,0-.18.44h0a1.06,1.06,0,0,0-1.3.63,1.43,1.43,0,0,0-.89.78,1.46,1.46,0,0,0-.48-.21,1.51,1.51,0,0,0-1.45.53A2.34,2.34,0,0,0,57,329a4.18,4.18,0,0,0,2.64,2.7l.48.13h0a4,4,0,0,0,.92.12c.84,1.66,3.56,2.49,5.37,3l1,.32c1.93.68,3.81,1.43,5.74,2.29a22.13,22.13,0,0,0,2.78,1.08s.06,0,.07,0A7.21,7.21,0,0,0,77.22,339.12Z" transform="translate(26.81 0.5)"/><path class="cls-12" d="M80.45,325.78A2.44,2.44,0,0,1,82.08,327a1.22,1.22,0,0,1-.07,1.35c-.24.84-.54,1.65-.78,2.47a5.68,5.68,0,0,0,.1,2.46,14.86,14.86,0,0,1,.4,3.63c-.18,2.25-2.58,2.51-4.48,2.08a6.76,6.76,0,0,1-1.2-.4.1.1,0,0,1,0,0,20.86,20.86,0,0,1-2.81-1.08c-1.89-.84-3.79-1.61-5.75-2.29-1.66-.59-5.43-1.35-6.34-3.37a4,4,0,0,1-1-.11l-.47-.12a4.1,4.1,0,0,1-2.54-2.61c-.4-1.33.67-2.81,1.8-2.55a1.5,1.5,0,0,1,.59.3.22.22,0,0,1,0-.1c.1-.3.54-.82.9-.77,0,0,0,0,0-.06a.91.91,0,0,1,1.13-.58,1.39,1.39,0,0,1,.19.06,1.22,1.22,0,0,1,.2-.57,1.11,1.11,0,0,1,1.19-.37,1.2,1.2,0,0,1,.52.25,1.19,1.19,0,0,1,1-.73.89.89,0,0,1,.32,0,2.4,2.4,0,0,1,1.21.86,4.88,4.88,0,0,1,.93,1.83c1.46.34,2.9,1.59,4,2.25a7.72,7.72,0,0,0,1.84.75,2.78,2.78,0,0,0,1.89-.14,4.7,4.7,0,0,0,1.6-1.54,5.38,5.38,0,0,1,1.15-1.63,3.24,3.24,0,0,1,2.59-.49l.24,0Zm.07-.31h0l-.26-.05a3.57,3.57,0,0,0-2.85.57,5.57,5.57,0,0,0-1.21,1.71,4.48,4.48,0,0,1-1.47,1.42,2.44,2.44,0,0,1-1.67.11,6.67,6.67,0,0,1-1.76-.72c-.35-.2-.73-.46-1.13-.72a10.69,10.69,0,0,0-2.82-1.52,5.38,5.38,0,0,0-.94-1.76,2.94,2.94,0,0,0-1.39-1,1.5,1.5,0,0,0-.41,0,1.4,1.4,0,0,0-1.06.61,1.7,1.7,0,0,0-.34-.12,1.26,1.26,0,0,0-1.69.87,1.19,1.19,0,0,0-1.33.66,1.57,1.57,0,0,0-.84.7,1.34,1.34,0,0,0-.38-.14,1.66,1.66,0,0,0-1.6.57A2.5,2.5,0,0,0,56.8,329a4.34,4.34,0,0,0,2.75,2.8L60,332a5.77,5.77,0,0,0,.85.12c.92,1.66,3.51,2.45,5.42,3l1,.33c1.93.68,3.8,1.42,5.72,2.28a20.94,20.94,0,0,0,2.78,1.07l.08.05a6.89,6.89,0,0,0,1.26.42,4.83,4.83,0,0,0,3.87-.46,2.54,2.54,0,0,0,1-1.9,11.16,11.16,0,0,0-.28-2.9c0-.27-.09-.54-.14-.81,0-.11,0-.21-.06-.32a4.52,4.52,0,0,1,0-2c.11-.39.24-.79.37-1.18s.26-.81.38-1.23a1.53,1.53,0,0,0,.07-1.66,2.8,2.8,0,0,0-1.84-1.34Z" transform="translate(26.81 0.5)"/><path class="cls-13" d="M58.31,330.08c1.13-.21.78-1.11.58-1.92a7.21,7.21,0,0,0-.3-1.79,1.26,1.26,0,0,1,.82.27,1.94,1.94,0,0,0,.44,1.09c.1.13.31,0,.34-.11a2.19,2.19,0,0,0,0-1.05.17.17,0,0,0,0-.12.65.65,0,0,0-.12-.28A1.46,1.46,0,0,0,60,326a.68.68,0,0,1,.44-.16,0,0,0,0,1,0,0,2.28,2.28,0,0,0,.48,1,.22.22,0,0,0,.33-.06,1.93,1.93,0,0,0-.11-1.6,1.08,1.08,0,0,1,.5,0,1.9,1.9,0,0,0,.2.5.68.68,0,0,0,.82.35.84.84,0,0,0,.4-.83,1.8,1.8,0,0,0-.34-1,1.33,1.33,0,0,1,.91.25,1.69,1.69,0,0,0,.23.66,2.29,2.29,0,0,0,1.55,1.18,4.25,4.25,0,0,1,2.38,1.09,15.85,15.85,0,0,0-2.28.05c-.5.14-1,.26-1.49.44s-1.91.61-1.77,1.38,1.25.18,1.64,0c1.44-.57,2.51-1.11,4.12-.66a12.11,12.11,0,0,1,5.34,3.49c.91.95,1.94,2,3.36,1.86.63-.07,1.52-.61,1.24-1.38a1.59,1.59,0,0,0-.59-.82c-.24-.16-1.59-.9-1.1-1.18a.22.22,0,0,0-.13-.4,1.58,1.58,0,0,1-.61,0c-.52-.34-.61-.57-.23-.7l.51-.27c.18-.1.1-.42-.11-.39h-.09a7.16,7.16,0,0,0,.88-1,5.38,5.38,0,0,1,1.15-1.63,3.24,3.24,0,0,1,2.59-.49A2.49,2.49,0,0,1,82.08,327a1.22,1.22,0,0,1-.07,1.35c-.24.84-.54,1.65-.78,2.47a5.68,5.68,0,0,0,.1,2.46,14.86,14.86,0,0,1,.4,3.63c-.22,2.76-3.81,2.53-5.68,1.68a.1.1,0,0,1,0,0,20.86,20.86,0,0,1-2.81-1.08c-1.89-.84-3.79-1.61-5.75-2.29-1.66-.59-5.43-1.35-6.34-3.37a4.91,4.91,0,0,1-1.46-.23,4.13,4.13,0,0,1-2.21-1.85A.94.94,0,0,0,58.31,330.08Z" transform="translate(26.81 0.5)"/><path class="cls-12" d="M67.16,331.93a.12.12,0,0,1,.2-.14,7.09,7.09,0,0,0,1.58,1.56,11.63,11.63,0,0,0,1.67.8s0,.09,0,.07A5,5,0,0,1,67.16,331.93Z" transform="translate(26.81 0.5)"/><path class="cls-12" d="M77.34,335c.54-.51,1.07-1,.87-1.82a4.69,4.69,0,0,0-.8-1.45s0-.06,0,0a2.7,2.7,0,0,1,1.13,1.69,1.67,1.67,0,0,1-1.18,1.71A.06.06,0,0,1,77.34,335Z" transform="translate(26.81 0.5)"/><path class="cls-12" d="M61.58,329.31c-.65.07-1.31-.6-1.69-1.05s-.81-1.45-.31-1.88c.08-.05.15.05.12.11-.45,1.19.91,2.46,2,2.69a3.05,3.05,0,0,1,.29-.42,3.85,3.85,0,0,1,.27-.3c-1.09-.08-2.32-2.08-1.75-3,.05-.1.22,0,.18.07a2.48,2.48,0,0,0,1.68,2.79,4.88,4.88,0,0,1,.73-.56A2.46,2.46,0,0,1,61.63,325a.14.14,0,0,1,.26.06,2.52,2.52,0,0,0,1.35,2.63,3.67,3.67,0,0,1,1.22-.46,2,2,0,0,1-.87-2.83c.11-.15.3,0,.21.2a1.94,1.94,0,0,0,.86,2.58,4,4,0,0,1,1.71.12,0,0,0,0,1,0,0,4.68,4.68,0,0,0-3.75,1.09c-.95.86-2,2.7-1.07,3.91,0,0,0,.1-.08.08C60.41,331.87,61,330.3,61.58,329.31Z" transform="translate(26.81 0.5)"/></g><path class="cls-10" d="M77.58,327.09c-.21.31-.41.62-.61.94-.08.12.1.22.2.14,2.77-2.44,3.56-6.3,5.72-9.19.52-.69,1.11-1.31,1.63-2a2.81,2.81,0,0,0,.52-1c.12-.62-.31-.51-.66-.29a3.19,3.19,0,0,0-1.17.61,10.79,10.79,0,0,0-2.59,3.25,36.54,36.54,0,0,0-1.92,4.11,13.24,13.24,0,0,1-1,2,16.07,16.07,0,0,1-1.4,1.83,6.46,6.46,0,0,1-1.43.88s0,.09,0,.08A4.6,4.6,0,0,0,77.58,327.09Z" transform="translate(26.81 0.5)"/><path class="cls-10" d="M55.38,317.25c.32-.14.65-.26,1-.38a5.77,5.77,0,0,1-.6-.24c-.22-.1-.07-.39.15-.37a13.4,13.4,0,0,0,3.65-.29c.52-.09,1-.17,1.58-.24h.28l.71-.06a31.27,31.27,0,0,1,4.54,0,20,20,0,0,1,8.58,2.54,3.06,3.06,0,0,1,1.11.84c.26.31-.14.74-.47.66-1.55-.34-3-.94-4.51-1.42A41.5,41.5,0,0,0,66,317.05a17.37,17.37,0,0,0-6.1.1c-1.51.25-3,.85-4.51.46A.19.19,0,0,1,55.38,317.25Z" transform="translate(26.81 0.5)"/><path class="cls-10" d="M108.21,320.19c.94.68,1.91,1.32,2.91,1.93a20.53,20.53,0,0,0,3.33,1.63,3.94,3.94,0,0,0,2.25.22c1.24-.3,1.3-1.63,1.51-2.67a11.19,11.19,0,0,0,.21-2.83,10.62,10.62,0,0,0-.22-1.6,21.92,21.92,0,0,0-3.63-7.28c-.39-.58-1.32-1.82-.72-2.54s1.76.41,2.28.8c1.24.94,2.88,4.33,3.37,5.73a13.76,13.76,0,0,1,.75,7.19,12.79,12.79,0,0,1-.57,2.31,4.8,4.8,0,0,1-1.26,2,3.2,3.2,0,0,1-2.44.44,16.05,16.05,0,0,1-3.22-1.26,13,13,0,0,1-2.84-1.85,9.4,9.4,0,0,1-1.18-1.18C108,320.33,108.1,320.13,108.21,320.19Z" transform="translate(26.81 0.5)"/><path class="cls-8" d="M101.16,257.9c12.13-6.92,27.35-1.24,33.45,3.33s9.18,6.42,11.59,6.77,3.33-.86,3.33-.86c-1.35,4.27-5.09,3.53-5.09,3.53,2.64,3,5.34,1.29,5.34,1.29-2.76,4.29-7.65,1.34-7.65,1.34a25.79,25.79,0,0,1-1.68,14.22c.24,0-33.71,17.4-33.71,17.4-6.88-3.67-16.34-12.92-17.8-23S95.38,261.21,101.16,257.9Z" transform="translate(26.81 0.5)"/><path class="cls-14" d="M100.2,258.51a26.23,26.23,0,0,0-2.76,3.1,18.86,18.86,0,0,0-3,4.88c-.25.72-1.06,2.87,0,3.37.88.43,2.43-.8,3.27-1a8.75,8.75,0,0,1,7.71,1.35,14,14,0,0,1,2.44,2.55,7.9,7.9,0,0,0,1.35,1.69c2.82,2.23,5.33-3.36,6.85-5s3.79-3.72,6.35-3a12.75,12.75,0,0,1,5.59,4c.83.94,1.69,2.85,3.11,2.89,1,0,1.79-1.37,2.23-2.08s1.1-2,2.18-1.52a6.28,6.28,0,0,1,2.36,2.07,39.62,39.62,0,0,1,2.78,4.8c.31.58,1.05.15,1.06-.36a12.45,12.45,0,0,0-1.27-5.74,11.92,11.92,0,0,0,3.25,1.88A7.65,7.65,0,0,0,148,273a4.26,4.26,0,0,0,1.56-.72c-2.8,3.84-7.44,1-7.44,1a25.79,25.79,0,0,1-1.68,14.22c.24,0-33.71,17.4-33.71,17.4-6.88-3.67-16.34-12.92-17.8-23C87.56,272.38,94.54,262.37,100.2,258.51Z" transform="translate(26.81 0.5)"/><path class="cls-14" d="M141.15,269.55a24.38,24.38,0,0,1-2.64-2.44,14.23,14.23,0,0,0,5.64,2.12,6.6,6.6,0,0,0,5.33-1.94,4.73,4.73,0,0,1-2.82,3.16A7.3,7.3,0,0,1,141.15,269.55Z" transform="translate(26.81 0.5)"/><path class="cls-23" d="M144.54,293.42c4.13.48,7-4.93,7.6-8.27.31-1.87.64-4-2-5.68a7,7,0,0,0-1.6-.64c-3.57-.91-6,1.69-7.34,4.39s-2,5.52-.28,7.8a5.2,5.2,0,0,0,3.54,2.38A.23.23,0,0,1,144.54,293.42Z" transform="translate(26.81 0.5)"/><path class="cls-13" d="M144.72,282.39c-.86,1-2.7,4.35-.84,5.2a1.68,1.68,0,0,0,1.31-.13c1-.41.52,1.37.79,2.28.3,1.07,1.73.92,2.53.06,1.69-1.8,3.66-5.92,2.12-8.33a2.66,2.66,0,0,0-2.75-1.1,5.91,5.91,0,0,0-1.47.57A6.07,6.07,0,0,0,144.72,282.39Z" transform="translate(26.81 0.5)"/><path class="cls-24" d="M144.59,287.13s1.81-1.13,1.58.72.93,3.15,2.72.55,2.13-8.22-1.71-6.15-3.85,5.41-2.59,4.88Z" transform="translate(26.81 0.5)"/><path class="cls-25" d="M144.84,284.12c-1,1.27-1.18,2.5-.82,2.92-.36-.42-.22-1.65.82-2.92Zm0,0h0Zm1.88-1.6a7.8,7.8,0,0,0-1.46,1.14,1.13,1.13,0,0,1,.26,0,3.29,3.29,0,0,1,1,.13c2.07.54,2.23,4.48,1,6a1,1,0,0,1-.41.09c-.53,0-.86-.53-.94-1.27a2.7,2.7,0,0,0,.14.62.87.87,0,0,0,.8.66c.42,0,1-.35,1.61-1.2.92-2,.78-5.29-1.17-6a4.67,4.67,0,0,0-.8-.2Z" transform="translate(26.81 0.5)"/><path class="cls-26" d="M145.53,283.64a1.13,1.13,0,0,0-.26,0,4.38,4.38,0,0,0-.42.46h0c-1,1.27-1.18,2.5-.82,2.92h0a.44.44,0,0,0,.32.15.65.65,0,0,0,.25-.06h0a2.45,2.45,0,0,1,1-.34h0c.37,0,.68.23.58,1.06a3.74,3.74,0,0,0,0,.74c.08.74.41,1.27.94,1.27a1,1,0,0,0,.41-.09c1.25-1.52,1.09-5.46-1-6a3.29,3.29,0,0,0-1-.13Z" transform="translate(26.81 0.5)"/><path class="cls-27" d="M145.29,279.63a5,5,0,0,1,5.62,1s0,0,0,0c-1.79-.82-3.4-1.24-5.3-.41a6.87,6.87,0,0,0-3.11,3.46c-.65,1.29-1.08.39-1.06.29A8,8,0,0,1,145.29,279.63Z" transform="translate(26.81 0.5)"/><path class="cls-28" d="M109.59,283.39s1-4.06-2.69-9.3-9.25-5.23-12.31-2.66-5.77,8.69,5.21,15.39Z" transform="translate(26.81 0.5)"/><path class="cls-13" d="M104.09,273.85c2.09,1.91,3.26,5.59,1.79,6.55s-3.93-.83-5.07,1-2.1,2.24-4.29.14-3.66-6.58.07-9.14C99.29,270.57,102.2,272.12,104.09,273.85Z" transform="translate(26.81 0.5)"/><path class="cls-24" d="M103.23,274.78c1.77,1.55,2.78,4.55,1.52,5.33s-3.32-.68-4.29.82-1.78,1.82-3.64.11-3.1-5.36.06-7.43C99.16,272.1,101.63,273.38,103.23,274.78Z" transform="translate(26.81 0.5)"/><path class="cls-25" d="M95.77,279.74c-.2-1.92.08-3.91,2-5s5-.29,6.71,1.61c.88,1.5,1.15,3.21.24,3.77-1.24.78-3.32-.68-4.29.82s-1.78,1.82-3.64.11A6.16,6.16,0,0,1,95.77,279.74Z" transform="translate(26.81 0.5)"/><path class="cls-26" d="M98.6,276.55a5.63,5.63,0,0,1,6.66,1.78,1.64,1.64,0,0,1-.51,1.78c-1.24.78-3.32-.68-4.29.82s-1.77,1.81-3.62.13C96.58,279.28,97,277.23,98.6,276.55Z" transform="translate(26.81 0.5)"/><path class="cls-27" d="M93.45,273.38c1.62-3.2,5.77-4,8.84-2.66a11.09,11.09,0,0,1,6.25,8.67.09.09,0,0,1-.17,0,12.45,12.45,0,0,0-5.52-7.48c-3.31-2-6.47-.61-9.12,1.67C93.57,273.76,93.36,273.56,93.45,273.38Z" transform="translate(26.81 0.5)"/><path class="cls-11" d="M111,307.94c1.22.59,2.54,1.16,3.93,1.7,6.48,2.54,19.53,3.8,27.43-7.54.53-.19,5.23-1.93,7.09-5.63.71-1.41,1-2.34.79-2.85a.64.64,0,0,0-.32-.38c-.46-.22-1.23.1-1.73.38a8.82,8.82,0,0,0-5.09-6,14.51,14.51,0,0,0-2.94-1c.27-1.23,1.76-9.29-3.58-14.58a.76.76,0,0,0-.24-.17,1,1,0,0,0-.85,0c-1.35.63-3.1,3.68-3.75,5.66a24.49,24.49,0,0,0-1.74-3.38c-1.13-1.86-3-4.31-5.26-5.43a6,6,0,0,0-2.31-.6A5.67,5.67,0,0,0,118,270.2a19,19,0,0,0-4.4,11.29,21.42,21.42,0,0,0-5.59-.64c-4.14.11-7.17,1.66-8.78,4.5A12.64,12.64,0,0,0,98,295.48C99.52,300.3,103.9,304.5,111,307.94Z" transform="translate(26.81 0.5)"/><path class="cls-12" d="M136.31,272a.52.52,0,0,1,.19.14c5.77,5.71,3.51,14.59,3.51,14.59a14.29,14.29,0,0,1,3.07,1.05c4.63,2.23,5,6.11,5,6.11.59-.35,1.36-.68,1.77-.48s.46,1-.54,3c-2,3.9-7.06,5.57-7.06,5.57-7.68,11.08-20.48,10.18-27.26,7.53-1.41-.55-2.72-1.12-3.92-1.7-14.45-7-15.27-16.08-11.72-22.38,3.86-6.81,14.41-3.72,14.41-3.72-.32-3.21,3-13.71,8.67-13.42a5.78,5.78,0,0,1,2.23.6c4.4,2.12,7.11,9.13,7.11,9.13.57-2.23,3.16-6.68,4.5-6Zm.14-.28a1.07,1.07,0,0,0-1,0,7.29,7.29,0,0,0-2.38,2.65,17.67,17.67,0,0,0-1.32,2.71,30.37,30.37,0,0,0-1.59-3,13.67,13.67,0,0,0-5.34-5.47,6.08,6.08,0,0,0-2.36-.64,5.84,5.84,0,0,0-4.56,2.13c-3,3.12-4.46,8.69-4.45,11.19a21.86,21.86,0,0,0-5.43-.59c-4.2.11-7.29,1.69-8.92,4.58a12.82,12.82,0,0,0-1.25,10.26c1.51,4.87,5.92,9.09,13.1,12.55,1.23.59,2.56,1.17,3.94,1.72,6.51,2.54,19.63,3.81,27.58-7.56.76-.26,5.27-2,7.14-5.7.73-1.46,1-2.41.8-3a.74.74,0,0,0-.41-.47,2,2,0,0,0-1.67.28,9,9,0,0,0-5.13-5.91,15.45,15.45,0,0,0-2.83-1,20,20,0,0,0,.35-4.93,14.55,14.55,0,0,0-4-9.65,1,1,0,0,0-.28-.19Z" transform="translate(26.81 0.5)"/><path class="cls-27" d="M146,295.24a5.51,5.51,0,0,1-5.35-1.07c-1.59-1.22-3.23-3.33-2.14-5.44a3.5,3.5,0,0,1,2.22-1.85c4.73,1.3,6.45,4.13,7.05,5.76A2.83,2.83,0,0,1,146,295.24Z" transform="translate(26.81 0.5)"/><path class="cls-27" d="M124.69,269.48c1.23.38,2.94,2.32,3.68,3.26a14.15,14.15,0,0,1,3,7.21c.09.53.43,1.54.54,1a20.76,20.76,0,0,1,2.58-6.17c.67-1.05,2.78-2.28,3.51-.68,0-.06-.57-.75-1.65.06A5.8,5.8,0,0,0,135,276a31.75,31.75,0,0,0-2.06,6.34c-.18.77-.37,1.56-.48,2.36-.24,1.8-.24,4.5.56,6.13a9.84,9.84,0,0,0,2,2.51c-.43.09-.8,0-1.07-.67a6.42,6.42,0,0,0-.61-1.16,2.91,2.91,0,0,0-2.15-1.26,4.74,4.74,0,0,0-2.45.61c-1.66-.31-1.38-2.12-1.13-3.42.85-4.46,1.08-9.68-1.2-13.7a17.41,17.41,0,0,0-2.89-3.22C122.78,270.11,123.78,269.19,124.69,269.48Z" transform="translate(26.81 0.5)"/><path class="cls-27" d="M132,278.33c-.05-.13-.09-.25-.13-.37a14.44,14.44,0,0,1,1.69-3.66A37.38,37.38,0,0,0,132,278.33Z" transform="translate(26.81 0.5)"/><path class="cls-27" d="M112.8,283.2a.58.58,0,0,0,.2.17c2.24,1.11,5.18,3.15,5.08,6-.12,4.15-4.75,2.65-7,1.26a14.54,14.54,0,0,1-3.91-3.33c-.69-.89-2.59-3.4-1-4.33C108.08,281.83,110.67,282.26,112.8,283.2Z" transform="translate(26.81 0.5)"/><path class="cls-27" d="M134.88,272.65a6.2,6.2,0,0,0-.64.61c.8-1,1.61-1.62,2.17-1.21A2.39,2.39,0,0,0,134.88,272.65Z" transform="translate(26.81 0.5)"/><path class="cls-13" d="M139.25,281.92c.05.9-.61,1.31-1.1.47a5.27,5.27,0,0,0-.54-.89,1.45,1.45,0,0,0-1.21-.67,1.78,1.78,0,0,0-1.26.89.11.11,0,0,1,0-.05A4.74,4.74,0,0,1,135,281c0-.23,0-.47-.08-.7.31-1.27,1-2.75,2.28-2.43,1.72.44,2.07,2.15,2.15,3.74A.56.56,0,0,0,139.25,281.92Z" transform="translate(26.81 0.5)"/><path class="cls-13" d="M126.59,274.94a.64.64,0,0,0,.27.21,5.68,5.68,0,0,1,.54,2.14,12,12,0,0,1,0,1.34c0,.09-.41,1.82-.76.82s-.31-2.66-1.57-2.8a1.88,1.88,0,0,0-1.57.44c-.37.28-1.36,1.9-1.62.7C121.3,275.24,124.75,272.37,126.59,274.94Z" transform="translate(26.81 0.5)"/><path class="cls-13" d="M135.88,273.23c-2,.87-3.35,4.15-4,7.25a24.48,24.48,0,0,0-1.39-5.18,25.56,25.56,0,0,1,1.3,2.71c.6-2.35,3.43-7.15,4.69-5.89.26.25.49.51.73.78A1.53,1.53,0,0,0,135.88,273.23Z" transform="translate(26.81 0.5)"/><path class="cls-13" d="M115,309.5c6.78,2.65,19.58,3.55,27.26-7.53,0,0,5.1-1.67,7.06-5.57.72-1.44.91-2.27.79-2.69-.09.27-.2.53-.29.73a11.39,11.39,0,0,1-6.06,5.84c-4,1.78-9,1.34-13.15.34-4.52-1.1-9.64-3.2-13.09-6.4a.6.6,0,0,1,.15-1l.09-.11a2.2,2.2,0,0,0,.63-2.18c-.89,2-3.52,2.21-5.92,1.49a8.31,8.31,0,0,1-1.37-.6,14.77,14.77,0,0,0,1.86,2c2.19,1.23,1.89.44,1,4.14a14.84,14.84,0,0,0,1.23,9.06c.11.21.45,1-1,.47-3.46-1.26-4.32-2-7.4-4-2.92-1.89-6.11-5.44-6.91-9a11.17,11.17,0,0,1,1.58-8.9c3.11-4.61,9.65-4.94,14.06-2.26l.11.08c.3-5.55,2.29-14.75,8-15a5.73,5.73,0,0,0-1.17-.2c-5.71-.29-9,10.21-8.67,13.42,0,0-10.55-3.09-14.41,3.72S96.83,302.38,115,309.5Zm10.88-1c4.63-2.75,7.66-4.28,10.68-4.47a7.17,7.17,0,0,1,2,.25c.52,0-1.24,1.34-2.46,2.22-3,2.17-8.33,3.72-11.81,2.93C123.94,309.37,125.61,308.71,125.91,308.53Z" transform="translate(26.81 0.5)"/><path class="cls-29" d="M118,301.33c.65,2.37,2.24,4.53,4.9,4.4,2.14-.09,4.34-1.11,6.36-1.76a29.28,29.28,0,0,1,3.84-1.06,31.73,31.73,0,0,1-4.68-.81A19.76,19.76,0,0,1,116.83,295C117.4,297,117.38,299.24,118,301.33Z" transform="translate(26.81 0.5)"/><path class="cls-30" d="M128.38,302.1a31.73,31.73,0,0,0,4.68.81,29.28,29.28,0,0,0-3.84,1.06c-.62.2-1.25.43-1.9.66l-.06-.05c-1.38-1.63-2.92-3.11-5.17-3.21a4.28,4.28,0,0,0-3.63,1.34,8.42,8.42,0,0,1-.5-1.38c-.58-2.09-.56-4.3-1.13-6.38A19.76,19.76,0,0,0,128.38,302.1Z" transform="translate(26.81 0.5)"/><path class="cls-31" d="M120,301.59a10.13,10.13,0,0,1,4,4,7.75,7.75,0,0,1-1.15.12c-2.66.13-4.25-2-4.9-4.4-.06-.21-.12-.41-.16-.62A8,8,0,0,1,120,301.59Z" transform="translate(26.81 0.5)"/><path class="cls-32" d="M120,301.59c.19.1.37.22.54.33-.88-.1-1.71.41-1.25,1.4.63,1.39,2.7,2.8,4.23,2.15.16-.06.29,0,.17-.4.11.18.22.35.32.54a7.75,7.75,0,0,1-1.15.12c-2.66.13-4.25-2-4.9-4.4-.06-.21-.12-.41-.16-.62A8,8,0,0,1,120,301.59Z" transform="translate(26.81 0.5)"/><path class="cls-33" d="M127.57,303.9c-1.91.59-5-.42-6.58-1.37a7.67,7.67,0,0,1-3.48-3.45,32,32,0,0,0-.68-4.13,19.76,19.76,0,0,0,11.55,7.15l1.39.31A6.86,6.86,0,0,1,127.57,303.9Z" transform="translate(26.81 0.5)"/><g class="cls-34"><path class="cls-13" d="M122.05,288.67a2.3,2.3,0,0,1-1-.32c-1.73-1.07-2.3-4.41-1.29-7.48.82-2.5,2.44-4.05,3.94-4a2,2,0,0,1,1,.32c1.72,1.06,2.3,4.41,1.29,7.48-.82,2.5-2.44,4-3.93,4Zm1.76-12.91c-1.75-.09-3.71,1.59-4.64,4.41-1.15,3.49-.25,7.41,1.66,8.59a2.41,2.41,0,0,0,1.1.35c1.69.09,3.51-1.68,4.45-4.52,1.14-3.49.51-7.28-1.4-8.46a2.67,2.67,0,0,0-1.17-.37Z" transform="translate(26.81 0.5)"/><path class="cls-35" d="M119.74,280.87c-1,3.07-.44,6.41,1.29,7.48s3.94-.57,5-3.64.43-6.42-1.29-7.48-3.94.56-5,3.64Z" transform="translate(26.81 0.5)"/><path class="cls-36" d="M120.08,281.33c-.91,2.78-.38,5.8,1.18,6.76s3.56-.51,4.47-3.28.38-5.81-1.17-6.76-3.57.5-4.48,3.28Z" transform="translate(26.81 0.5)"/><path class="cls-33" d="M124.75,284.79c-.8,2.18-2.42,3.24-3.62,2.36s-1.54-3.35-.75-5.52,2.41-3.24,3.63-2.36,1.53,3.35.74,5.52Z" transform="translate(26.81 0.5)"/><path class="cls-37" d="M121.77,286.16c-.63-.15-1.1-1-1.15-2.07-.05-1.42.61-2.79,1.47-3.08a.93.93,0,0,1,.52,0c.62.16,1.1,1,1.14,2.07.07,1.42-.59,2.8-1.46,3.08a.93.93,0,0,1-.52,0Zm1.09-6.16a1.26,1.26,0,0,0-.69,0c-1.13.38-2,2.18-1.92,4,.06,1.46.68,2.52,1.5,2.72a1.27,1.27,0,0,0,.69,0c1.13-.37,2-2.18,1.92-4-.06-1.46-.68-2.51-1.5-2.71Z" transform="translate(26.81 0.5)"/><path class="cls-38" d="M121.71,286c-.45-.11-.78-.67-.82-1.47a2.23,2.23,0,0,1,1-2.19.68.68,0,0,1,.37,0c.44.11.78.68.82,1.48a2.22,2.22,0,0,1-1,2.18.59.59,0,0,1-.37,0Zm.9-5a.93.93,0,0,0-.52,0c-.86.29-1.52,1.66-1.47,3.08,0,1.11.52,1.92,1.15,2.07a.93.93,0,0,0,.52,0c.87-.28,1.53-1.66,1.46-3.08,0-1.11-.52-1.91-1.14-2.07Z" transform="translate(26.81 0.5)"/><path class="cls-39" d="M122.31,282.34a.68.68,0,0,0-.37,0,2.23,2.23,0,0,0-1,2.19c0,.8.37,1.36.82,1.47a.59.59,0,0,0,.37,0,2.22,2.22,0,0,0,1-2.18c0-.8-.38-1.37-.82-1.48Z" transform="translate(26.81 0.5)"/><path class="cls-36" d="M122.72,282.26c.1.48.42.73.73.54a1.26,1.26,0,0,0,.4-1.24c-.09-.48-.42-.73-.73-.54A1.3,1.3,0,0,0,122.72,282.26Z" transform="translate(26.81 0.5)"/><path class="cls-36" d="M121,285.73c0,.24.2.36.35.27a.61.61,0,0,0,.19-.6c-.05-.24-.2-.35-.35-.27A.63.63,0,0,0,121,285.73Z" transform="translate(26.81 0.5)"/></g><path class="cls-13" d="M135.72,290.87a1.47,1.47,0,0,1-.79-.15c-1.39-.64-2.07-3.24-1.54-5.79.43-2.08,1.54-3.49,2.68-3.59a1.57,1.57,0,0,1,.79.13c1.39.66,2.08,3.25,1.54,5.81-.43,2.07-1.54,3.48-2.68,3.59Zm.36-10.45c-1.32.12-2.69,1.67-3.18,4-.6,2.9.36,5.9,1.9,6.63a1.55,1.55,0,0,0,.86.15c1.29-.11,2.54-1.72,3-4.09.61-2.9-.15-5.83-1.7-6.56a1.77,1.77,0,0,0-.91-.15Z" transform="translate(26.81 0.5)"/><path class="cls-35" d="M133.39,284.93c-.53,2.55.15,5.15,1.54,5.79s2.94-.89,3.47-3.44-.15-5.15-1.54-5.81-2.94.9-3.47,3.46Z" transform="translate(26.81 0.5)"/><path class="cls-36" d="M133.69,285.25c-.48,2.31.13,4.66,1.39,5.25s2.66-.81,3.14-3.12-.15-4.66-1.39-5.24-2.66.81-3.14,3.11Z" transform="translate(26.81 0.5)"/><path class="cls-33" d="M137.47,287.48c-.44,1.82-1.58,2.84-2.56,2.28s-1.42-2.48-1-4.3,1.59-2.84,2.57-2.28,1.41,2.48,1,4.3Z" transform="translate(26.81 0.5)"/><path class="cls-37" d="M135.32,288.9c-.48,0-.9-.63-1-1.52a2.66,2.66,0,0,1,.88-2.6.63.63,0,0,1,.4-.08c.47,0,.9.63,1,1.51a2.7,2.7,0,0,1-.88,2.61.62.62,0,0,1-.39.08Zm.37-5a.86.86,0,0,0-.53.1c-.82.42-1.34,2-1.15,3.41.16,1.16.71,1.94,1.34,2a.93.93,0,0,0,.53-.1c.82-.42,1.33-2,1.15-3.41-.16-1.16-.71-1.93-1.34-2Z" transform="translate(26.81 0.5)"/><path class="cls-38" d="M135.26,288.8c-.34,0-.64-.45-.73-1.08a1.91,1.91,0,0,1,.64-1.85.45.45,0,0,1,.27-.06c.35,0,.65.46.73,1.08a1.92,1.92,0,0,1-.62,1.85.52.52,0,0,1-.29.06Zm.32-4.1a.63.63,0,0,0-.4.08,2.66,2.66,0,0,0-.88,2.6c.12.89.54,1.47,1,1.52a.62.62,0,0,0,.39-.08,2.7,2.7,0,0,0,.88-2.61c-.11-.88-.54-1.47-1-1.51Z" transform="translate(26.81 0.5)"/><path class="cls-39" d="M135.44,285.81a.45.45,0,0,0-.27.06,1.91,1.91,0,0,0-.64,1.85c.09.63.39,1,.73,1.08a.52.52,0,0,0,.29-.06,1.92,1.92,0,0,0,.62-1.85c-.08-.62-.38-1-.73-1.08Z" transform="translate(26.81 0.5)"/><path class="cls-36" d="M135.76,285.7c.09.37.36.53.58.35a1.08,1.08,0,0,0,.2-1c-.1-.38-.35-.54-.58-.35A1,1,0,0,0,135.76,285.7Z" transform="translate(26.81 0.5)"/><path class="cls-36" d="M134.68,288.65c0,.19.17.26.28.18a.53.53,0,0,0,.11-.5c0-.19-.18-.26-.28-.17A.51.51,0,0,0,134.68,288.65Z" transform="translate(26.81 0.5)"/><path class="cls-40" d="M118.17,285.74c2.25-1,3.24,2,3.35,3.69,0,0,0,0,0,0a6,6,0,0,0-1-2.37,3.18,3.18,0,0,0-2.31-1.18C118.1,285.87,118.11,285.77,118.17,285.74Z" transform="translate(26.81 0.5)"/><path class="cls-13" d="M138.28,296c.15-.71.07-1.24-.62-1.08a2.67,2.67,0,0,0-1.18.81,7.34,7.34,0,0,0-.51.6,2.71,2.71,0,0,0-.47.59,7.9,7.9,0,0,1,1-1.7,2.58,2.58,0,0,1,1.3-1.07.82.82,0,0,1,1,.84,3.93,3.93,0,0,1-.51,1.76,14.36,14.36,0,0,1-.91,1.53A12.1,12.1,0,0,0,138.28,296Z" transform="translate(26.81 0.5)"/><path class="cls-13" d="M131.66,293c-1.42.25-1.86.83-3.07,1.93a9.91,9.91,0,0,1,1.54-2,3.24,3.24,0,0,1,1.63-1,1.52,1.52,0,0,1,1.05.22c1.11.82.35,2.47-.86,3.91C132.71,294.42,133.27,292.7,131.66,293Z" transform="translate(26.81 0.5)"/><path class="cls-41" d="M131.44,295.89c0,.05-.07.07-.09,0h0c-.12-.05-.2-.11-.35-.05a.27.27,0,0,0-.1.06,2,2,0,0,1-.94.94c-.52.24-.65-.31-.46-.78C129.85,295.09,131.52,294.63,131.44,295.89Z" transform="translate(26.81 0.5)"/><path class="cls-41" d="M137.44,296.49a1.66,1.66,0,0,1,.1.59.28.28,0,0,0-.18.06.39.39,0,0,0-.08.1,2.22,2.22,0,0,1-.69,1.18c-.45.38-.65.05-.59-.48C136.1,297.15,136.91,296.34,137.44,296.49Z" transform="translate(26.81 0.5)"/><path class="cls-40" d="M136.43,297a1.57,1.57,0,0,1,.77-.64c.3-.06.36.31.36.59,0,0,0,0,0,0-.1-.69-.64-.08-.87.24a3,3,0,0,0-.4.67.48.48,0,0,0-.07.24c0,.07.1.07.13.09a.09.09,0,0,1,0,.14c-.21.18-.37-.11-.34-.33A2,2,0,0,1,136.43,297Z" transform="translate(26.81 0.5)"/><path class="cls-40" d="M129.74,295.65c.4-.45,1.24-.91,1.48-.28,0,.05,0,.09-.07.06-.35-.29-.75,0-1.11.36-.17.17-.68.73-.39.9.06,0,0,.17-.06.19C128.9,297,129.5,295.92,129.74,295.65Z" transform="translate(26.81 0.5)"/><path class="cls-41" d="M135.91,296.15c.48-.59,1.46-1.85,2.18-1.68.93.22.29,1.52,0,2.25,0,0,0,0,0,0a9.09,9.09,0,0,0,.25-1.06c.07-.59-.27-.85-.7-.69a7.25,7.25,0,0,0-1.68,1.29C135.91,296.29,135.87,296.21,135.91,296.15Z" transform="translate(26.81 0.5)"/><path class="cls-41" d="M132.56,292.87c1,.6,0,2.28-.6,3.09,0,0,0,0,0,0,.61-1,1.34-2.88-.16-2.84a5.62,5.62,0,0,0-2.43,1.09c-.06,0-.1-.07-.05-.11C130.14,293.22,131.67,292.34,132.56,292.87Z" transform="translate(26.81 0.5)"/><path class="cls-27" d="M131.62,293.34a.71.71,0,0,1,.72.15.7.7,0,0,1,.07.8c-.1.14-.24.18-.33.09s-.1-.18-.23-.19a2.24,2.24,0,0,0-.52.06c-.36.06-.7.23-1.06.31-.08,0-.11-.08-.08-.16A2.65,2.65,0,0,1,131.62,293.34Z" transform="translate(26.81 0.5)"/><path class="cls-27" d="M138.07,295.57v0C138.1,295.5,138.11,295.47,138.07,295.57Z" transform="translate(26.81 0.5)"/><path class="cls-27" d="M137,295.34a.72.72,0,0,1,1-.25.46.46,0,0,1,0,.46l0,.1c0,.05-.23.25,0,0a.29.29,0,0,1-.3.12c-.12,0-.38.13-.59.14s-.25.16-.34.24-.17.11-.24.17-.13,0-.11-.09C136.5,295.86,136.82,295.63,137,295.34Z" transform="translate(26.81 0.5)"/><path class="cls-40" d="M112.94,293a5.2,5.2,0,0,0,3,.64c.19.33.39.63.59.93a.1.1,0,0,0,0,.12c.48,2.39.43,4.91,1.23,7.25.61,1.81,1.88,3.86,3.94,4.16s4.42-.66,6.43-1.33a64.29,64.29,0,0,1,6.57-1.74,18.86,18.86,0,0,0,8.49-1.38.06.06,0,1,0,0-.12,28.47,28.47,0,0,1-14.69.2c-4.93-1.24-9.38-3.74-12.06-8.19a2.86,2.86,0,0,0,1.63-1.37c0-.06-.06-.12-.1-.06-1.31,1.53-3.18,1.26-4.91.71C112.89,292.78,112.84,293,112.94,293Zm3.89,1.95a19.76,19.76,0,0,0,11.55,7.15,31.73,31.73,0,0,0,4.68.81,29.28,29.28,0,0,0-3.84,1.06c-2,.65-4.22,1.67-6.36,1.76-2.66.13-4.25-2-4.9-4.4C117.38,299.24,117.4,297,116.83,295Z" transform="translate(26.81 0.5)"/><path class="cls-40" d="M115.47,303.8a5.29,5.29,0,0,0,3.93,4.49c1.93.45,3.92-.27,5.65-1.1.06,0,.11.07,0,.1a8.21,8.21,0,0,1-6.23,1.34,5.2,5.2,0,0,1-3.56-4.82C115.31,303.72,115.45,303.71,115.47,303.8Z" transform="translate(26.81 0.5)"/><path class="cls-40" d="M137.7,278.14a3.4,3.4,0,0,1,1.14,3.08.2.2,0,0,1-.39,0,11.59,11.59,0,0,0-.83-1.74,1.37,1.37,0,0,0-2.12.21c-.24.32-.44.11-.22-.63a1.77,1.77,0,0,1,1.39-1.26A1.44,1.44,0,0,1,137.7,278.14Z" transform="translate(26.81 0.5)"/><path class="cls-40" d="M122.89,275.07c.34-.92,1.49-2,2.51-1.59a3.35,3.35,0,0,1,1.63,3.3.38.38,0,0,1,0,.1c0,.1-.12.12-.19.07a.81.81,0,0,1-.26-.42,2.63,2.63,0,0,0-.8-1.29c-.93-.74-1.81-.21-2.67.35-.19.11-.47-.09-.35-.31Z" transform="translate(26.81 0.5)"/><path class="cls-36" d="M127.88,302.3a25.15,25.15,0,0,1-8.63-4.16c-.77-.58-1.13,1.82.39,3a11.74,11.74,0,0,0,6.69,2.56C128.7,303.66,129.16,302.5,127.88,302.3Z" transform="translate(26.81 0.5)"/><path class="cls-10" d="M98.17,266.24c1.11.22,2.27-.56,3.4-.41a12.86,12.86,0,0,1,7.16,3.57c1.71,1.3,2.43,1.63,4.75-.88,1.94-2.11,4.45-4.09,6.81-4.22,2.66-.14,4.75,1.15,6.54,2.91,2,2,3.12,2.4,5.44.59,1.8-1.4,4,.5,5.72,2.69a11.1,11.1,0,0,0,1.21,1.26c.42.24.82-.16.83-.57a3.42,3.42,0,0,0-.46-1.54,10.76,10.76,0,0,0,4.76,1.89.14.14,0,1,0,0-.27c-3.45-1.09-3.92-2.17-5.89-5a11.56,11.56,0,0,0,5.35,1.76c.11,0,1.5,0,1.41,0-2.87-.63-4.89-2.15-7.18-3.89a59.33,59.33,0,0,0-6.18-4,32.36,32.36,0,0,0-12.8-4.28,45.86,45.86,0,0,0-6.42-.3c-3.81.13-8,.9-11.09,3.22a14.83,14.83,0,0,0-4,4.21h0C97,264.1,96.58,266,98.17,266.24Z" transform="translate(26.81 0.5)"/><path class="cls-11" d="M115.85,299.59c.57,3.49,3.21,8.06,7.47,7.22.2,0,.35.2.18.33-1.92,1.45-4.27.8-6-.79-1.85-1.74-2.3-4.48-2.18-6.8C115.39,299.27,115.81,299.33,115.85,299.59Z" transform="translate(26.81 0.5)"/></g></g></svg>