<?xml version="1.0" encoding="utf-8"?>
<!-- Generator: Adobe Illustrator 25.0.1, SVG Export Plug-In . SVG Version: 6.00 Build 0)  -->
<svg version="1.1" id="Layer_1" xmlns="http://www.w3.org/2000/svg" xmlns:xlink="http://www.w3.org/1999/xlink" x="0px" y="0px"
	 viewBox="0 0 1900 700" style="enable-background:new 0 0 1900 700;" xml:space="preserve">
<style type="text/css">
	.st0{fill:#0D081E;stroke:#0D081E;stroke-miterlimit:10;}
	.st1{fill:#FFFFFF;}
	.st2{fill:#060015;}
	.st3{fill:#0D081E;}
</style>
<path class="st0" d="M0,700h1900c0,0-230.4-671.7-847.7-416.5C429.1,541.2,303.1,0,303.1,0H0V700z"/>
<path class="st1" d="M146.8,274c0.2-1.6,0.5-3.5-1.6-5c-0.2-0.2-0.8-0.4-1.3-0.6c-2.3-0.7-4,0.7-5.2,2.5c0.3-2.1,0.5-4.7,0-7.3
	c0,0,0,0,0.1,0l0,0c0,0,0.1,0,0.1,0.1h0.1c0,0,0.1,0.1,0.2,0.1c0,0,0.1,0,0.1,0.1c0.1,0,0.1,0.1,0.2,0.1c0.1,0,0.1,0,0.2,0.1
	c0.1,0,0.1,0.1,0.2,0.1c0.1,0,0.1,0.1,0.2,0.1s0.2,0.1,0.2,0.1c0.1,0,0.2,0,0.2,0.1c0.1,0,0.2,0,0.2,0.1c0.1,0,0.2,0,0.2,0.1
	c0.1,0,0.2,0,0.2,0.1c0.1,0,0.2,0,0.2,0c0.1,0,0.2,0,0.2,0c0.1,0,0.2,0,0.2,0c0.1,0,0.2,0,0.2,0h0.2h0.2l0.2-0.1l0.2-0.1
	c0.1,0,0.2-0.1,0.2-0.1c0.1,0,0.2-0.1,0.2-0.2c0.1-0.1,0.2-0.1,0.2-0.2c0-0.1,0.2-0.1,0.2-0.2c0-0.1,0.2-0.2,0.2-0.2
	c0.1-0.1,0.2-0.2,0.2-0.2c0.1-0.1,0.2-0.2,0.2-0.3c0.1-0.1,0.1-0.1,0.2-0.2l0,0c0.1-0.1,0.2-0.2,0.2-0.3c0,0-2.2,1.6-4.4-1.2
	c0,0,0.8,0.2,1.7-0.2l0,0c0,0,0.1,0,0.1-0.1c0,0,0.1,0,0.1-0.1c0.1,0,0.2-0.1,0.2-0.1c0.1,0,0.1-0.1,0.2-0.1c0.1,0,0.1-0.1,0.2-0.1
	c0.1-0.1,0.1-0.1,0.2-0.2c0.1,0,0.1-0.1,0.2-0.2c0.1-0.1,0.2-0.1,0.2-0.2c0,0,0.1-0.1,0.1-0.2c0.2-0.2,0.3-0.4,0.4-0.6
	c0,0,0-0.1,0.1-0.1c0-0.1,0.1-0.2,0.1-0.2c0.1-0.1,0.1-0.2,0.2-0.3c0-0.1,0.1-0.1,0.1-0.2c0.1-0.1,0.1-0.2,0.2-0.4l0,0
	c0-0.1,0-0.1,0.1-0.2c0,0-0.7,1.1-2.7,0.7c-2-0.3-4.4-1.9-9.4-5.9c-4.8-3.9-16.6-8.7-26.3-3.4c-0.2-0.6-0.7-1-1.3-1.2
	c-0.6-0.2-1.2,0-1.7,0.3c-0.8,0.7-1.4,1.7-1.7,2.5c0.1-5.1,0.3-9.8,0.9-14.2c0.1-0.4,0.2-0.9,0.2-1.3c0.6-0.1,3.2-0.6,4.1-2.2
	c0.3-0.6,0.4-1.2,0.2-1.8c-0.2-0.5-0.6-0.9-1.1-1c-0.5-0.2-1.1,0.1-1.5,0.5c-0.5,0.5-0.9,1.3-1.2,2.1c0.9-5.3,2.4-10.3,4.3-14.8
	c3.9-9,6.9-11.8,9.4-13.4c0.2-0.1,0.2-0.3,0.2-0.5s-0.2-0.3-0.3-0.4c-0.1,0-0.1,0-0.2,0c-3.7,0.7-6.6,4.4-8,6.6
	c-1.6,2.5-3,5.3-4.4,8.6c0-0.3-0.1-0.7-0.1-0.9c-0.2-0.9-0.7-1.6-1.6-1.8c-0.6-0.2-1.2,0-1.6,0.4c-0.6,0.4-0.9,1.1-1,2
	c-0.2,2.1,1.7,4.4,2.5,5.3c-1.2,4.1-2.1,8.3-2.5,12.5c-0.1-0.3-0.2-0.7-0.2-1c-0.3-0.7-0.8-1.2-1.5-1.4s-1.3,0-1.8,0.5
	c-0.6,0.5-0.8,1.3-0.7,2.2c0.2,2.5,3.3,4.7,3.8,5c-0.3,4.1-0.4,8.2-0.4,12.2c-0.2-0.6-0.4-1.2-0.7-1.6c-0.2-0.4-0.7-0.7-1.1-0.8
	c-0.6-0.2-1.2,0.1-1.6,0.6c-0.5,0.6-0.6,1.3-0.3,2.1c0.5,1.7,2.5,2.8,3.5,3.2c0,0,0,0.1-0.1,0.1c-0.1,0.2-0.2,0.4-0.3,0.7
	c-0.2,0.2-0.2,0.5-0.4,0.7c-0.1,0.2-0.2,0.4-0.3,0.7c-0.1,0.2-0.2,0.6-0.3,0.8c-0.1,0.2-0.2,0.4-0.2,0.7c-0.1,0.2-0.2,0.6-0.3,0.8
	c-0.1,0.2-0.2,0.4-0.2,0.7c-0.1,0.3-0.2,0.6-0.2,0.9c-0.1,0.2-0.1,0.4-0.2,0.7c-0.1,0.3-0.2,0.7-0.2,1c0,0.2-0.1,0.4-0.1,0.7
	c-0.1,0.3-0.1,0.7-0.1,1c0,0.2-0.1,0.4-0.1,0.6c0,0.4,0,0.7,0,1.2c0,0.2,0,0.3,0,0.5c0,0.6,0.1,1.1,0.2,1.6c0.4,3.1,1.6,6.2,3.3,9
	c-0.2-0.2-0.4-0.2-0.7-0.3c-0.6-0.2-1.2,0.1-1.6,0.6c-0.5,0.6-0.6,1.4-0.3,2.2c0.7,2.2,4,3.3,4.2,3.3h0.1c0.2,2.4,0.5,4.8,0.7,7.2
	c-1,1.2-1.4,1.8-2.5,2.2c-1.5,0.6-3.8-1.2-5.3-2.7s-1.7-3.1-1.7-3.1s-0.2,0.2-0.4,0.6c-0.1-0.2-0.2-0.4-0.2-0.7
	c0-0.2-0.1-0.2-0.1-0.4c0-0.2-0.1-0.2-0.1-0.4c-0.2-1.1-0.5-1.9-1.6-3.4c-0.1-0.2-1-1.6-1.5-2.4c-0.1-0.2-0.2-0.4-0.2-0.6
	c-0.2-0.6-0.6-1.2-1.9-2.2c-1.1-0.8-1.9-1.3-2.6-1.5c-0.7-0.2-1.3-0.1-1.7,0.4c-0.2,0.2-0.2,0.4-0.2,0.6c0.1,0.5,0.5,0.9,1.3,1.3
	c0.7,0.4,1.5,1,2.1,1.6c0.1,0.1,0.2,0.2,0.3,0.5c-0.3-0.3-0.7-0.7-1.1-0.9c-0.8-0.7-1.9-1.4-2.7-1.6c-0.1,0-0.2,0-0.2-0.1
	c-0.7-0.1-1.5,0.2-1.8,0.6c-0.2,0.2-0.2,0.5-0.2,0.7c0.1,0.8,0.9,1,1.2,1.1c0.2,0.1,0.4,0.1,0.7,0.1h0.1c0.4,0.1,1,0.6,1.5,1.1
	c-0.5-0.2-1.2-0.4-1.5-0.5c-0.2,0-0.2-0.1-0.3-0.1c-0.4-0.1-1.5,0.2-2,0.7c-0.2,0.3-0.3,0.7-0.2,1.2c0.1,0.4,0.9,0.7,1.5,0.9h0.1
	c0.2,0,0.3,0.1,0.6,0.1c0.2,0.1,0.4,0.1,0.7,0.2c-0.6,0.2-1.2,0.6-1.5,0.7c-0.2,0.2-0.5,0.5-0.6,0.8c-0.1,0.2,0,0.6,0.2,0.8
	c0.1,0.2,0.3,0.3,0.6,0.4c0.4,0.1,1,0,1.5-0.1c0.7-0.2,1.4-0.2,2,0c0.1,0,0.2,0,0.2,0.1c0.4,0.2,0.4,0.2,0.5,0.7
	c0,0.2,0,0.2,0.1,0.5c0,0.1,0,0.2,0.1,0.2c0.2,0.8,0.4,2.2,1.5,3c0.2,0.2,0.6,0.3,0.9,0.4c0.8,0.2,1.6-0.1,2.1-0.2h-0.6l0,0
	c0.2,0.1,0.8,0.4,1.6,1.3c0.7,0.8,4.5,4.4,7.6,5.3c-0.6,0.8-1,1.6-1.3,2.6c-0.7-0.7-1.2-1-1.3-1.1c-0.7-0.7-1.6-1.2-2.1-1.4
	c-1.5-0.4-3,1.6-4.3,3.5l0,0c-0.1,0.2-0.2,0.2-0.2,0.4c-0.1,0.2-0.2,0.2-0.2,0.4c0,0-0.3-0.2-0.8-0.6l0,0c-1.3-0.9-4.1-2.5-8.1-3.3
	c-5.5-1.2-7.2,0.1-9,0.1s-2.1-0.3-2.4-0.6c-0.2-0.2-0.5,1,0.9,1.6c0,0-0.5-0.1-0.8-0.1h-0.1c-0.1,0-0.2-0.1-0.3-0.1
	c-0.1,0-0.2-0.1-0.3-0.1h-0.2h-0.2c-0.4-0.1-0.8-0.2-1.2-0.4c-1.2-0.7-1.7-2.1-2.2-3.5l-0.1-0.2l-0.1-0.1c-0.3-0.9-0.7-2-1.4-2.7
	c0.2-1,0.2-2,0-2.8c-0.2-0.7-1-1.4-1.6-1.6c-0.2,0-0.2-0.1-0.4-0.1c-0.7,0-1.2,0.5-1.4,1.3c-0.4,0-0.7,0.2-0.8,0.5
	c-0.1,0.2-0.2,0.3-0.2,0.6c-0.2,0-0.5,0.1-0.7,0.2c-0.2,0.2-0.2,0.3-0.2,0.7c-0.2,0-0.3,0.1-0.4,0.2c-0.2,0.2-0.2,0.5-0.2,0.8
	c-0.2,0.1-0.3,0.2-0.4,0.3c-0.2,0.3-0.2,0.7,0,1.2c0.2,0.4,0.7,1,1.2,1.2c0,1.8,1.2,3.3,2.3,4.5c0.2,0.3,0.5,0.6,0.7,0.9
	c0.6,0.7,1,1.6,1.4,2.5c0.3,0.7,0.7,1.5,1.2,2.1c0.7,1.2,1.6,2,2.5,2.1c0.3,0.1,0.7,0.1,1.1,0c1-0.2,1.5-0.7,1.7-1.7
	c0.2-0.4,0.2-0.7,0.5-0.9c0,0.3,0.7-0.2,1.2-0.4c0.1,0,0.2,0,0.2-0.1c0,0.2-0.7,1,0,1.5c0,0,0.5-0.8,3-1.2c2.5-0.5,8.1-1.2,12.5,4.5
	c-0.2,0.2-0.4,0.4-0.6,0.6l0,0c-0.2,0.2-0.5,0.3-0.7,0.3c0,0,0,0,0.1,0.1l0,0c0,0,0,0,0.1,0c0,0,0.1,0.1,0.2,0.1l0,0
	c0.1,0,0.1,0,0.2,0c0,0,0,0,0.1,0c0,0,0,0,0.1,0c-0.1,0.1-0.2,0.2-0.3,0.2c-0.4,0.2-0.8,0.2-1.3,0.1c-0.4-0.1-0.9-0.3-1.4-0.7
	c-0.2-0.2-0.6-0.4-0.9-0.7c-0.7-0.5-1.5-1.1-2.3-1.3c-0.2-0.5-0.4-1.1-0.7-1.6c-0.2-0.2-0.6-0.7-1.2-0.8c-0.1,0-0.2-0.1-0.3,0
	c-0.3,0-0.7,0.2-0.8,0.6c-0.1-0.1-0.2-0.1-0.2-0.1c-0.5-0.2-1,0.1-1.2,0.4c-0.1,0.1-0.1,0.2-0.2,0.3c-0.5-0.1-0.9,0.2-1.1,0.6
	c-0.2,0.1-0.6,0.3-0.7,0.6c-0.1-0.1-0.2-0.1-0.3-0.2c-0.5-0.1-0.9,0.1-1.3,0.5c-0.5,0.6-0.7,1.4-0.5,2.1c0.3,1.2,1.2,2.1,2.2,2.5
	c0.2,0.1,0.2,0.1,0.4,0.1c0.2,0.1,0.5,0.1,0.7,0.1c0.7,1.5,2.9,2.1,4.4,2.6c0.3,0.1,0.6,0.2,0.8,0.2c1.6,0.6,3,1.2,4.6,2
	c0.7,0.3,1.5,0.7,2.2,0.9c0,0,0.1,0,0.1,0.1c0.3,0.2,0.7,0.2,1,0.3c1.2,0.3,2.4,0.2,3.1-0.4c0.5-0.4,0.7-0.9,0.8-1.6
	c0.1-0.7-0.1-1.5-0.2-2.1c0.4,0.6,1,1.2,1.6,1.8c0,0,2.8,3.3,8,4.4c-0.7,1.3-1.6,2.5-2.5,3.7c-2.1,2.6-4.9,4.7-6.9,6.2
	c-1.2,0.9-2.6,1.9-4.3,3c0.7-0.8,1.5-1.8,1.8-2.9c0.2-0.7,0.2-1.4-0.1-1.9c-0.2-0.5-0.7-0.9-1.3-1.1c-0.9-0.2-1.7,0.2-2.4,1.1
	c-1.3,1.9-0.6,5.4-0.4,6.3c-0.7,0.5-1.5,1.1-2.1,1.8c-0.5,0.6-1,1.3-1.5,2.1c-0.4,0.7-0.7,1.4-1.2,2.3c-0.3,0.9-0.7,1.8-0.8,2.9
	c-0.1-0.7-0.2-1.2-0.5-1.8c-0.2-0.5-0.7-0.8-1.2-1s-1.1,0-1.5,0.5s-0.7,1.2-0.5,1.9c0.3,1.9,2.7,3.3,3.3,3.6c0,2.8,0.8,5.3,2.3,7.1
	c0.5,0.6,1.9,2.1,3.6,2.5c0.7,0.2,1.2,0.2,1.8,0c1.8-0.6,3-2.3,3.1-4.3c0-1.7-0.7-2.9-1.8-3.2c-0.3-0.1-0.7-0.1-1.2,0
	c-0.7,0.2-1.6,0.9-1.8,1.7c-0.2,0.5-0.1,1,0.1,1.4c0.1,0.7,0.5,1.2,1.1,1.3c0.1,0,0.2,0,0.3,0c0.4,0.1,0.8-0.1,1.1-0.5
	c0.1-0.2,0.2-0.3,0.2-0.5c0,0.2-0.1,0.4-0.2,0.6c-0.4,1.1-1.3,1.5-2.3,1.2c-0.3-0.1-0.7-0.2-0.9-0.4c-3.1-2.2-3.2-6.2-2.7-9.3
	c0.2-0.9,0.4-1.7,0.7-2.5c0.1,0,0.2,0.1,0.2,0.1c1.1,0.2,3.5,0.7,4.8-0.2c0.5-0.4,0.7-1,0.7-1.6c-0.2-0.7-0.8-1.4-1.6-1.6
	c-0.3-0.1-0.7-0.1-1.1,0c-0.6,0.2-1.2,0.6-1.6,1c2-2.6,5-4.4,7.9-6.2c1.6-1,3.2-1.9,4.6-3c3.8-3,6.7-6.4,8.5-10.2
	c1.6-0.1,3.2-0.3,5-0.9c-0.7,1.9-1.3,3.9-1.4,5.8c-0.2,3.5,0.4,6.9,2.3,9.9c3.5,5.7,11.5,5.5,16.4,2.5c0.3-0.2,0.6-0.4,0.8-0.6
	c0.1-0.1,0.2-0.2,0.2-0.2c0.2-0.2,0.4-0.3,0.6-0.5c0.1-0.1,0.2-0.2,0.2-0.2c0.2-0.2,0.5-0.5,0.7-0.7l0.1-0.1
	c0.2-0.2,0.4-0.5,0.6-0.8c0.1-0.1,0.2-0.2,0.2-0.3c0.2-0.2,0.2-0.4,0.4-0.7c0.1-0.1,0.1-0.2,0.2-0.3c0.2-0.3,0.3-0.7,0.5-1l0,0
	c0.3-0.7,0.6-1.6,0.7-2.4c0.4-1.9,0.1-3.9-0.4-5.8c-0.3-1.5-0.7-3-1-4.4c-0.1-0.3-0.2-0.7-0.2-1.1c0-0.1,0-0.2,0-0.2
	c-0.1-0.4-0.1-0.8-0.2-1.2c-0.2-3.6,0.6-8.4,3.4-10.7c2.8-2.3,10.2-2.5,10.4,2.5c0.1,1.6-0.3,4.1-1.2,5.4c-0.7,1.1-1.7,2-3,1.8
	c-0.6-0.1-1.9-1.6-0.7-1.8c0.2,0,0.2-0.1,0.4-0.1c0,0,0.1,0,0.1-0.1c0.1-0.1,0.2-0.1,0.2-0.2c0,0,0.1,0,0.1-0.1
	c0.1-0.1,0.2-0.2,0.2-0.2l0,0c0.1-0.2,0.2-0.3,0.2-0.5c0-0.1,0-0.1,0-0.2c0.3-1.2-0.8-2-1.8-1.8c-0.5,0.1-1.1,0.3-1.6,0.7
	c-0.1,0.1-0.2,0.1-0.2,0.2c-0.1,0-0.1,0.1-0.2,0.1c-0.1,0.1-0.2,0.2-0.3,0.3l-0.1,0.1c-0.1,0.1-0.2,0.2-0.2,0.3c0,0,0,0.1-0.1,0.1
	c-0.1,0.2-0.2,0.2-0.2,0.4v0.1c-0.1,0.2-0.1,0.3-0.1,0.5c-0.2,2,0.7,3.2,2.1,4.3c3.1,2.5,6.7-0.9,7.9-3.9c0.2-0.3,0.2-0.6,0.3-0.9
	l0,0l0,0c1-3.2,0.3-6.9-2.1-9.2c-2.5-2.4-6.2-2.5-9.1-1.6c-1.5,0.4-2.7,1.2-3.8,2.3c0,0,0-0.1,0.1-0.1c-0.1,0.1-0.1,0.1-0.2,0.2
	c-0.2,0.2-0.5,0.6-0.7,0.9c0,0.1-0.1,0.1-0.2,0.2c-0.2,0.3-0.5,0.7-0.7,1.2c-0.1,0.1-0.1,0.2-0.2,0.2c-0.2,0.3-0.3,0.7-0.5,1.1
	c0,0.1-0.1,0.2-0.1,0.2c-0.2,0.4-0.3,0.9-0.5,1.3c0,0.1-0.1,0.2-0.1,0.2c-0.1,0.4-0.2,0.8-0.3,1.2c0,0.1-0.1,0.2-0.1,0.3
	c-0.1,0.5-0.2,0.9-0.2,1.4c0,0.1,0,0.1,0,0.2c-0.1,0.4-0.1,0.8-0.1,1.2c0,0.1,0,0.2,0,0.3c0,0.4,0,0.9,0,1.3c0.1,1.8,0.4,3.7,1,5.4
	c0.7,2.1,1.2,4.1,1.3,6.3c0,0.2,0,0.5,0,0.7c0,0.1,0,0.2-0.1,0.3c0,0.2-0.1,0.2-0.1,0.4c0,0.1-0.1,0.2-0.1,0.3s-0.1,0.2-0.1,0.3
	s-0.1,0.2-0.1,0.3c-0.1,0.1-0.1,0.2-0.2,0.3c-0.1,0.1-0.1,0.2-0.2,0.3c-0.1,0.2-0.2,0.2-0.2,0.4c0,0.1-0.1,0.2-0.1,0.2
	c-0.4,0.7-0.8,1.3-1.2,1.9c-2.8,3.6-8.3,4.3-12.1,2.1c-3.8-2.1-5-5.8-4.8-9.9l0,0c0-0.4,0.1-0.8,0.1-1.2c0-0.1,0-0.2,0-0.2
	c0.1-0.3,0.1-0.7,0.2-1c0-0.1,0-0.2,0.1-0.3c0.1-0.3,0.2-0.7,0.2-1c0-0.1,0-0.2,0.1-0.2c0.1-0.4,0.2-0.8,0.3-1.2
	c0.2-1,0.7-1.9,1-2.8c1.9-1.4,3.7-3.8,4.5-7.9c0.2,0.1,0.5,0.2,0.7,0.2c1,0.3,2.7,0.7,4.4,0.1c0.2-0.1,0.3-0.2,0.5-0.3l0,0l0,0
	c2-1.6,2.4-7.4,0.8-12.3c-0.5-1.5-1-2.9-1.6-4.1c5.6,1,13.1-0.1,18.1-7.9c0.6-0.2,4.3-1.7,5.8-5c0.6-1.3,0.8-2.1,0.7-2.6
	c-0.1-0.2-0.2-0.3-0.3-0.4c-0.3-0.2-0.9,0-1.4,0.2c-0.1-0.2-0.2-0.5-0.2-0.9C145.3,278.9,146.5,276,146.8,274z M105.4,287.9
	c-0.4,0.5-0.7,1.1-1.1,1.6c-0.1-1-0.2-1.9-0.3-2.9C104.5,286.9,104.9,287.4,105.4,287.9z M102.2,252.9c-0.1,0.1-0.2,0.2-0.2,0.2
	c-0.2,0.2-0.3,0.3-0.5,0.6l0,0c0-0.2,0-0.5,0-0.7C101.7,253,101.9,253,102.2,252.9z M100.3,282.1c0,0.2,0,0.4,0.1,0.6
	c-0.1-0.3-0.2-0.7-0.3-1C100.1,281.9,100.2,282,100.3,282.1z"/>
<path id="XMLID_11584_" class="st2" d="M-3.6,0h328.8c-7.2,27.7-32.4,69.4-36.5,81.2c-6.5,18.4-10.4,34.2-37.5,22.4
	C223.9,91.7,144,81.2,126.5,83.9S87,82.6,56,64.2C44.9,57.5,5.7,54.4-3.7,53C-3.5,39.5-3.6,13.5-3.6,0z"/>
<path class="st1" d="M144.9,153.1l41.7-66.2c0,0,3.3-2.8,1.3,1s-37.1,59.9-37.1,59.9L144.9,153.1z"/>
<g>
	<path class="st1" d="M860.4,507c0,0,0.8-3.5,2.7-5.8c1.9-2.4,2.9-3.6,3.4-3.1s0.2,1.8,0.4,2.2c0.1,0.5,1.1,0.4,1.9-0.2
		c0.8-0.7,1.9-1.7,3-1.8c1.2-0.1,2.1,0.4,2.3,0.2c0.2-0.1,0.8-0.2,1.1,0c0.2,0.2-0.9,0.5-1.3,1.3c-0.4,0.8-0.4,1.5-0.4,1.5
		s1.2-1.6,2.2-0.6s1.4,1.7,3,3c1.5,1.3,9.7,9.4,11.1,11.4s-0.9,0.7-1.8,0.1c-0.8-0.6-8.1-0.5-12.2-4.7c-1.5-1.6-5.7,0.9-7.4,0.3
		c-1.6-0.5-3.2-0.9-3.6-1c-0.5-0.1-3.3,3.8-3.9,5.7c-0.6,1.9-3.2-0.1-3.5-2.9c-0.5-2.8-0.1-3.3,0.2-3.3c0.5-0.1,2.6-0.6,3.8-1.3
		c1.2-0.7,0.5-1.2,0.2-1C861.4,507,860.6,507.6,860.4,507z"/>
	<path class="st1" d="M975,570.5c0,0,0.5-3,1.9-5.2c1.4-2.1,2.2-3.3,2.6-3c0.5,0.4,0.2,1.5,0.5,1.9c0.1,0.4,0.9,0.2,1.6-0.4
		c0.6-0.7,1.5-1.6,2.5-1.8c0.9-0.2,1.8,0.1,2,0s0.6-0.3,0.8-0.1s-0.8,0.5-1.1,1.2c-0.2,0.7-0.2,1.2-0.2,1.2s0.9-1.5,1.9-0.7
		c1.1,0.7,1.3,1.3,2.7,2.2c1.4,1,8.8,7,10.1,8.5c1.3,1.6-0.7,0.6-1.4,0.2s-6.8,0.4-10.6-2.9c-1.4-1.2-4.7,1.3-6.1,1
		s-2.8-0.4-3.2-0.5s-2.6,3.5-2.8,5.2c-0.4,1.6-2.6,0.2-3.2-2.1c-0.5-2.3-0.2-2.8,0.1-2.9c0.4-0.1,2.1-0.8,3-1.5s0.4-1,0.1-0.9
		C976,570.4,975.3,571,975,570.5z"/>
	<path class="st1" d="M814.5,544c0,0,0.2-2,1.3-3.5c0.9-1.5,1.5-2.2,1.8-2c0.2,0.3,0.2,1,0.2,1.3c0.1,0.2,0.6,0.2,1.1-0.2
		s1.1-1.1,1.6-1.2c0.6-0.1,1.2,0.1,1.4,0c0.1-0.1,0.5-0.2,0.6-0.1s-0.5,0.4-0.7,0.8c-0.1,0.5-0.1,0.9-0.1,0.9s0.6-1,1.3-0.5
		s0.8,0.9,1.9,1.5c0.9,0.7,5.9,4.7,6.8,5.8c0.8,1-0.5,0.4-1.1,0.1c-0.6-0.3-4.6,0.2-7.2-1.9c-0.9-0.8-3.2,0.9-4.1,0.7
		c-0.9-0.2-1.9-0.3-2.1-0.3c-0.2,0-1.8,2.4-1.9,3.5c-0.2,1.1-1.8,0.2-2.1-1.4s-0.2-1.9,0.1-1.9c0.2-0.1,1.5-0.5,2.1-1
		s0.2-0.7,0.1-0.5C815.1,543.8,814.7,544.2,814.5,544z"/>
	<path class="st1" d="M828.8,575.3c0,0,4.3-3.4,6.3-3.6c2-0.2,3.4-0.1,3.2,0.9s-0.6,3.9,0.1,4.9c0.6,1,0.6,1.6,1.5,0.4
		c0.9-1.2,1.3-3,2-2.2c0.7,0.9,0.4,1.9,1.2,1.6c0.8-0.3,0.8-0.3,1.2-0.3c0.4,0.1,0.6-0.2,1.1-0.3c0.4-0.1-0.5,0.5-0.6,0.8
		s-0.5,1.9-0.8,2.7c-0.5,0.7-0.6,1.6-0.6,1.6s0.7,2.2,1.8,5.3s1.5,4.7,0,3.1c-1.5-1.6-0.9-1.8-2.2-2.6c-1.4-0.9-2.3-2.1-2.6-2.8
		c0,0-2.5,1.6-3.5,1.3c-1.1-0.2-1.4,1.3-2.2,2.2c-0.9,0.9-2,1.2-3.4-0.6s-0.5-3.3-0.1-3.6c0.5-0.2,2.1-0.2,2.9-0.6
		c0.8-0.4,1.6-1.6,0.6-1.5c-1.1,0.2-2.2-2.9-1.9-3.8c0.5-1,1.3-3,0.2-3C831.8,575.1,829.4,576.1,828.8,575.3z"/>
	<path class="st1" d="M968.6,470.1c0,0,2-1.3,2.9-1.3c0.8,0,1.5,0.1,1.4,0.5s-0.4,1.7-0.1,2.2c0.2,0.5,0.2,0.7,0.6,0.2
		c0.5-0.5,0.6-1.3,0.9-0.9c0.2,0.4,0.1,0.9,0.5,0.8s0.4-0.1,0.5-0.1s0.2-0.1,0.5-0.1c0.1,0-0.2,0.2-0.2,0.3
		c-0.1,0.1-0.2,0.9-0.5,1.2c-0.2,0.3-0.4,0.7-0.4,0.7s0.2,1,0.6,2.4s0.6,2.1-0.1,1.3s-0.4-0.8-0.9-1.3c-0.6-0.5-1.1-1-1.1-1.3
		c0,0-1.2,0.6-1.5,0.4s-0.6,0.5-1.1,0.9c-0.5,0.3-0.9,0.4-1.4-0.4c-0.5-0.9-0.1-1.5,0.1-1.6c0.2-0.1,0.9,0,1.3-0.1
		c0.4-0.1,0.8-0.6,0.4-0.6c-0.5,0-0.9-1.3-0.7-1.8s0.6-1.2,0.1-1.3C969.9,470.2,968.7,470.5,968.6,470.1z"/>
	<path class="st1" d="M891,458.5c0-0.2-0.2-6.6-1.4-8.7s-5.4-8-7.6-11.1c-2.1-3-4.8-6-5.2-5.6c-0.5,0.4,2.2,3.9,2.3,6.3
		c0.1,2.3,0.7,4.8,1.2,6.6c0.5,1.8,1.9,3.2,1.8,4.7s0.1,4.4,1.3,8.9c1.2,4.4,1.9,7.3,2,9.5s0.1,3.1-1.8,2.6s-4.6-1.9-5.2-1.3
		c-0.6,0.5-0.9,5.6,0.6,7c1.5,1.5,5.2,1.9,6.7,1.7c1.5-0.2,0.8-3.8,1.5-3.9c0.8-0.1,3.9,0.3,7.6-1.9c3.8-2.3,4.2-4,4.6-4.3
		c0.5-0.4,0.8-0.8,0.5-0.9c-0.2,0-0.2,0.2-1.3-0.4c-0.9-0.7-2.2-0.7-2.8-0.7c-0.5,0.1-1.1-1,0.1-2.8s3.3-4.1,2.8-6.7
		s-1.2-7.5-1.8-9.7s-1.9-3.8-2.2-3.3c-0.5,0.5,0.7,2.2,0.2,4.9c-0.5,2.6-3,6.4-3.5,8.3C891.3,459.2,891,459.9,891,458.5z"/>
	<path class="st1" d="M870.3,562.3c0.4-0.2,1.4-0.9,2.1-0.9c0.7,0,1.1,0.2,1.4,0.5c0.4,0.2,0.6,0.3,0.8,0.3s0,0.2-0.4,0.4
		s-0.6,1.1-1.2,1.7c-0.6,0.6-2.1,3.5-3.5,4.3c-1.4,0.9-3.2,1.1-4.1,1.8s-1.8,2.6-2.2,2.7c-0.5,0.2-1.6-1.8-2.1-2.6
		c-0.5-0.7,0.8-1.5,1.6-1.5c0.8-0.1,1.8-1,1.3-1.3c-0.5-0.2-3.5-5.8-4-7.5s-1.2-8.1-2.1-10.1s-0.6-6.4-0.2-6.5
		c0.4-0.2,2.5,3.7,3.2,5c0.8,1.3,1.2,2.1,1.4,2.1c0.1,0.1,0.5-1,0.5-1.9c0-1-0.2-2.4,1.8,0.7c2,3.2,4.2,4.8,4.1,6.5
		c-0.1,1.7-0.1,3.2,0,4.4s0.4,2.4,0.4,2.4S870,562.6,870.3,562.3z"/>
	<path class="st1" d="M1057.2,563.4c0.2-0.2,1.1-0.7,1.6-0.7s0.8,0.2,1.1,0.4c0.2,0.2,0.5,0.2,0.6,0.2s0,0.2-0.2,0.3
		c-0.2,0.2-0.5,0.9-0.9,1.3c-0.5,0.4-1.5,2.6-2.6,3.3s-2.5,0.9-3.2,1.3c-0.7,0.5-1.4,1.9-1.8,2.1c-0.4,0.2-1.2-1.4-1.5-1.9
		c-0.2-0.5,0.6-1.1,1.2-1.2c0.6-0.1,1.4-0.8,1.1-1c-0.4-0.2-2.6-4.4-3-5.6c-0.5-1.3-0.8-6.1-1.5-7.7c-0.7-1.5-0.5-4.8-0.1-4.9
		c0.2-0.1,1.8,2.8,2.5,3.8c0.6,1,0.9,1.6,1.1,1.6s0.2-0.7,0.2-1.5s-0.1-1.8,1.4,0.5c1.5,2.4,3.2,3.6,3.2,4.9c-0.1,1.3-0.1,2.4,0,3.3
		c0.1,0.9,0.2,1.8,0.2,1.8S1057,563.6,1057.2,563.4z"/>
	<path class="st1" d="M1048.2,430.8c0.4-0.1,1.5-0.4,2.2-0.2s1.1,0.6,1.3,0.9s0.5,0.5,0.8,0.5c0.2,0.1-0.1,0.2-0.5,0.3
		c-0.4,0.1-0.8,0.9-1.5,1.3c-0.6,0.4-2.6,2.7-4.2,3.2c-1.5,0.4-3.4,0.1-4.3,0.4c-1.1,0.4-2.2,1.9-2.7,1.9c-0.5,0.1-1.2-2.3-1.5-3.1
		c-0.2-0.9,1.1-1.2,1.9-1s1.9-0.5,1.5-0.9c-0.5-0.4-2.2-6.7-2.5-8.4c-0.1-1.8,0.5-8.2,0-10.4c-0.5-2.2,0.7-6.3,1.1-6.4
		s1.5,4.3,2.1,5.8s0.8,2.4,0.9,2.5s0.6-0.8,0.8-1.8s0.2-2.4,1.5,1.3c1.3,3.7,3.2,6,2.7,7.5c-0.5,1.6-0.7,3-0.8,4.3
		c-0.1,1.2-0.1,2.4-0.1,2.4S1047.7,430.9,1048.2,430.8z"/>
	<path class="st1" d="M876.2,420.6c-0.1-0.1-0.2-0.2-0.5-0.4c-0.1-0.2-0.4-0.5-0.8-0.7c-0.5-0.2-1.3-0.1-1.5-0.1
		c-0.2,0.1-0.8-0.1-0.8-0.1s0.1-0.8,0.2-1.6c0.1-0.8,0.5-1.7,0.8-2.7c0.5-1-0.7-2.7-1.4-5.2c-0.6-2.6-0.8-1.6-1.1-1
		s-0.5,1.2-0.6,1.1s-0.2-0.7-0.5-1.7c-0.2-1.1-0.8-4.1-1.1-4.1s-1.3,2.6-1.1,4.1s-0.6,5.6-0.6,6.9s0.8,5.5,1.2,5.8
		c0.2,0.3-0.5,0.7-1.1,0.5s-1.4-0.1-1.3,0.5c0.1,0.5,0.5,2.2,0.8,2.2s1.2-0.9,1.9-1.1c0.7-0.1,1.9,0.2,2.9,0.1s2.5-1.5,3-1.7
		s0.8-0.7,1.1-0.7C876.1,420.8,876.3,420.7,876.2,420.6z"/>
	<path class="st1" d="M995.1,429.3c0,0,3.4-1.6,4.9-1.1s1.4,1.7,2,1.8c0.6,0.1,1.4,0.5,1.1,0.7c-0.5,0.2-1.1,0.2-1.4,0.7
		s-1.9,2.9-3,3.5c-1.2,0.7-1.9,0.8-1.5,1.4c0.5,0.6,2.5,3.6,4.5,3.9c2.1,0.3,4.3,0.7,5.2,2.7s1.5,7.3,2.3,10.8s1.6,13.7,1.4,17.1
		c-0.2,3.5-0.1,4.7-1.1,5.2c-0.9,0.5-4.1-4.3-4.6-7.6c-0.5-3.3-1.4-8.9-3.3-11.5c-1.9-2.5-9.8-9.4-11.6-10.8
		c-1.8-1.5-2.3-3.3-2.3-3.3s-2.5,1.1-3.9,1.6c-0.8,0.3-3.5,3.3-4,4.4c-0.5,1-0.8,1.6-1.5,1c-0.7-0.7-1.5-1.6-2.2-2.7
		c-0.6-1-1.8-3.2-0.9-3.6c0.7-0.4,1.9-0.7,3.3-1.4c1.3-0.6,2.5-1.8,3.5-3c0.9-1.2,1.5-2.7,1.5-2.9s-2.3-5.8-2.6-10.1
		c-0.2-4.4-1.8-9.7-2.2-10.9c-0.6-1.2-6.6-7.1-8.1-9.4c-1.6-2.3-3.8-4.9-0.7-4.7s11.1,3.8,14.2,6c3.2,2.1,6.1,3.6,6.1,6.4
		c0.1,2.8-0.8,6.6,0,9.2C990.5,425.2,993.1,429.5,995.1,429.3z"/>
	<path class="st1" d="M865.2,614.6c0,0,1.9-1.8,2.9-1.9c1.1,0,1.2,0.7,1.5,0.7s1.1,0,0.7,0.2c-0.2,0.2-0.6,0.4-0.7,0.7
		c-0.1,0.4-0.7,2.2-1.4,3s-1.1,1-0.7,1.2s2.1,1.6,3.4,1.4c1.4-0.3,2.8-0.6,3.6,0.5s2.1,4.3,3.2,6.2c1.1,1.9,3.2,8.1,3.5,10.3
		s0.6,3,0.1,3.5s-3.2-1.8-4.1-3.6s-2.2-5.2-3.9-6.4c-1.5-1.1-7.7-3.5-9-3.9c-1.3-0.5-2-1.5-2-1.5s-1.4,1.3-2.2,1.9
		c-0.5,0.4-1.8,3-1.9,3.7c-0.1,0.8-0.2,1.2-0.8,1s-1.2-0.7-1.8-1.2s-1.5-1.6-1.2-2.1c0.4-0.4,1.1-0.9,1.8-1.6
		c0.7-0.7,1.2-1.8,1.8-2.7c0.5-1,0.5-2.1,0.5-2.2s-2.3-3-3.2-5.7c-0.8-2.7-2.6-5.6-3-6.3c-0.5-0.6-5.2-2.9-6.6-3.9s-3-2.2-1.2-2.8
		s7.5-0.3,9.8,0.3c2.2,0.5,4.3,0.8,4.8,2.6s0.5,4.3,1.4,5.8C861.7,613.2,864,615.2,865.2,614.6z"/>
	<path class="st1" d="M921.9,590.9c0,0-0.1-2.6-3.4-5.2c-3.4-2.7-9-9.5-9.5-11.2s-2.2-4.6-2.3-5.3c-0.2-0.7-1.1,1.2-0.1,3.7
		s2.1,5.2,2.3,6.7c0.2,1.6,1.9,7.1,5.7,9.5s5.6,3.8,5.5,4.4c-0.2,0.6-1.1,1.4-1.9,1.1c-0.8-0.3-3.2-1.6-3.4-1s0.8,6.4,3.5,7.8
		c2.8,1.4,6,0.4,6.4-0.1c0.5-0.4-2-1.2-1.5-2.2c0.5-1.1,1.6-0.4,2.5-1.1c0.8-0.7,2.8-0.1,3.3,0s-0.2-0.6-0.2-0.6s4.2,0.9,5.9,1.3
		c1.6,0.4,6-0.1,7.2,0.5s11.4,0.6,11.8-0.4c0.2-0.6-1.5-0.3-3.2-0.3c-1.6,0-6.8-0.7-8.8-1.8s-4.7-2.6-6-2.9
		c-1.3-0.4-5.2,0.3-6.6,0.4c-1.5,0-2.3-0.1-2.3-0.1s-0.8-1.5-1.6-2.1C924.1,591.3,921.9,590.9,921.9,590.9z"/>
	<path class="st1" d="M909.7,441.9c0,0-0.1-1.4-1.9-2.9c-1.9-1.5-5-5.3-5.3-6.2c-0.2-1-1.2-2.6-1.4-2.9c-0.1-0.4-0.6,0.7-0.1,2.1
		s1.2,2.9,1.3,3.8s1.1,3.9,3.2,5.3c2.1,1.3,3.2,2.1,3,2.4c-0.1,0.4-0.6,0.8-1.1,0.6c-0.5-0.2-1.8-0.9-1.9-0.5s0.5,3.5,2,4.3
		s3.4,0.2,3.5,0c0.2-0.2-1.1-0.7-0.8-1.3c0.2-0.6,0.9-0.2,1.4-0.6s1.5-0.1,1.8,0c0.2,0.1-0.1-0.3-0.1-0.3s2.2,0.5,3.3,0.7
		c0.9,0.2,3.3,0,4,0.3c0.6,0.3,6.3,0.3,6.6-0.2c0.1-0.4-0.8-0.2-1.8-0.2s-3.8-0.4-4.8-1c-1.1-0.7-2.6-1.4-3.4-1.6
		c-0.7-0.2-2.8,0.2-3.8,0.2s-1.3-0.1-1.3-0.1s-0.5-0.9-0.9-1.2C911,442.2,909.7,441.9,909.7,441.9z"/>
	<path class="st1" d="M872.5,477.9c-0.5,0.1-2,0.1-2.6-0.1s-1.4-0.5-1.8-0.5c-0.4-0.1-1.4,0.4-1.9,0.4c-0.5,0.1-0.6,0.1-0.6,0.1
		s-0.2-0.4-0.5-0.5c-0.2-0.1-0.9-0.1-0.9-0.1s-0.1-0.7-1.2-1.3c-1.1-0.6-2.8-2.2-3-2.7s-0.8-1.2-0.8-1.4c-0.1-0.2-0.2,0.4,0.1,1.1
		c0.4,0.7,0.7,1.4,0.8,1.8s0.8,1.9,1.9,2.4c1.2,0.5,1.8,0.8,1.8,1s-0.2,0.4-0.5,0.4c-0.2-0.1-0.9-0.3-1.1-0.1
		c-0.1,0.2,0.5,1.8,1.3,2s1.8-0.2,1.9-0.3c0.1-0.1-0.6-0.2-0.5-0.5s0.5-0.2,0.6-0.4c0.2-0.2,0.8-0.2,0.9-0.2c0.1,0-0.1-0.2-0.1-0.2
		s1.2,0.1,1.8,0.1c0.5,0.1,1.8-0.3,2.1-0.2s3.3-0.4,3.4-0.7C873.4,477.7,872.9,477.9,872.5,477.9z"/>
	<path class="st1" d="M1060.5,470.7c-1.4-0.3-5.5-1.7-6.9-3s-3.5-2.9-4.6-3.3c-0.9-0.5-4.2-0.6-5.4-0.9c-1.2-0.2-1.9-0.5-1.9-0.5
		s-0.5-1.3-1.1-2c-0.6-0.6-2.5-1.3-2.5-1.3s0.2-2.1-2.2-4.8c-2.5-2.7-6.2-9.2-6.4-10.7c-0.2-1.5-1.3-4.1-1.4-4.7
		c-0.1-0.7-0.9,0.8-0.5,3s1.1,4.6,1.2,5.9s0.8,6.1,3.6,8.7c2.8,2.6,4.2,4,3.9,4.4c-0.2,0.5-1.1,1-1.8,0.5c-0.7-0.4-2.5-1.8-2.6-1.4
		c-0.2,0.4-0.1,5.3,2.1,6.9c2.1,1.6,4.8,1.3,5.2,1c0.5-0.2-1.5-1.3-0.9-2.1s1.4-0.1,2.1-0.5s2.2,0.4,2.6,0.5
		c0.5,0.1-0.1-0.5-0.1-0.5s3.3,1.4,4.6,2c1.4,0.6,4.8,1,5.7,1.6c0.9,0.7,9.1,2.4,9.7,1.7C1063.3,471.1,1061.7,471,1060.5,470.7z"/>
	<path class="st1" d="M980.4,501.9c0,0-3.9-4.2-4.6-8c-0.7-3.8-2.1-7.9-4.2-9.5c-2.1-1.7-7.5-6.7-11-8.4c-3.5-1.7-3.8-0.4-2.1,1.2
		c3.4,3.5,3.9,6.3,4.6,9.4c0.6,3,1.3,11.2,4.3,15s5.4,6,5.4,7.5c0.1,1.5-0.9,2.1-0.9,2.1s-3.5,2-4.6,2.1s-1.2,1.3-0.4,4.3
		s2.2,4.4,4.8,3.9c2.5-0.5,2.2,0.2,2.7-2.1c0.5-2.2-0.2-3.6,0.9-4.3s2-1.5,2.9-1c1.1,0.5,8.2,8.7,11.7,9.4s3.2,0,5.2,1.5
		c2.1,1.5,6,8,7.3,7.4s-1.5-5.6-3.4-9.5s-4.7-9.5-6.2-10.3c-1.5-0.9-7.2-2.4-7.9-4.5c0,0,0.6-1.1,1.5-1.5s1.8-0.2,2.6-0.8
		s1.9-0.4,1.9-0.4s-0.6-0.8-1.2-0.9c-0.6-0.1-1.4-3-3.9-2.7c-2.5,0.2-3.3,0.5-4,0.5C981.6,502.4,980.4,501.9,980.4,501.9z"/>
	<path class="st1" d="M790.2,484.7c0,0-2.3-2.6-2.8-5s-1.3-4.9-2.6-6c-1.3-1-4.7-4.2-6.8-5.2c-2.2-1-2.3-0.2-1.4,0.8
		c2.1,2.1,2.5,3.9,2.8,5.8c0.5,1.9,0.8,7,2.7,9.4c1.9,2.3,3.4,3.7,3.4,4.7c0.1,1-0.6,1.3-0.6,1.3s-2.2,1.2-2.8,1.3
		c-0.6,0.1-0.8,0.8-0.2,2.7c0.6,1.9,1.4,2.8,3,2.5c1.5-0.3,1.4,0.1,1.8-1.3s-0.1-2.2,0.6-2.7c0.7-0.4,1.2-0.9,1.9-0.6
		c0.6,0.3,5.2,5.5,7.4,5.9s2,0,3.3,1s3.8,5,4.6,4.6s-0.9-3.5-2.1-6c-1.2-2.5-2.9-5.9-3.9-6.4c-0.9-0.5-4.5-1.5-4.8-2.8
		c0,0,0.4-0.7,0.9-0.9c0.6-0.2,1.2-0.1,1.6-0.5c0.6-0.4,1.2-0.2,1.2-0.2s-0.4-0.5-0.7-0.5c-0.4-0.1-0.8-1.9-2.5-1.7
		c-1.5,0.1-2.1,0.3-2.5,0.3C790.9,485.1,790.2,484.7,790.2,484.7z"/>
	<path class="st1" d="M941.7,469c0,0-1.1-2.1-0.7-5.5s0.7-6.4-0.1-8.6s-3.2-7.6-4-11.9s-1.6-8.1-2.2-8.3c-0.6-0.2-3.5,8.7-3,14.6
		s1.2,6.9,1.4,8.6s-0.6,3.1-0.5,6.7s1.2,7.5,1.2,8.3c0.1,0.7-0.6,1.6-1.4,2.2c-0.7,0.7-2.6,1.3-3.4,1.7c-0.8,0.3-1.6,0.3-1.5,0.9
		s0.2,2.2,1.1,3c0.8,0.8,1.8,1,2.5,1.1c0.6,0.1,1.2-2.4,1.9-2.6c0.7-0.1,4.1-1.1,4.7-1c0.6,0.1,2.1,1.6,4.5,1c2.3-0.6,3-0.4,4.5,0.2
		c1.4,0.5,4.5,2.5,4.7,2.4c0.4-0.1-0.4-1.9-1.1-2.7c-1.1-1.2-1.3-1.3-1.9-2.2c-0.6-0.9-2.2-2.4-3-2.3c0,0,0.8-1.9,1.8-2.6
		c1.1-0.7,1.9-1.8,2.5-2c0.5-0.1,1.4-0.1,1.5-0.3c0.1-0.2-1.8-0.7-1.8-0.7s-0.5-1.6-2.8-1.8C944.1,467.3,942.4,468.8,941.7,469z"/>
	<path class="st1" d="M1027.8,599.5c0,0-0.9-1.9-0.6-4.9c0.2-3,0.6-5.7-0.1-7.5c-0.7-1.9-2.8-6.7-3.5-10.5c-0.7-3.8-1.4-7.2-1.9-7.3
		c-0.5-0.2-3,7.7-2.6,12.9c0.5,5.2,1.1,6.1,1.3,7.6s-0.5,2.7-0.4,6c0.1,3.2,0.9,6.7,1.1,7.3s-0.6,1.5-1.2,2c-0.6,0.5-2.2,1.2-3,1.5
		s-1.4,0.2-1.4,0.8c0.1,0.5,0.2,2,0.8,2.7s1.5,0.9,2.1,1c0.5,0.1,1.1-2.2,1.8-2.3c0.6-0.1,3.5-0.9,4.1-0.9c0.6,0.1,1.9,1.5,4,0.9
		c2.1-0.5,2.7-0.4,4,0.2c1.2,0.5,3.9,2.2,4.2,2.1c0.2-0.1-0.2-1.6-0.9-2.4c-0.8-1-1.2-1.2-1.8-2c-0.6-0.9-2.1-2.1-2.6-2.1
		c0,0,0.7-1.6,1.5-2.2c0.8-0.6,1.8-1.6,2.1-1.8c0.5-0.1,1.2-0.1,1.4-0.3c0.1-0.2-1.5-0.5-1.5-0.5s-0.5-1.4-2.6-1.6
		C1029.8,597.9,1028.4,599.2,1027.8,599.5z"/>
	<path class="st1" d="M835.5,476.1c0,0-0.6-0.9-0.6-2.6s0-3.1-0.5-4s-1.9-3.3-2.5-5.3s-1.2-3.7-1.4-3.8c-0.2-0.1-1.2,4.4-0.6,7.1
		c0.6,2.7,0.9,3.2,1.2,3.9c0.2,0.7-0.1,1.5,0.1,3.2c0.2,1.7,0.9,3.5,1.1,3.8c0.1,0.3-0.2,0.9-0.5,1.2c-0.2,0.4-1.2,0.9-1.5,1
		c-0.5,0.2-0.8,0.3-0.7,0.5s0.2,1,0.6,1.3s0.9,0.4,1.2,0.3c0.2,0,0.5-1.3,0.8-1.4s1.9-0.9,2.1-0.8c0.2,0,1.1,0.6,2.2,0.1
		c1.1-0.5,1.4-0.4,2.1-0.2c0.7,0.2,2.2,0.9,2.3,0.8s-0.2-0.9-0.6-1.2c-0.5-0.5-0.7-0.5-1.1-0.9s-1.2-1-1.5-0.9c0,0,0.2-1,0.7-1.3
		c0.5-0.4,0.8-1,1.1-1.2c0.2-0.1,0.6-0.2,0.7-0.2c0.1-0.1-0.8-0.2-0.8-0.2s-0.2-0.7-1.4-0.6C836.7,475,835.9,475.9,835.5,476.1z"/>
	<path class="st1" d="M987.7,611c-0.4-0.2-0.5-0.2-0.6-0.4c-0.2-0.2-0.8-0.4-0.9-0.3c0,0,0.1-0.5,0.2-0.9c0.2-0.3,0.4-0.7,0.5-0.8
		s0.4-0.2,0.4-0.2h-0.5c0,0-0.2-0.4-0.8-0.1c-0.6,0.2-0.9,0.8-1.2,0.9c0,0-0.5-0.4-0.6-1.3c-0.1-0.9-0.2-1.8-0.6-2.2
		c-0.4-0.5-1.4-1.6-1.9-2.7c-0.5-1-1.1-1.9-1.2-1.9c-0.1,0-0.2,2.6,0.2,4.1c0.6,1.5,0.8,1.6,1.1,2.1c0.1,0.4,0.1,0.9,0.4,1.8
		c0.2,0.9,0.8,1.8,0.9,2c0.1,0.2-0.1,0.5-0.2,0.7c-0.1,0.2-0.6,0.6-0.8,0.8s-0.5,0.2-0.4,0.4c0.1,0.1,0.2,0.5,0.5,0.7
		c0.2,0.1,0.6,0.1,0.7,0c0.1-0.1,0.1-0.8,0.4-0.9c0.2-0.1,1.1-0.7,1.2-0.7c0.1-0.1,0.6,0.2,1.2-0.2s0.8-0.4,1.2-0.4s1.3,0.2,1.4,0.1
		C988.3,611.6,987.9,611.2,987.7,611z"/>
	<path class="st1" d="M911.8,526.3c-0.8-0.4-1.1-0.4-1.5-0.9c-0.6-0.4-1.8-0.9-2.2-0.6c0,0,0.1-1.3,0.6-2s0.8-1.6,1.1-1.8
		c0.2-0.2,0.8-0.4,0.8-0.6c0.1-0.2-1.2,0.1-1.2,0.1s-0.6-0.8-2.1-0.3s-2.2,1.9-2.6,2.2c0,0-1.1-1-1.4-3.1c-0.5-2.1-0.7-4.1-1.5-5.1
		s-3.2-3.7-4.5-6.1s-2.5-4.4-2.8-4.4s-0.6,6.2,0.8,9.6c1.4,3.4,2,3.8,2.5,4.8s0.2,2,0.9,4.1s2.1,4.3,2.2,4.6
		c0.1,0.4-0.1,1.2-0.5,1.8c-0.2,0.6-1.3,1.5-1.8,1.9s-0.9,0.6-0.8,1c0.1,0.3,0.6,1.3,1.2,1.6c0.6,0.3,1.3,0.1,1.6,0s0.2-1.8,0.7-2.1
		s2.2-1.8,2.6-1.8c0.4-0.1,1.5,0.4,2.8-0.6s1.8-1.1,2.7-1.1c0.9-0.1,3,0.3,3.3,0.2C913.1,527.6,912.4,526.6,911.8,526.3z"/>
	<path class="st1" d="M957,539c0,0-0.7-1.2-1.6-0.9s-1.5,0.7-2.1,0.6c-0.6-0.1-2.8-0.6-3.5-3.4c-0.7-2.8,0.2-7.1-1.5-8
		c-1.9-1-7-2.2-12.9-1.5s-6.4,0.5-4.5,2.2s4.8,2.2,5.9,2.2s3.2,0.3,4.1,1.2c0.8,0.9,1.4,3,2.7,6c1.4,3,3,6.3,2.8,7.3
		c-0.1,1-1.2,2.2-2.3,2.8c-1.2,0.5-2.2,0.8-2,1.3s1.5,1.2,2.1,1.7s1.3,1.3,1.5,0.8s1.1-2.4,2.5-2.9s2.1-0.3,4.3-1.9s3.6-4.1,3.9-4.6
		c0.2-0.4,1.2,0.3,1.6,1s1.1,2.5,2.3,3.7c1.3,1.2,1.8,3.3,2.6,3.6c0.9,0.4,0.6-4.8,0.6-7.3c-0.1-2.6-0.2-3.8-0.9-5
		c-0.7-1.3-1.4-1.5-2.1-1C959.9,537.5,957.7,539,957,539z"/>
	<path class="st1" d="M861.3,436.2c0,0-0.1-0.2-0.4-0.2c-0.2,0.1-0.4,0.2-0.5,0.1c-0.1,0-0.6-0.1-0.8-0.8c-0.1-0.6,0.1-1.6-0.4-1.8
		c-0.5-0.2-1.5-0.5-2.8-0.3s-1.4,0.1-1.1,0.5c0.5,0.4,1.1,0.5,1.3,0.5s0.7,0.1,0.9,0.2c0.2,0.2,0.2,0.7,0.6,1.3
		c0.2,0.7,0.6,1.4,0.6,1.6s-0.2,0.5-0.5,0.6c-0.2,0.1-0.5,0.2-0.5,0.3c0.1,0.1,0.4,0.2,0.5,0.4c0.1,0.1,0.2,0.3,0.4,0.2
		c0.1-0.1,0.2-0.5,0.6-0.7c0.2-0.1,0.5-0.1,1.1-0.4s0.8-0.9,0.8-1c0.1-0.1,0.2,0.1,0.4,0.2c0.1,0.1,0.2,0.5,0.5,0.9
		c0.2,0.2,0.4,0.7,0.6,0.8c0.2,0.1,0.1-1.1,0.1-1.6s-0.1-0.9-0.2-1.2c-0.1-0.3-0.4-0.4-0.5-0.2C862,435.8,861.4,436.2,861.3,436.2z"
		/>
	<path class="st1" d="M1054,498c0,0-0.2-0.4-0.5-0.3s-0.5,0.2-0.6,0.2s-0.9-0.2-1.2-1.1c-0.2-0.9,0.1-2.3-0.5-2.6
		c-0.6-0.3-2.2-0.7-4.2-0.5c-1.9,0.2-2.1,0.2-1.4,0.7c0.6,0.5,1.5,0.7,1.9,0.7s1.1,0.1,1.3,0.4s0.5,1,0.8,1.9c0.5,1,0.9,2.1,0.9,2.4
		s-0.4,0.7-0.8,0.9c-0.4,0.2-0.7,0.2-0.6,0.4c0.1,0.2,0.5,0.4,0.6,0.5c0.1,0.2,0.5,0.4,0.5,0.2c0.1-0.2,0.4-0.8,0.8-0.9
		c0.5-0.2,0.7-0.1,1.4-0.6s1.2-1.3,1.3-1.5c0.1-0.1,0.4,0.1,0.5,0.3c0.1,0.2,0.4,0.8,0.8,1.2c0.5,0.4,0.6,1.1,0.8,1.2
		s0.2-1.6,0.1-2.4c0-0.9-0.1-1.2-0.2-1.6c-0.2-0.4-0.5-0.5-0.6-0.3C1055,497.4,1054.3,497.9,1054,498z"/>
</g>
<rect x="101.3" y="188.3" class="st0" width="21.9" height="16.5"/>
<path class="st1" d="M105.8,215.2l51.8-82.5c0,0,4.1-3.5,1.6,1.2s-46.1,74.6-46.1,74.6L105.8,215.2z"/>
<path class="st3" d="M117,204.6c-0.1-0.3-0.3-0.4-0.6-0.3c-0.2,0-0.3,0.1-0.5,0.2c0,0,0,0,0,0c-0.1,0.1-0.1,0.1-0.2,0.2
	c-0.2,0.2-0.4,0.3-0.5,0.6c-0.1,0.1-0.2,0.2-0.2,0.4c0,0.1-0.1,0.1-0.1,0.2c-0.1,0.1-0.2,0.2-0.2,0.2c-0.3,0.3-0.4,0.7-0.7,1.1
	c-0.2,0.4-0.5,0.6-0.7,1c-0.1,0.1-0.1,0.2-0.2,0.4c0,0,0,0,0,0c-0.1,0.1-0.2,0.2-0.3,0.3c-0.1,0.1-0.2,0.2-0.2,0.3
	c-0.1,0.2-0.1,0.4,0.1,0.6c0.1,0.1,0.4,0.2,0.6,0.1c0.2-0.1,0.3-0.3,0.4-0.4c0,0,0.1-0.1,0.1-0.1c0.1,0,0.1-0.1,0.1-0.1
	c0.1,0,0.2-0.1,0.3-0.2c0.2-0.1,0.4-0.3,0.5-0.4c0.2-0.2,0.4-0.5,0.5-0.8c0.1-0.1,0.2-0.3,0.4-0.4c0.1-0.2,0.2-0.3,0.2-0.5
	c0-0.1,0-0.1,0-0.2c0,0,0,0,0.1,0c0.5,0,0.6-0.6,0.3-0.9c0.3-0.1,0.4-0.3,0.4-0.6c0,0,0,0,0,0c0,0,0.1,0,0.1,0
	C116.9,205.2,117,204.9,117,204.6z"/>
<path class="st3" d="M123.1,218c-0.6,0-0.6,1,0,1C123.8,219,123.8,218,123.1,218z"/>
<path class="st3" d="M132.4,209.9c-0.6,0-0.6,1,0,1C133,210.9,133,209.9,132.4,209.9z"/>
<path class="st3" d="M118.5,206.3c-0.6,0-0.6,1,0,1C119.2,207.3,119.2,206.3,118.5,206.3z"/>
</svg>
