<svg id="Layer_1" data-name="Layer 1" xmlns="http://www.w3.org/2000/svg" viewBox="0 0 1900 700"><defs><style>.cls-1{fill:#0d081e;}.cls-2{fill:#fff;}</style></defs><path class="cls-1" d="M0,0H405.17c11.77,528.24,764.71,487.06,764.71,487.06C1821.35,492.94,1900,700,1900,700H0Z" transform="translate(0 0)"/><path class="cls-2" d="M312.73,213.62c.72-5.05,1.48-10.86-4.65-15.3a15.64,15.64,0,0,0-3.66-1.73c-6.52-1.94-11.33,2.09-14.62,7.46a72.22,72.22,0,0,0-.05-22.32l.13.09.06,0,.3.18.19.12.37.21a3,3,0,0,0,.31.16l.45.24.41.19.51.23.51.2.55.21.59.18.59.18.65.14c.21,0,.42.09.64.12s.45.06.69.08.43.06.66.07h.73l.68,0a6.79,6.79,0,0,0,.75-.11,5.88,5.88,0,0,0,.69-.12,7.16,7.16,0,0,0,.75-.23,6.28,6.28,0,0,0,.69-.24c.25-.1.5-.24.75-.37a6.61,6.61,0,0,0,.68-.39,7.1,7.1,0,0,0,.73-.53c.22-.17.45-.34.67-.54s.46-.47.69-.71.43-.47.64-.73.43-.59.65-.9.25-.33.38-.53l-.09.06c.19-.3.39-.56.58-.89,0,0-6.2,4.71-12.27-3.46a9,9,0,0,0,5-.58l.1,0,.35-.17.33-.17c.19-.1.37-.21.56-.33l.42-.28c.16-.11.32-.24.47-.36l.49-.4c.13-.12.25-.27.38-.4a7.11,7.11,0,0,0,.53-.56c.1-.12.2-.26.3-.39a12.84,12.84,0,0,0,1.21-1.87c0-.08.09-.14.12-.21s.18-.4.27-.6.32-.69.47-1.07c.07-.17.12-.36.18-.54.14-.37.27-.73.39-1.14l0,0c0-.15.1-.28.14-.44,0,0-2.13,3.22-7.64,2.32s-12.62-5.87-26.62-18.21c-13.63-12-47.14-26.77-74.59-10.35a5.58,5.58,0,0,0-3.77-3.44,5.36,5.36,0,0,0-4.87,1.09c-2.35,1.93-4,5.24-5,7.9a413.21,413.21,0,0,1,2.59-43.62c.16-1.37.36-2.69.54-4,1.64-.25,9.13-1.74,11.64-6.85a7.07,7.07,0,0,0,.41-5.63,4.78,4.78,0,0,0-3.09-3.08,4.28,4.28,0,0,0-4.24,1.48,20.31,20.31,0,0,0-3.56,6.23,215.35,215.35,0,0,1,12.23-45.23c11-27.63,19.58-36.22,26.51-40.95a1.66,1.66,0,0,0,.62-1.55A1.37,1.37,0,0,0,227,0a1.09,1.09,0,0,0-.54,0c-10.42,2.35-18.62,13.64-22.56,20.16a146.11,146.11,0,0,0-12.27,26.34,19.64,19.64,0,0,0-.3-2.82c-.54-2.84-2.16-4.91-4.35-5.49a5.1,5.1,0,0,0-4.71,1.16,8.43,8.43,0,0,0-2.69,5.94C179.1,52,184.46,59,186.77,61.71a243.4,243.4,0,0,0-7.26,38.35A19.13,19.13,0,0,0,178.7,97a6.35,6.35,0,0,0-4.13-4.27,5.11,5.11,0,0,0-5.06,1.54,8.53,8.53,0,0,0-2.09,6.85c.63,7.83,9.37,14.45,10.62,15.35-.85,12.62-1.14,25.17-1.27,37.46a19.08,19.08,0,0,0-2-4.92,5.35,5.35,0,0,0-3-2.49,4.35,4.35,0,0,0-4.55,1.72,7.33,7.33,0,0,0-1,6.48c1.41,5.17,7.23,8.48,9.84,9.73l-.14.27c-.33.65-.66,1.31-1,2s-.73,1.56-1.09,2.35-.59,1.34-.87,2-.67,1.66-1,2.5c-.26.68-.52,1.36-.76,2-.3.88-.58,1.76-.85,2.65-.22.68-.43,1.36-.63,2.05-.25.92-.47,1.84-.7,2.77-.16.68-.33,1.35-.47,2-.2,1-.36,1.94-.52,2.91-.11.66-.24,1.32-.33,2-.14,1-.22,2.06-.31,3.09-.05.62-.13,1.24-.16,1.86-.06,1.15-.06,2.3-.06,3.45,0,.51,0,1,0,1.53,0,1.66.17,3.33.38,5a76.05,76.05,0,0,0,9.43,27.43,4.65,4.65,0,0,0-1.8-1,4.43,4.43,0,0,0-4.71,1.84,7.59,7.59,0,0,0-.91,6.85c2.09,6.69,11.43,10,11.82,10.11l.27.1c.62,7.3,1.29,14.69,2.08,22-2.9,3.76-4.06,5.6-7,6.86-4.17,1.82-10.83-3.87-15.08-8.26a18,18,0,0,1-4.84-9.53,4,4,0,0,0-1.17,1.65c-.19-.57-.36-1.24-.6-2.19-.09-.38-.17-.81-.3-1.31s-.2-.78-.29-1.17A23.72,23.72,0,0,0,149.81,248c-.28-.47-2.82-4.83-4.23-7.36-.33-.63-.57-1.16-.82-1.7-.78-1.78-1.52-3.48-5.4-6.84-3-2.52-5.38-4-7.41-4.56a4.58,4.58,0,0,0-4.95,1.22,2.39,2.39,0,0,0-.61,1.86c.19,1.39,1.44,2.8,3.62,4.09a24.22,24.22,0,0,1,6,5.09,8,8,0,0,1,.9,1.51c-1-1-2.08-2-3-2.74-2.35-2-5.36-4.29-7.73-4.92a3.71,3.71,0,0,0-.65-.12,6.19,6.19,0,0,0-5.2,1.76,2.83,2.83,0,0,0-.65,2.17,3.9,3.9,0,0,0,3.23,3.19,16.25,16.25,0,0,0,1.85.37l.19,0c1.14.31,2.84,1.74,4.3,3.21-1.5-.59-3.17-1.22-4.27-1.51a8.36,8.36,0,0,0-.85-.17,6.84,6.84,0,0,0-5.59,2.36,4.12,4.12,0,0,0-.7,3.41c.23,1.21,2.66,2.27,4.2,2.68l.18,0c.43.1,1,.23,1.59.35s1.14.28,1.79.42a19.93,19.93,0,0,0-4.17,2.17,4.3,4.3,0,0,0-1.52,2.64,3.35,3.35,0,0,0,.35,2.39,2.58,2.58,0,0,0,1.64,1.22A8.92,8.92,0,0,0,126,260a12.06,12.06,0,0,1,5.67.09c.22.06.41.11.63.19,1.19.41,1.24.76,1.36,2,.05.42.09.87.18,1.43,0,.23.08.47.14.77.38,2.4,1.13,6.9,4.2,9.25a7.18,7.18,0,0,0,2.55,1.27,9.45,9.45,0,0,0,6-.71l.15-.06a1.35,1.35,0,0,1,.35-.06,11.91,11.91,0,0,1,4.61,4c2.05,2.64,12.84,13.63,21.64,16.1a33,33,0,0,0-3.64,8c-2.12-2.23-3.23-3-3.79-3.19-2.13-2-4.35-3.71-6.09-4.22-4.15-1.22-8.65,5.15-12,10.84,0,0,0,0-.06,0l-.65,1.18c-.23.39-.45.78-.66,1.15,0,0-.84-.75-2.41-1.88v0A64,64,0,0,0,121.41,296c-15.57-3.51-20.52.32-25.69.26s-6-1.12-6.84-1.88-1.37,3,2.5,4.73a10.25,10.25,0,0,0-2.41-.26l-.22-.05-.83-.22c-.27-.09-.56-.16-.85-.23l-.41-.12-.43-.12a12.64,12.64,0,0,1-3.36-1.27c-3.24-2-4.89-6.58-6.36-10.63l-.32-.88-.12-.36c-1-2.83-2.17-6-3.9-8.26a16.25,16.25,0,0,0,0-8.62,7.53,7.53,0,0,0-4.62-4.86,5,5,0,0,0-1.06-.15c-2,0-3.5,1.62-3.92,4a2.72,2.72,0,0,0-2.44,1.4,4.79,4.79,0,0,0-.57,1.67,2.36,2.36,0,0,0-1.82.84,3.35,3.35,0,0,0-.79,2.17,1.84,1.84,0,0,0-1.14.76,3.5,3.5,0,0,0-.55,2.52,2.16,2.16,0,0,0-1.09,1.06,4.34,4.34,0,0,0,.1,3.62A7.91,7.91,0,0,0,57.86,285c0,5.59,3.42,10,6.44,13.94.72.94,1.42,1.85,2.08,2.78a43.13,43.13,0,0,1,4.06,7.86,57.49,57.49,0,0,0,3.17,6.51c2.2,3.72,4.53,5.92,7,6.57a5.9,5.9,0,0,0,3.12,0c2.69-.69,4.24-2.31,5-5.26a6.07,6.07,0,0,1,1.44-2.81c0,1.1,2.13-.7,3.16-1.37l.54-.12c-.1.57-1.9,3.13-.1,4.42,0,0,1.45-2.41,8.65-3.85s23-3.51,35.45,13.93a16.45,16.45,0,0,0-1.65,1.8s0,0,0,0a7.51,7.51,0,0,1-2,1.13,1.36,1.36,0,0,0,.25.26l.1.07a.83.83,0,0,0,.15.11,2.24,2.24,0,0,0,.38.19h.07a2.44,2.44,0,0,0,.45.12l.14,0h.12a5.28,5.28,0,0,1-.82.61,5,5,0,0,1-3.84.29,15,15,0,0,1-4-2c-.79-.52-1.67-1.22-2.58-1.93-2-1.56-4.19-3.32-6.48-4.09a15.54,15.54,0,0,0-2.16-4.74,6.71,6.71,0,0,0-3.19-2.61,2.38,2.38,0,0,0-.94-.1,3.19,3.19,0,0,0-2.43,1.64,2.8,2.8,0,0,0-.79-.33A3.06,3.06,0,0,0,105,319.5a4.58,4.58,0,0,0-.36.94,2.67,2.67,0,0,0-3,1.8,3.81,3.81,0,0,0-1.94,1.88,3.06,3.06,0,0,0-.87-.39,3.52,3.52,0,0,0-3.68,1.54,7.57,7.57,0,0,0-1.31,6.43,11,11,0,0,0,6.31,7.54c.37.14.77.26,1.13.36a8.77,8.77,0,0,0,2,.32c2.11,4.49,8.06,6.6,12.44,8.15q1.36.46,2.37.87c4.43,1.83,8.74,3.83,13.14,6.14a46,46,0,0,0,6.38,2.9l.19.12a13.92,13.92,0,0,0,2.89,1.13c3.55.95,6.86.5,8.87-1.24a7.15,7.15,0,0,0,2.33-5.12,30.71,30.71,0,0,0-.45-6.6,38.25,38.25,0,0,0,4.56,5.44A42.53,42.53,0,0,0,178.43,365a74.48,74.48,0,0,1-7.15,11.28c-6.16,8-13.71,14.33-19.6,18.95-3.59,2.82-7.46,5.79-12.09,9.26a27.11,27.11,0,0,0,5-8.7,8.36,8.36,0,0,0-.29-5.92,5.82,5.82,0,0,0-3.71-3.25c-2.46-.67-4.94.52-6.68,3.19-3.79,5.9-1.73,16.68-1.12,19.36a28.37,28.37,0,0,0-6.12,5.5,38.89,38.89,0,0,0-4.2,6.62,66.71,66.71,0,0,0-3.18,7.14,50.69,50.69,0,0,0-2.4,8.76,19.85,19.85,0,0,0-1.47-5.48,5.16,5.16,0,0,0-3.18-3,4.13,4.13,0,0,0-4.23,1.42,7.06,7.06,0,0,0-1.39,5.91c1,5.87,7.69,10.17,9.35,11.15,0,8.57,2.3,16.25,6.49,21.56,1.49,1.88,5.48,6.38,10.18,7.64a8.6,8.6,0,0,0,5.13-.1c5.12-1.76,8.72-7.13,8.8-13,.07-5.25-1.89-8.92-5.24-9.82a7.65,7.65,0,0,0-3.35-.06,7.57,7.57,0,0,0-5.13,5.2,7.24,7.24,0,0,0,.17,4.22,4.56,4.56,0,0,0,3.14,4.11,3.58,3.58,0,0,0,.87.11,2.91,2.91,0,0,0,3.05-1.53,8,8,0,0,0,.69-1.5,7.93,7.93,0,0,1-.43,1.76c-1.23,3.15-3.71,4.57-6.61,3.79a7.32,7.32,0,0,1-2.61-1.32c-8.87-6.67-9-19.12-7.64-28.41a34.39,34.39,0,0,1,2.09-7.64l.73.21c2.91.78,10,2.27,13.46-.63a5.14,5.14,0,0,0,1.77-4.87,6.41,6.41,0,0,0-4.46-5A5.19,5.19,0,0,0,134,422a12.69,12.69,0,0,0-4.56,3.06c5.6-7.94,14.12-13.47,22.47-18.86a130.42,130.42,0,0,0,13-9.15,87,87,0,0,0,24.11-31.22A48.56,48.56,0,0,0,203.33,363a64.53,64.53,0,0,0-4,17.62c-.67,10.87,1.25,21.23,6.53,30.51,9.91,17.36,32.67,16.89,46.54,7.55a28.2,28.2,0,0,0,2.43-1.84c.25-.2.48-.41.72-.62.56-.5,1.11-1,1.64-1.55l.7-.7c.69-.74,1.37-1.51,2-2.32l.2-.28c.6-.77,1.17-1.57,1.71-2.39l.57-.9c.41-.66.8-1.34,1.17-2,.17-.3.33-.59.49-.9.49-1,1-1.94,1.37-3,0,0,0,0,0,0a38.91,38.91,0,0,0,2.21-7.22c1.18-5.83.14-12.1-1.07-17.78-1-4.62-2.09-9-2.9-13.54-.19-1.08-.36-2.18-.51-3.29,0-.2-.06-.41-.08-.61-.15-1.2-.28-2.41-.36-3.65-.74-11.13,1.52-25.66,9.62-32.81,7.89-7,29-7.81,29.56,7.9.18,4.69-1,12.6-3.17,16.6-1.8,3.31-4.81,6.13-8.3,5.64-1.72-.23-5.32-5-2-5.45a4.14,4.14,0,0,0,1.12-.32l.3-.15a3.94,3.94,0,0,0,.79-.54l.18-.14a5,5,0,0,0,.69-.87v0a5.31,5.31,0,0,0,.63-1.56c0-.17.06-.32.09-.48a4.37,4.37,0,0,0-5.07-5.53,14.59,14.59,0,0,0-4.54,1.94c-.27.18-.52.36-.78.56l-.37.28a8.71,8.71,0,0,0-1,.94,3.47,3.47,0,0,0-.25.29,9.87,9.87,0,0,0-.72,1l-.16.24a7.41,7.41,0,0,0-.6,1.31l-.12.36a7.64,7.64,0,0,0-.31,1.54c-.52,5.94,2.14,9.8,6.08,13.13,8.82,7.43,18.93-2.88,22.48-12,.35-.91.65-1.85.92-2.79l0-.12a.19.19,0,0,0,0,.07c2.81-9.86,1-21.15-5.74-28.23-6.89-7.31-17.42-7.48-25.93-5.13a22.14,22.14,0,0,0-10.73,7.06c.05-.07.08-.14.13-.2-.12.14-.23.31-.35.45a30.3,30.3,0,0,0-2,2.67c-.12.17-.24.32-.35.5a35.32,35.32,0,0,0-2,3.51c-.13.25-.25.52-.38.79-.51,1.05-1,2.14-1.42,3.25-.1.25-.21.49-.3.74-.49,1.33-.94,2.68-1.33,4.07-.06.22-.11.45-.17.69-.32,1.19-.6,2.4-.85,3.62-.06.31-.13.62-.18.93-.26,1.41-.48,2.83-.64,4.25,0,.15,0,.3,0,.45-.13,1.27-.22,2.52-.27,3.77,0,.35,0,.71,0,1.06,0,1.38,0,2.74,0,4.07a75.91,75.91,0,0,0,2.81,16.74c1.79,6.27,3.56,12.71,3.76,19.38a15.78,15.78,0,0,1-.08,2.18c0,.3-.08.59-.12.89s-.12.84-.21,1.25-.16.67-.24,1-.21.74-.32,1.11-.22.66-.34,1-.27.72-.42,1.08-.25.62-.39.93-.39.82-.6,1.23c-.11.23-.22.47-.34.69a50.24,50.24,0,0,1-3.58,5.67c-8,11.09-23.51,13.15-34.37,6.65s-14.19-18-13.61-30.26h0c.05-1.25.16-2.51.3-3.77,0-.29.07-.58.1-.86.12-1,.26-2,.43-3,.06-.34.11-.67.17-1,.18-1,.38-2,.61-3,0-.27.11-.55.17-.83.3-1.27.61-2.54,1-3.81.82-2.91,1.77-5.76,2.73-8.61,5.28-4.26,10.6-11.66,12.85-24.11a12,12,0,0,0,2.19.86c2.76,1.08,7.75,2.38,12.44.18a6.28,6.28,0,0,0,1.42-1l.07-.05h0c5.71-5.11,6.83-22.62,2.41-37.67a101.73,101.73,0,0,0-4.64-12.68c15.82,2.93,37.16-.32,51.34-24.07,1.73-.7,12.1-5.35,16.38-15.33,1.69-3.93,2.28-6.49,1.85-8a2,2,0,0,0-.94-1.26c-1-.6-2.55,0-3.85.76a23.75,23.75,0,0,0-.73-2.69C308.43,228.59,311.85,219.79,312.73,213.62ZM195,255.91a50.35,50.35,0,0,0-2.95,4.89c-.3-2.95-.59-5.89-.85-8.85Q193.13,254,195,255.91Zm-8.77-106.84-.61.74c-.45.54-.89,1.11-1.34,1.69l-.06.08c0-.74,0-1.51,0-2.24C184.7,149.29,185.42,149.2,186.27,149.07Zm-5.54,89.38c.05.61.11,1.21.16,1.82a30.31,30.31,0,0,0-.9-3C180.24,237.67,180.48,238.07,180.73,238.45Z" transform="translate(0 0)"/></svg>